G75*
%MOIN*%
%OFA0B0*%
%FSLAX25Y25*%
%IPPOS*%
%LPD*%
%AMOC8*
5,1,8,0,0,1.08239X$1,22.5*
%
%ADD10C,0.00000*%
%ADD11C,0.00400*%
%ADD12C,0.00800*%
%ADD13C,0.02245*%
D10*
X0050126Y0040933D02*
X0051126Y0403634D01*
X0392047Y0403634D01*
X0393047Y0040933D01*
X0050126Y0040933D01*
D11*
X0072149Y0049228D02*
X0072149Y0053831D01*
X0074451Y0053831D01*
X0075218Y0053064D01*
X0075218Y0051530D01*
X0074451Y0050762D01*
X0072149Y0050762D01*
X0076753Y0051530D02*
X0079822Y0051530D01*
X0079822Y0052297D02*
X0079822Y0049228D01*
X0081357Y0049228D02*
X0083659Y0049228D01*
X0084426Y0049995D01*
X0084426Y0053064D01*
X0083659Y0053831D01*
X0081357Y0053831D01*
X0081357Y0049228D01*
X0079822Y0052297D02*
X0078288Y0053831D01*
X0076753Y0052297D01*
X0076753Y0049228D01*
X0085961Y0049228D02*
X0089030Y0052297D01*
X0089030Y0053064D01*
X0088263Y0053831D01*
X0086728Y0053831D01*
X0085961Y0053064D01*
X0085961Y0049228D02*
X0089030Y0049228D01*
X0090565Y0049995D02*
X0093634Y0053064D01*
X0093634Y0049995D01*
X0092867Y0049228D01*
X0091332Y0049228D01*
X0090565Y0049995D01*
X0090565Y0053064D01*
X0091332Y0053831D01*
X0092867Y0053831D01*
X0093634Y0053064D01*
X0097149Y0053831D02*
X0097149Y0049228D01*
X0097149Y0050762D02*
X0099451Y0050762D01*
X0100218Y0051530D01*
X0100218Y0053064D01*
X0099451Y0053831D01*
X0097149Y0053831D01*
X0101753Y0052297D02*
X0103288Y0053831D01*
X0104822Y0052297D01*
X0104822Y0049228D01*
X0106357Y0049228D02*
X0108659Y0049228D01*
X0109426Y0049995D01*
X0109426Y0053064D01*
X0108659Y0053831D01*
X0106357Y0053831D01*
X0106357Y0049228D01*
X0104822Y0051530D02*
X0101753Y0051530D01*
X0101753Y0052297D02*
X0101753Y0049228D01*
X0110961Y0049228D02*
X0114030Y0052297D01*
X0114030Y0053064D01*
X0113263Y0053831D01*
X0111728Y0053831D01*
X0110961Y0053064D01*
X0110961Y0049228D02*
X0114030Y0049228D01*
X0115565Y0049228D02*
X0118634Y0049228D01*
X0117099Y0049228D02*
X0117099Y0053831D01*
X0115565Y0052297D01*
X0122149Y0053831D02*
X0124451Y0053831D01*
X0125218Y0053064D01*
X0125218Y0051530D01*
X0124451Y0050762D01*
X0122149Y0050762D01*
X0122149Y0049228D02*
X0122149Y0053831D01*
X0126753Y0052297D02*
X0128288Y0053831D01*
X0129822Y0052297D01*
X0129822Y0049228D01*
X0131357Y0049228D02*
X0131357Y0053831D01*
X0133659Y0053831D01*
X0134426Y0053064D01*
X0134426Y0049995D01*
X0133659Y0049228D01*
X0131357Y0049228D01*
X0129822Y0051530D02*
X0126753Y0051530D01*
X0126753Y0052297D02*
X0126753Y0049228D01*
X0135961Y0049228D02*
X0139030Y0052297D01*
X0139030Y0053064D01*
X0138263Y0053831D01*
X0136728Y0053831D01*
X0135961Y0053064D01*
X0135961Y0049228D02*
X0139030Y0049228D01*
X0140565Y0049228D02*
X0143634Y0052297D01*
X0143634Y0053064D01*
X0142867Y0053831D01*
X0141332Y0053831D01*
X0140565Y0053064D01*
X0140565Y0049228D02*
X0143634Y0049228D01*
X0147149Y0049228D02*
X0147149Y0053831D01*
X0149451Y0053831D01*
X0150218Y0053064D01*
X0150218Y0051530D01*
X0149451Y0050762D01*
X0147149Y0050762D01*
X0151753Y0051530D02*
X0154822Y0051530D01*
X0154822Y0052297D02*
X0154822Y0049228D01*
X0156357Y0049228D02*
X0158659Y0049228D01*
X0159426Y0049995D01*
X0159426Y0053064D01*
X0158659Y0053831D01*
X0156357Y0053831D01*
X0156357Y0049228D01*
X0154822Y0052297D02*
X0153288Y0053831D01*
X0151753Y0052297D01*
X0151753Y0049228D01*
X0160961Y0049228D02*
X0164030Y0052297D01*
X0164030Y0053064D01*
X0163263Y0053831D01*
X0161728Y0053831D01*
X0160961Y0053064D01*
X0160961Y0049228D02*
X0164030Y0049228D01*
X0165565Y0049995D02*
X0166332Y0049228D01*
X0167867Y0049228D01*
X0168634Y0049995D01*
X0168634Y0050762D01*
X0167867Y0051530D01*
X0167099Y0051530D01*
X0167867Y0051530D02*
X0168634Y0052297D01*
X0168634Y0053064D01*
X0167867Y0053831D01*
X0166332Y0053831D01*
X0165565Y0053064D01*
X0172149Y0053831D02*
X0172149Y0049228D01*
X0172149Y0050762D02*
X0174451Y0050762D01*
X0175218Y0051530D01*
X0175218Y0053064D01*
X0174451Y0053831D01*
X0172149Y0053831D01*
X0176753Y0052297D02*
X0178288Y0053831D01*
X0179822Y0052297D01*
X0179822Y0049228D01*
X0181357Y0049228D02*
X0183659Y0049228D01*
X0184426Y0049995D01*
X0184426Y0053064D01*
X0183659Y0053831D01*
X0181357Y0053831D01*
X0181357Y0049228D01*
X0179822Y0051530D02*
X0176753Y0051530D01*
X0176753Y0052297D02*
X0176753Y0049228D01*
X0185961Y0049228D02*
X0189030Y0052297D01*
X0189030Y0053064D01*
X0188263Y0053831D01*
X0186728Y0053831D01*
X0185961Y0053064D01*
X0185961Y0049228D02*
X0189030Y0049228D01*
X0190565Y0051530D02*
X0192867Y0053831D01*
X0192867Y0049228D01*
X0193634Y0051530D02*
X0190565Y0051530D01*
X0197149Y0050762D02*
X0199451Y0050762D01*
X0200218Y0051530D01*
X0200218Y0053064D01*
X0199451Y0053831D01*
X0197149Y0053831D01*
X0197149Y0049228D01*
X0201753Y0049228D02*
X0201753Y0052297D01*
X0203288Y0053831D01*
X0204822Y0052297D01*
X0204822Y0049228D01*
X0206357Y0049228D02*
X0206357Y0053831D01*
X0208659Y0053831D01*
X0209426Y0053064D01*
X0209426Y0049995D01*
X0208659Y0049228D01*
X0206357Y0049228D01*
X0204822Y0051530D02*
X0201753Y0051530D01*
X0210961Y0053064D02*
X0211728Y0053831D01*
X0213263Y0053831D01*
X0214030Y0053064D01*
X0214030Y0052297D01*
X0213263Y0051530D01*
X0214030Y0050762D01*
X0214030Y0049995D01*
X0213263Y0049228D01*
X0211728Y0049228D01*
X0210961Y0049995D01*
X0212495Y0051530D02*
X0213263Y0051530D01*
X0215565Y0053064D02*
X0216332Y0053831D01*
X0217867Y0053831D01*
X0218634Y0053064D01*
X0218634Y0052297D01*
X0217867Y0051530D01*
X0218634Y0050762D01*
X0218634Y0049995D01*
X0217867Y0049228D01*
X0216332Y0049228D01*
X0215565Y0049995D01*
X0217099Y0051530D02*
X0217867Y0051530D01*
X0222149Y0050762D02*
X0224451Y0050762D01*
X0225218Y0051530D01*
X0225218Y0053064D01*
X0224451Y0053831D01*
X0222149Y0053831D01*
X0222149Y0049228D01*
X0226753Y0049228D02*
X0226753Y0052297D01*
X0228288Y0053831D01*
X0229822Y0052297D01*
X0229822Y0049228D01*
X0231357Y0049228D02*
X0233659Y0049228D01*
X0234426Y0049995D01*
X0234426Y0053064D01*
X0233659Y0053831D01*
X0231357Y0053831D01*
X0231357Y0049228D01*
X0229822Y0051530D02*
X0226753Y0051530D01*
X0235961Y0053064D02*
X0236728Y0053831D01*
X0238263Y0053831D01*
X0239030Y0053064D01*
X0239030Y0052297D01*
X0238263Y0051530D01*
X0239030Y0050762D01*
X0239030Y0049995D01*
X0238263Y0049228D01*
X0236728Y0049228D01*
X0235961Y0049995D01*
X0237495Y0051530D02*
X0238263Y0051530D01*
X0240565Y0051530D02*
X0243634Y0051530D01*
X0242867Y0053831D02*
X0242867Y0049228D01*
X0240565Y0051530D02*
X0242867Y0053831D01*
X0247149Y0053831D02*
X0247149Y0049228D01*
X0247149Y0050762D02*
X0249451Y0050762D01*
X0250218Y0051530D01*
X0250218Y0053064D01*
X0249451Y0053831D01*
X0247149Y0053831D01*
X0251753Y0052297D02*
X0253288Y0053831D01*
X0254822Y0052297D01*
X0254822Y0049228D01*
X0256357Y0049228D02*
X0256357Y0053831D01*
X0258659Y0053831D01*
X0259426Y0053064D01*
X0259426Y0049995D01*
X0258659Y0049228D01*
X0256357Y0049228D01*
X0254822Y0051530D02*
X0251753Y0051530D01*
X0251753Y0052297D02*
X0251753Y0049228D01*
X0260961Y0049995D02*
X0261728Y0049228D01*
X0263263Y0049228D01*
X0264030Y0049995D01*
X0264030Y0050762D01*
X0263263Y0051530D01*
X0262495Y0051530D01*
X0263263Y0051530D02*
X0264030Y0052297D01*
X0264030Y0053064D01*
X0263263Y0053831D01*
X0261728Y0053831D01*
X0260961Y0053064D01*
X0265565Y0053831D02*
X0265565Y0051530D01*
X0267099Y0052297D01*
X0267867Y0052297D01*
X0268634Y0051530D01*
X0268634Y0049995D01*
X0267867Y0049228D01*
X0266332Y0049228D01*
X0265565Y0049995D01*
X0265565Y0053831D02*
X0268634Y0053831D01*
X0272149Y0053831D02*
X0272149Y0049228D01*
X0272149Y0050762D02*
X0274451Y0050762D01*
X0275218Y0051530D01*
X0275218Y0053064D01*
X0274451Y0053831D01*
X0272149Y0053831D01*
X0276753Y0052297D02*
X0278288Y0053831D01*
X0279822Y0052297D01*
X0279822Y0049228D01*
X0281357Y0049228D02*
X0281357Y0053831D01*
X0283659Y0053831D01*
X0284426Y0053064D01*
X0284426Y0049995D01*
X0283659Y0049228D01*
X0281357Y0049228D01*
X0279822Y0051530D02*
X0276753Y0051530D01*
X0276753Y0052297D02*
X0276753Y0049228D01*
X0285961Y0051530D02*
X0289030Y0051530D01*
X0290565Y0053064D02*
X0291332Y0053831D01*
X0292867Y0053831D01*
X0293634Y0053064D01*
X0293634Y0052297D01*
X0292867Y0051530D01*
X0293634Y0050762D01*
X0293634Y0049995D01*
X0292867Y0049228D01*
X0291332Y0049228D01*
X0290565Y0049995D01*
X0292099Y0051530D02*
X0292867Y0051530D01*
X0297149Y0050762D02*
X0299451Y0050762D01*
X0300218Y0051530D01*
X0300218Y0053064D01*
X0299451Y0053831D01*
X0297149Y0053831D01*
X0297149Y0049228D01*
X0301753Y0049228D02*
X0301753Y0052297D01*
X0303288Y0053831D01*
X0304822Y0052297D01*
X0304822Y0049228D01*
X0306357Y0049228D02*
X0308659Y0049228D01*
X0309426Y0049995D01*
X0309426Y0053064D01*
X0308659Y0053831D01*
X0306357Y0053831D01*
X0306357Y0049228D01*
X0304822Y0051530D02*
X0301753Y0051530D01*
X0310961Y0051530D02*
X0314030Y0051530D01*
X0315565Y0051530D02*
X0317867Y0053831D01*
X0317867Y0049228D01*
X0318634Y0051530D02*
X0315565Y0051530D01*
X0313263Y0053831D02*
X0310961Y0051530D01*
X0313263Y0053831D02*
X0313263Y0049228D01*
X0326753Y0049228D02*
X0326753Y0053831D01*
X0329055Y0053831D01*
X0329822Y0053064D01*
X0329822Y0051530D01*
X0329055Y0050762D01*
X0326753Y0050762D01*
X0331357Y0051530D02*
X0334426Y0051530D01*
X0334426Y0052297D02*
X0334426Y0049228D01*
X0335961Y0049228D02*
X0335961Y0053831D01*
X0338263Y0053831D01*
X0339030Y0053064D01*
X0339030Y0049995D01*
X0338263Y0049228D01*
X0335961Y0049228D01*
X0334426Y0052297D02*
X0332891Y0053831D01*
X0331357Y0052297D01*
X0331357Y0049228D01*
X0340565Y0049995D02*
X0341332Y0049228D01*
X0342867Y0049228D01*
X0343634Y0049995D01*
X0343634Y0050762D01*
X0342867Y0051530D01*
X0340565Y0051530D01*
X0340565Y0049995D01*
X0340565Y0051530D02*
X0342099Y0053064D01*
X0343634Y0053831D01*
X0351753Y0053831D02*
X0351753Y0049228D01*
X0351753Y0050762D02*
X0354055Y0050762D01*
X0354822Y0051530D01*
X0354822Y0053064D01*
X0354055Y0053831D01*
X0351753Y0053831D01*
X0356357Y0052297D02*
X0357891Y0053831D01*
X0359426Y0052297D01*
X0359426Y0049228D01*
X0360961Y0049228D02*
X0363263Y0049228D01*
X0364030Y0049995D01*
X0364030Y0053064D01*
X0363263Y0053831D01*
X0360961Y0053831D01*
X0360961Y0049228D01*
X0359426Y0051530D02*
X0356357Y0051530D01*
X0356357Y0052297D02*
X0356357Y0049228D01*
X0365565Y0049228D02*
X0368634Y0052297D01*
X0368634Y0053064D01*
X0367867Y0053831D01*
X0366332Y0053831D01*
X0365565Y0053064D01*
X0365565Y0049228D02*
X0368634Y0049228D01*
X0369021Y0075291D02*
X0364417Y0075291D01*
X0364417Y0077593D01*
X0365184Y0078360D01*
X0366719Y0078360D01*
X0367486Y0077593D01*
X0367486Y0075291D01*
X0366719Y0079894D02*
X0366719Y0082964D01*
X0365951Y0082964D02*
X0369021Y0082964D01*
X0369021Y0084498D02*
X0369021Y0086800D01*
X0368253Y0087568D01*
X0365184Y0087568D01*
X0364417Y0086800D01*
X0364417Y0084498D01*
X0369021Y0084498D01*
X0365951Y0082964D02*
X0364417Y0081429D01*
X0365951Y0079894D01*
X0369021Y0079894D01*
X0366719Y0089102D02*
X0366719Y0092172D01*
X0366719Y0093706D02*
X0365951Y0095241D01*
X0365951Y0096008D01*
X0366719Y0096776D01*
X0368253Y0096776D01*
X0369021Y0096008D01*
X0369021Y0094474D01*
X0368253Y0093706D01*
X0366719Y0093706D02*
X0364417Y0093706D01*
X0364417Y0096776D01*
X0364417Y0100291D02*
X0364417Y0102593D01*
X0365184Y0103360D01*
X0366719Y0103360D01*
X0367486Y0102593D01*
X0367486Y0100291D01*
X0369021Y0100291D02*
X0364417Y0100291D01*
X0365951Y0104894D02*
X0364417Y0106429D01*
X0365951Y0107964D01*
X0369021Y0107964D01*
X0369021Y0109498D02*
X0364417Y0109498D01*
X0364417Y0111800D01*
X0365184Y0112568D01*
X0368253Y0112568D01*
X0369021Y0111800D01*
X0369021Y0109498D01*
X0366719Y0107964D02*
X0366719Y0104894D01*
X0365951Y0104894D02*
X0369021Y0104894D01*
X0366719Y0114102D02*
X0366719Y0117172D01*
X0366719Y0118706D02*
X0366719Y0121008D01*
X0367486Y0121776D01*
X0368253Y0121776D01*
X0369021Y0121008D01*
X0369021Y0119474D01*
X0368253Y0118706D01*
X0366719Y0118706D01*
X0365184Y0120241D01*
X0364417Y0121776D01*
X0364417Y0125291D02*
X0364417Y0127593D01*
X0365184Y0128360D01*
X0366719Y0128360D01*
X0367486Y0127593D01*
X0367486Y0125291D01*
X0369021Y0125291D02*
X0364417Y0125291D01*
X0365951Y0129894D02*
X0364417Y0131429D01*
X0365951Y0132964D01*
X0369021Y0132964D01*
X0369021Y0134498D02*
X0364417Y0134498D01*
X0364417Y0136800D01*
X0365184Y0137568D01*
X0368253Y0137568D01*
X0369021Y0136800D01*
X0369021Y0134498D01*
X0366719Y0132964D02*
X0366719Y0129894D01*
X0365951Y0129894D02*
X0369021Y0129894D01*
X0366719Y0139102D02*
X0366719Y0142172D01*
X0368253Y0143706D02*
X0365184Y0146776D01*
X0364417Y0146776D01*
X0364417Y0143706D01*
X0364417Y0141404D02*
X0366719Y0139102D01*
X0369021Y0141404D02*
X0364417Y0141404D01*
X0368253Y0143706D02*
X0369021Y0143706D01*
X0369021Y0150291D02*
X0364417Y0150291D01*
X0364417Y0152593D01*
X0365184Y0153360D01*
X0366719Y0153360D01*
X0367486Y0152593D01*
X0367486Y0150291D01*
X0366719Y0154894D02*
X0366719Y0157964D01*
X0365951Y0157964D02*
X0369021Y0157964D01*
X0369021Y0159498D02*
X0369021Y0161800D01*
X0368253Y0162568D01*
X0365184Y0162568D01*
X0364417Y0161800D01*
X0364417Y0159498D01*
X0369021Y0159498D01*
X0365951Y0157964D02*
X0364417Y0156429D01*
X0365951Y0154894D01*
X0369021Y0154894D01*
X0366719Y0164102D02*
X0366719Y0167172D01*
X0367486Y0168706D02*
X0366719Y0169474D01*
X0366719Y0171008D01*
X0367486Y0171776D01*
X0368253Y0171776D01*
X0369021Y0171008D01*
X0369021Y0169474D01*
X0368253Y0168706D01*
X0367486Y0168706D01*
X0366719Y0169474D02*
X0365951Y0168706D01*
X0365184Y0168706D01*
X0364417Y0169474D01*
X0364417Y0171008D01*
X0365184Y0171776D01*
X0365951Y0171776D01*
X0366719Y0171008D01*
X0367486Y0175291D02*
X0367486Y0177593D01*
X0366719Y0178360D01*
X0365184Y0178360D01*
X0364417Y0177593D01*
X0364417Y0175291D01*
X0369021Y0175291D01*
X0369021Y0179894D02*
X0365951Y0179894D01*
X0364417Y0181429D01*
X0365951Y0182964D01*
X0369021Y0182964D01*
X0369021Y0184498D02*
X0369021Y0186800D01*
X0368253Y0187568D01*
X0365184Y0187568D01*
X0364417Y0186800D01*
X0364417Y0184498D01*
X0369021Y0184498D01*
X0366719Y0182964D02*
X0366719Y0179894D01*
X0365184Y0189102D02*
X0364417Y0189870D01*
X0364417Y0191404D01*
X0365184Y0192172D01*
X0365951Y0192172D01*
X0369021Y0189102D01*
X0369021Y0192172D01*
X0368253Y0193706D02*
X0369021Y0194474D01*
X0369021Y0196008D01*
X0368253Y0196776D01*
X0366719Y0196776D01*
X0365951Y0196008D01*
X0365951Y0195241D01*
X0366719Y0193706D01*
X0364417Y0193706D01*
X0364417Y0196776D01*
X0364417Y0200291D02*
X0364417Y0202593D01*
X0365184Y0203360D01*
X0366719Y0203360D01*
X0367486Y0202593D01*
X0367486Y0200291D01*
X0369021Y0200291D02*
X0364417Y0200291D01*
X0365951Y0204894D02*
X0364417Y0206429D01*
X0365951Y0207964D01*
X0369021Y0207964D01*
X0369021Y0209498D02*
X0369021Y0211800D01*
X0368253Y0212568D01*
X0365184Y0212568D01*
X0364417Y0211800D01*
X0364417Y0209498D01*
X0369021Y0209498D01*
X0366719Y0207964D02*
X0366719Y0204894D01*
X0365951Y0204894D02*
X0369021Y0204894D01*
X0369021Y0214102D02*
X0365951Y0217172D01*
X0365184Y0217172D01*
X0364417Y0216404D01*
X0364417Y0214870D01*
X0365184Y0214102D01*
X0369021Y0214102D02*
X0369021Y0217172D01*
X0368253Y0218706D02*
X0366719Y0218706D01*
X0366719Y0221008D01*
X0367486Y0221776D01*
X0368253Y0221776D01*
X0369021Y0221008D01*
X0369021Y0219474D01*
X0368253Y0218706D01*
X0366719Y0218706D02*
X0365184Y0220241D01*
X0364417Y0221776D01*
X0364417Y0225291D02*
X0364417Y0227593D01*
X0365184Y0228360D01*
X0366719Y0228360D01*
X0367486Y0227593D01*
X0367486Y0225291D01*
X0369021Y0225291D02*
X0364417Y0225291D01*
X0365951Y0229894D02*
X0364417Y0231429D01*
X0365951Y0232964D01*
X0369021Y0232964D01*
X0369021Y0234498D02*
X0369021Y0236800D01*
X0368253Y0237568D01*
X0365184Y0237568D01*
X0364417Y0236800D01*
X0364417Y0234498D01*
X0369021Y0234498D01*
X0366719Y0232964D02*
X0366719Y0229894D01*
X0365951Y0229894D02*
X0369021Y0229894D01*
X0369021Y0239102D02*
X0365951Y0242172D01*
X0365184Y0242172D01*
X0364417Y0241404D01*
X0364417Y0239870D01*
X0365184Y0239102D01*
X0369021Y0239102D02*
X0369021Y0242172D01*
X0369021Y0243706D02*
X0368253Y0243706D01*
X0365184Y0246776D01*
X0364417Y0246776D01*
X0364417Y0243706D01*
X0364417Y0250291D02*
X0364417Y0252593D01*
X0365184Y0253360D01*
X0366719Y0253360D01*
X0367486Y0252593D01*
X0367486Y0250291D01*
X0369021Y0250291D02*
X0364417Y0250291D01*
X0365951Y0254894D02*
X0364417Y0256429D01*
X0365951Y0257964D01*
X0369021Y0257964D01*
X0369021Y0259498D02*
X0364417Y0259498D01*
X0364417Y0261800D01*
X0365184Y0262568D01*
X0368253Y0262568D01*
X0369021Y0261800D01*
X0369021Y0259498D01*
X0366719Y0257964D02*
X0366719Y0254894D01*
X0365951Y0254894D02*
X0369021Y0254894D01*
X0369021Y0264102D02*
X0365951Y0267172D01*
X0365184Y0267172D01*
X0364417Y0266404D01*
X0364417Y0264870D01*
X0365184Y0264102D01*
X0369021Y0264102D02*
X0369021Y0267172D01*
X0368253Y0268706D02*
X0367486Y0268706D01*
X0366719Y0269474D01*
X0366719Y0271008D01*
X0367486Y0271776D01*
X0368253Y0271776D01*
X0369021Y0271008D01*
X0369021Y0269474D01*
X0368253Y0268706D01*
X0366719Y0269474D02*
X0365951Y0268706D01*
X0365184Y0268706D01*
X0364417Y0269474D01*
X0364417Y0271008D01*
X0365184Y0271776D01*
X0365951Y0271776D01*
X0366719Y0271008D01*
X0367486Y0275291D02*
X0367486Y0277593D01*
X0366719Y0278360D01*
X0365184Y0278360D01*
X0364417Y0277593D01*
X0364417Y0275291D01*
X0369021Y0275291D01*
X0369021Y0279894D02*
X0365951Y0279894D01*
X0364417Y0281429D01*
X0365951Y0282964D01*
X0369021Y0282964D01*
X0369021Y0284498D02*
X0364417Y0284498D01*
X0364417Y0286800D01*
X0365184Y0287568D01*
X0368253Y0287568D01*
X0369021Y0286800D01*
X0369021Y0284498D01*
X0366719Y0282964D02*
X0366719Y0279894D01*
X0365184Y0289102D02*
X0364417Y0289870D01*
X0364417Y0291404D01*
X0365184Y0292172D01*
X0365951Y0292172D01*
X0369021Y0289102D01*
X0369021Y0292172D01*
X0368253Y0293706D02*
X0369021Y0294474D01*
X0369021Y0296008D01*
X0368253Y0296776D01*
X0365184Y0296776D01*
X0364417Y0296008D01*
X0364417Y0294474D01*
X0365184Y0293706D01*
X0365951Y0293706D01*
X0366719Y0294474D01*
X0366719Y0296776D01*
X0367486Y0300291D02*
X0367486Y0302593D01*
X0366719Y0303360D01*
X0365184Y0303360D01*
X0364417Y0302593D01*
X0364417Y0300291D01*
X0369021Y0300291D01*
X0369021Y0304894D02*
X0365951Y0304894D01*
X0364417Y0306429D01*
X0365951Y0307964D01*
X0369021Y0307964D01*
X0369021Y0309498D02*
X0369021Y0311800D01*
X0368253Y0312568D01*
X0365184Y0312568D01*
X0364417Y0311800D01*
X0364417Y0309498D01*
X0369021Y0309498D01*
X0366719Y0307964D02*
X0366719Y0304894D01*
X0368253Y0314102D02*
X0369021Y0314870D01*
X0369021Y0316404D01*
X0368253Y0317172D01*
X0367486Y0317172D01*
X0366719Y0316404D01*
X0366719Y0315637D01*
X0366719Y0316404D02*
X0365951Y0317172D01*
X0365184Y0317172D01*
X0364417Y0316404D01*
X0364417Y0314870D01*
X0365184Y0314102D01*
X0365184Y0318706D02*
X0364417Y0319474D01*
X0364417Y0321008D01*
X0365184Y0321776D01*
X0368253Y0318706D01*
X0369021Y0319474D01*
X0369021Y0321008D01*
X0368253Y0321776D01*
X0365184Y0321776D01*
X0365184Y0318706D02*
X0368253Y0318706D01*
X0367486Y0325291D02*
X0367486Y0327593D01*
X0366719Y0328360D01*
X0365184Y0328360D01*
X0364417Y0327593D01*
X0364417Y0325291D01*
X0369021Y0325291D01*
X0369021Y0329894D02*
X0365951Y0329894D01*
X0364417Y0331429D01*
X0365951Y0332964D01*
X0369021Y0332964D01*
X0369021Y0334498D02*
X0369021Y0336800D01*
X0368253Y0337568D01*
X0365184Y0337568D01*
X0364417Y0336800D01*
X0364417Y0334498D01*
X0369021Y0334498D01*
X0366719Y0332964D02*
X0366719Y0329894D01*
X0368253Y0339102D02*
X0369021Y0339102D01*
X0368253Y0339102D02*
X0365184Y0342172D01*
X0364417Y0342172D01*
X0364417Y0339102D01*
X0364417Y0350291D02*
X0364417Y0352593D01*
X0365184Y0353360D01*
X0366719Y0353360D01*
X0367486Y0352593D01*
X0367486Y0350291D01*
X0369021Y0350291D02*
X0364417Y0350291D01*
X0365951Y0354894D02*
X0364417Y0356429D01*
X0365951Y0357964D01*
X0369021Y0357964D01*
X0369021Y0359498D02*
X0369021Y0361800D01*
X0368253Y0362568D01*
X0365184Y0362568D01*
X0364417Y0361800D01*
X0364417Y0359498D01*
X0369021Y0359498D01*
X0366719Y0357964D02*
X0366719Y0354894D01*
X0365951Y0354894D02*
X0369021Y0354894D01*
X0366719Y0364102D02*
X0366719Y0367172D01*
X0369021Y0366404D02*
X0364417Y0366404D01*
X0366719Y0364102D01*
X0367099Y0374228D02*
X0367099Y0378831D01*
X0365565Y0377297D01*
X0364030Y0377297D02*
X0363263Y0376530D01*
X0364030Y0375762D01*
X0364030Y0374995D01*
X0363263Y0374228D01*
X0361728Y0374228D01*
X0360961Y0374995D01*
X0359426Y0374995D02*
X0359426Y0378064D01*
X0358659Y0378831D01*
X0356357Y0378831D01*
X0356357Y0374228D01*
X0358659Y0374228D01*
X0359426Y0374995D01*
X0360961Y0378064D02*
X0361728Y0378831D01*
X0363263Y0378831D01*
X0364030Y0378064D01*
X0364030Y0377297D01*
X0363263Y0376530D02*
X0362495Y0376530D01*
X0365565Y0374228D02*
X0368634Y0374228D01*
X0354822Y0374228D02*
X0354822Y0377297D01*
X0353288Y0378831D01*
X0351753Y0377297D01*
X0351753Y0374228D01*
X0351753Y0376530D02*
X0354822Y0376530D01*
X0350218Y0376530D02*
X0349451Y0375762D01*
X0347149Y0375762D01*
X0347149Y0374228D02*
X0347149Y0378831D01*
X0349451Y0378831D01*
X0350218Y0378064D01*
X0350218Y0376530D01*
X0343634Y0377297D02*
X0343634Y0378064D01*
X0342867Y0378831D01*
X0341332Y0378831D01*
X0340565Y0378064D01*
X0339030Y0378064D02*
X0339030Y0377297D01*
X0338263Y0376530D01*
X0339030Y0375762D01*
X0339030Y0374995D01*
X0338263Y0374228D01*
X0336728Y0374228D01*
X0335961Y0374995D01*
X0334426Y0374995D02*
X0334426Y0378064D01*
X0333659Y0378831D01*
X0331357Y0378831D01*
X0331357Y0374228D01*
X0333659Y0374228D01*
X0334426Y0374995D01*
X0335961Y0378064D02*
X0336728Y0378831D01*
X0338263Y0378831D01*
X0339030Y0378064D01*
X0338263Y0376530D02*
X0337495Y0376530D01*
X0340565Y0374228D02*
X0343634Y0377297D01*
X0343634Y0374228D02*
X0340565Y0374228D01*
X0329822Y0374228D02*
X0329822Y0377297D01*
X0328288Y0378831D01*
X0326753Y0377297D01*
X0326753Y0374228D01*
X0326753Y0376530D02*
X0329822Y0376530D01*
X0325218Y0376530D02*
X0324451Y0375762D01*
X0322149Y0375762D01*
X0322149Y0374228D02*
X0322149Y0378831D01*
X0324451Y0378831D01*
X0325218Y0378064D01*
X0325218Y0376530D01*
X0318634Y0375762D02*
X0317867Y0376530D01*
X0315565Y0376530D01*
X0315565Y0374995D01*
X0316332Y0374228D01*
X0317867Y0374228D01*
X0318634Y0374995D01*
X0318634Y0375762D01*
X0317099Y0378064D02*
X0315565Y0376530D01*
X0314030Y0377297D02*
X0313263Y0376530D01*
X0314030Y0375762D01*
X0314030Y0374995D01*
X0313263Y0374228D01*
X0311728Y0374228D01*
X0310961Y0374995D01*
X0309426Y0374995D02*
X0309426Y0378064D01*
X0308659Y0378831D01*
X0306357Y0378831D01*
X0306357Y0374228D01*
X0308659Y0374228D01*
X0309426Y0374995D01*
X0310961Y0378064D02*
X0311728Y0378831D01*
X0313263Y0378831D01*
X0314030Y0378064D01*
X0314030Y0377297D01*
X0313263Y0376530D02*
X0312495Y0376530D01*
X0317099Y0378064D02*
X0318634Y0378831D01*
X0304822Y0377297D02*
X0304822Y0374228D01*
X0304822Y0376530D02*
X0301753Y0376530D01*
X0301753Y0377297D02*
X0303288Y0378831D01*
X0304822Y0377297D01*
X0301753Y0377297D02*
X0301753Y0374228D01*
X0300218Y0376530D02*
X0299451Y0375762D01*
X0297149Y0375762D01*
X0297149Y0374228D02*
X0297149Y0378831D01*
X0299451Y0378831D01*
X0300218Y0378064D01*
X0300218Y0376530D01*
X0293634Y0378064D02*
X0290565Y0374995D01*
X0290565Y0374228D01*
X0289030Y0374995D02*
X0288263Y0374228D01*
X0286728Y0374228D01*
X0285961Y0374995D01*
X0284426Y0374995D02*
X0284426Y0378064D01*
X0283659Y0378831D01*
X0281357Y0378831D01*
X0281357Y0374228D01*
X0283659Y0374228D01*
X0284426Y0374995D01*
X0285961Y0378064D02*
X0286728Y0378831D01*
X0288263Y0378831D01*
X0289030Y0378064D01*
X0289030Y0377297D01*
X0288263Y0376530D01*
X0289030Y0375762D01*
X0289030Y0374995D01*
X0288263Y0376530D02*
X0287495Y0376530D01*
X0290565Y0378831D02*
X0293634Y0378831D01*
X0293634Y0378064D01*
X0279822Y0377297D02*
X0279822Y0374228D01*
X0279822Y0376530D02*
X0276753Y0376530D01*
X0276753Y0377297D02*
X0278288Y0378831D01*
X0279822Y0377297D01*
X0276753Y0377297D02*
X0276753Y0374228D01*
X0275218Y0376530D02*
X0274451Y0375762D01*
X0272149Y0375762D01*
X0272149Y0374228D02*
X0272149Y0378831D01*
X0274451Y0378831D01*
X0275218Y0378064D01*
X0275218Y0376530D01*
X0268634Y0377297D02*
X0267867Y0376530D01*
X0266332Y0376530D01*
X0265565Y0377297D01*
X0265565Y0378064D01*
X0266332Y0378831D01*
X0267867Y0378831D01*
X0268634Y0378064D01*
X0268634Y0377297D01*
X0267867Y0376530D02*
X0268634Y0375762D01*
X0268634Y0374995D01*
X0267867Y0374228D01*
X0266332Y0374228D01*
X0265565Y0374995D01*
X0265565Y0375762D01*
X0266332Y0376530D01*
X0264030Y0377297D02*
X0263263Y0376530D01*
X0264030Y0375762D01*
X0264030Y0374995D01*
X0263263Y0374228D01*
X0261728Y0374228D01*
X0260961Y0374995D01*
X0259426Y0374995D02*
X0259426Y0378064D01*
X0258659Y0378831D01*
X0256357Y0378831D01*
X0256357Y0374228D01*
X0258659Y0374228D01*
X0259426Y0374995D01*
X0260961Y0378064D02*
X0261728Y0378831D01*
X0263263Y0378831D01*
X0264030Y0378064D01*
X0264030Y0377297D01*
X0263263Y0376530D02*
X0262495Y0376530D01*
X0254822Y0376530D02*
X0251753Y0376530D01*
X0251753Y0377297D02*
X0253288Y0378831D01*
X0254822Y0377297D01*
X0254822Y0374228D01*
X0251753Y0374228D02*
X0251753Y0377297D01*
X0250218Y0378064D02*
X0250218Y0376530D01*
X0249451Y0375762D01*
X0247149Y0375762D01*
X0247149Y0374228D02*
X0247149Y0378831D01*
X0249451Y0378831D01*
X0250218Y0378064D01*
X0243634Y0378064D02*
X0243634Y0374995D01*
X0242867Y0374228D01*
X0241332Y0374228D01*
X0240565Y0374995D01*
X0239030Y0374995D02*
X0238263Y0374228D01*
X0236728Y0374228D01*
X0235961Y0374995D01*
X0234426Y0374995D02*
X0234426Y0378064D01*
X0233659Y0378831D01*
X0231357Y0378831D01*
X0231357Y0374228D01*
X0233659Y0374228D01*
X0234426Y0374995D01*
X0235961Y0378064D02*
X0236728Y0378831D01*
X0238263Y0378831D01*
X0239030Y0378064D01*
X0239030Y0377297D01*
X0238263Y0376530D01*
X0239030Y0375762D01*
X0239030Y0374995D01*
X0238263Y0376530D02*
X0237495Y0376530D01*
X0240565Y0377297D02*
X0241332Y0376530D01*
X0243634Y0376530D01*
X0243634Y0378064D02*
X0242867Y0378831D01*
X0241332Y0378831D01*
X0240565Y0378064D01*
X0240565Y0377297D01*
X0229822Y0377297D02*
X0229822Y0374228D01*
X0229822Y0376530D02*
X0226753Y0376530D01*
X0226753Y0377297D02*
X0228288Y0378831D01*
X0229822Y0377297D01*
X0226753Y0377297D02*
X0226753Y0374228D01*
X0225218Y0376530D02*
X0224451Y0375762D01*
X0222149Y0375762D01*
X0222149Y0374228D02*
X0222149Y0378831D01*
X0224451Y0378831D01*
X0225218Y0378064D01*
X0225218Y0376530D01*
X0218634Y0378064D02*
X0218634Y0374995D01*
X0217867Y0374228D01*
X0216332Y0374228D01*
X0215565Y0374995D01*
X0218634Y0378064D01*
X0217867Y0378831D01*
X0216332Y0378831D01*
X0215565Y0378064D01*
X0215565Y0374995D01*
X0214030Y0376530D02*
X0210961Y0376530D01*
X0213263Y0378831D01*
X0213263Y0374228D01*
X0209426Y0374995D02*
X0209426Y0378064D01*
X0208659Y0378831D01*
X0206357Y0378831D01*
X0206357Y0374228D01*
X0208659Y0374228D01*
X0209426Y0374995D01*
X0204822Y0374228D02*
X0204822Y0377297D01*
X0203288Y0378831D01*
X0201753Y0377297D01*
X0201753Y0374228D01*
X0201753Y0376530D02*
X0204822Y0376530D01*
X0200218Y0376530D02*
X0199451Y0375762D01*
X0197149Y0375762D01*
X0197149Y0374228D02*
X0197149Y0378831D01*
X0199451Y0378831D01*
X0200218Y0378064D01*
X0200218Y0376530D01*
X0193634Y0374228D02*
X0190565Y0374228D01*
X0192099Y0374228D02*
X0192099Y0378831D01*
X0190565Y0377297D01*
X0187495Y0378831D02*
X0187495Y0374228D01*
X0185961Y0374228D02*
X0189030Y0374228D01*
X0185961Y0377297D02*
X0187495Y0378831D01*
X0184426Y0378064D02*
X0184426Y0374995D01*
X0183659Y0374228D01*
X0181357Y0374228D01*
X0181357Y0378831D01*
X0183659Y0378831D01*
X0184426Y0378064D01*
X0179822Y0377297D02*
X0179822Y0374228D01*
X0179822Y0376530D02*
X0176753Y0376530D01*
X0176753Y0377297D02*
X0178288Y0378831D01*
X0179822Y0377297D01*
X0176753Y0377297D02*
X0176753Y0374228D01*
X0175218Y0376530D02*
X0174451Y0375762D01*
X0172149Y0375762D01*
X0172149Y0374228D02*
X0172149Y0378831D01*
X0174451Y0378831D01*
X0175218Y0378064D01*
X0175218Y0376530D01*
X0168634Y0374228D02*
X0165565Y0374228D01*
X0167099Y0374228D02*
X0167099Y0378831D01*
X0165565Y0377297D01*
X0164030Y0376530D02*
X0160961Y0376530D01*
X0163263Y0378831D01*
X0163263Y0374228D01*
X0159426Y0374995D02*
X0159426Y0378064D01*
X0158659Y0378831D01*
X0156357Y0378831D01*
X0156357Y0374228D01*
X0158659Y0374228D01*
X0159426Y0374995D01*
X0154822Y0374228D02*
X0154822Y0377297D01*
X0153288Y0378831D01*
X0151753Y0377297D01*
X0151753Y0374228D01*
X0151753Y0376530D02*
X0154822Y0376530D01*
X0150218Y0376530D02*
X0149451Y0375762D01*
X0147149Y0375762D01*
X0147149Y0374228D02*
X0147149Y0378831D01*
X0149451Y0378831D01*
X0150218Y0378064D01*
X0150218Y0376530D01*
X0143634Y0377297D02*
X0143634Y0378064D01*
X0142867Y0378831D01*
X0141332Y0378831D01*
X0140565Y0378064D01*
X0139030Y0376530D02*
X0135961Y0376530D01*
X0138263Y0378831D01*
X0138263Y0374228D01*
X0140565Y0374228D02*
X0143634Y0377297D01*
X0143634Y0374228D02*
X0140565Y0374228D01*
X0134426Y0374995D02*
X0134426Y0378064D01*
X0133659Y0378831D01*
X0131357Y0378831D01*
X0131357Y0374228D01*
X0133659Y0374228D01*
X0134426Y0374995D01*
X0129822Y0374228D02*
X0129822Y0377297D01*
X0128288Y0378831D01*
X0126753Y0377297D01*
X0126753Y0374228D01*
X0126753Y0376530D02*
X0129822Y0376530D01*
X0125218Y0376530D02*
X0124451Y0375762D01*
X0122149Y0375762D01*
X0122149Y0374228D02*
X0122149Y0378831D01*
X0124451Y0378831D01*
X0125218Y0378064D01*
X0125218Y0376530D01*
X0118634Y0377297D02*
X0117867Y0376530D01*
X0116332Y0376530D01*
X0115565Y0377297D01*
X0115565Y0378064D01*
X0116332Y0378831D01*
X0117867Y0378831D01*
X0118634Y0378064D01*
X0118634Y0377297D01*
X0117867Y0376530D02*
X0118634Y0375762D01*
X0118634Y0374995D01*
X0117867Y0374228D01*
X0116332Y0374228D01*
X0115565Y0374995D01*
X0115565Y0375762D01*
X0116332Y0376530D01*
X0114030Y0374995D02*
X0114030Y0378064D01*
X0113263Y0378831D01*
X0110961Y0378831D01*
X0110961Y0374228D01*
X0113263Y0374228D01*
X0114030Y0374995D01*
X0109426Y0374228D02*
X0109426Y0377297D01*
X0107891Y0378831D01*
X0106357Y0377297D01*
X0106357Y0374228D01*
X0106357Y0376530D02*
X0109426Y0376530D01*
X0104822Y0376530D02*
X0104055Y0375762D01*
X0101753Y0375762D01*
X0101753Y0374228D02*
X0101753Y0378831D01*
X0104055Y0378831D01*
X0104822Y0378064D01*
X0104822Y0376530D01*
X0093634Y0377297D02*
X0092867Y0376530D01*
X0093634Y0375762D01*
X0093634Y0374995D01*
X0092867Y0374228D01*
X0091332Y0374228D01*
X0090565Y0374995D01*
X0089030Y0374995D02*
X0089030Y0378064D01*
X0088263Y0378831D01*
X0085961Y0378831D01*
X0085961Y0374228D01*
X0088263Y0374228D01*
X0089030Y0374995D01*
X0090565Y0378064D02*
X0091332Y0378831D01*
X0092867Y0378831D01*
X0093634Y0378064D01*
X0093634Y0377297D01*
X0092867Y0376530D02*
X0092099Y0376530D01*
X0084426Y0376530D02*
X0081357Y0376530D01*
X0081357Y0377297D02*
X0082891Y0378831D01*
X0084426Y0377297D01*
X0084426Y0374228D01*
X0081357Y0374228D02*
X0081357Y0377297D01*
X0079822Y0378064D02*
X0079822Y0376530D01*
X0079055Y0375762D01*
X0076753Y0375762D01*
X0076753Y0374228D02*
X0076753Y0378831D01*
X0079055Y0378831D01*
X0079822Y0378064D01*
X0064021Y0367172D02*
X0064021Y0364102D01*
X0064021Y0365637D02*
X0059417Y0365637D01*
X0060951Y0364102D01*
X0060184Y0362568D02*
X0059417Y0361800D01*
X0059417Y0359498D01*
X0064021Y0359498D01*
X0064021Y0361800D01*
X0063253Y0362568D01*
X0060184Y0362568D01*
X0060951Y0357964D02*
X0064021Y0357964D01*
X0061719Y0357964D02*
X0061719Y0354894D01*
X0060951Y0354894D02*
X0059417Y0356429D01*
X0060951Y0357964D01*
X0060951Y0354894D02*
X0064021Y0354894D01*
X0062486Y0352593D02*
X0062486Y0350291D01*
X0064021Y0350291D02*
X0059417Y0350291D01*
X0059417Y0352593D01*
X0060184Y0353360D01*
X0061719Y0353360D01*
X0062486Y0352593D01*
X0061719Y0346776D02*
X0061719Y0343706D01*
X0059417Y0346008D01*
X0064021Y0346008D01*
X0064021Y0342172D02*
X0064021Y0339102D01*
X0064021Y0340637D02*
X0059417Y0340637D01*
X0060951Y0339102D01*
X0060184Y0337568D02*
X0059417Y0336800D01*
X0059417Y0334498D01*
X0064021Y0334498D01*
X0064021Y0336800D01*
X0063253Y0337568D01*
X0060184Y0337568D01*
X0060951Y0332964D02*
X0064021Y0332964D01*
X0061719Y0332964D02*
X0061719Y0329894D01*
X0060951Y0329894D02*
X0059417Y0331429D01*
X0060951Y0332964D01*
X0060951Y0329894D02*
X0064021Y0329894D01*
X0062486Y0327593D02*
X0062486Y0325291D01*
X0064021Y0325291D02*
X0059417Y0325291D01*
X0059417Y0327593D01*
X0060184Y0328360D01*
X0061719Y0328360D01*
X0062486Y0327593D01*
X0061719Y0321776D02*
X0063253Y0321776D01*
X0064021Y0321008D01*
X0064021Y0319474D01*
X0063253Y0318706D01*
X0061719Y0318706D02*
X0060951Y0320241D01*
X0060951Y0321008D01*
X0061719Y0321776D01*
X0059417Y0321776D02*
X0059417Y0318706D01*
X0061719Y0318706D01*
X0064021Y0317172D02*
X0064021Y0314102D01*
X0064021Y0315637D02*
X0059417Y0315637D01*
X0060951Y0314102D01*
X0060184Y0312568D02*
X0059417Y0311800D01*
X0059417Y0309498D01*
X0064021Y0309498D01*
X0064021Y0311800D01*
X0063253Y0312568D01*
X0060184Y0312568D01*
X0060951Y0307964D02*
X0064021Y0307964D01*
X0061719Y0307964D02*
X0061719Y0304894D01*
X0060951Y0304894D02*
X0059417Y0306429D01*
X0060951Y0307964D01*
X0060951Y0304894D02*
X0064021Y0304894D01*
X0062486Y0302593D02*
X0062486Y0300291D01*
X0064021Y0300291D02*
X0059417Y0300291D01*
X0059417Y0302593D01*
X0060184Y0303360D01*
X0061719Y0303360D01*
X0062486Y0302593D01*
X0062486Y0296776D02*
X0061719Y0296008D01*
X0061719Y0293706D01*
X0063253Y0293706D01*
X0064021Y0294474D01*
X0064021Y0296008D01*
X0063253Y0296776D01*
X0062486Y0296776D01*
X0060184Y0295241D02*
X0059417Y0296776D01*
X0060184Y0295241D02*
X0061719Y0293706D01*
X0064021Y0292172D02*
X0064021Y0289102D01*
X0064021Y0290637D02*
X0059417Y0290637D01*
X0060951Y0289102D01*
X0060184Y0287568D02*
X0059417Y0286800D01*
X0059417Y0284498D01*
X0064021Y0284498D01*
X0064021Y0286800D01*
X0063253Y0287568D01*
X0060184Y0287568D01*
X0060951Y0282964D02*
X0064021Y0282964D01*
X0061719Y0282964D02*
X0061719Y0279894D01*
X0060951Y0279894D02*
X0059417Y0281429D01*
X0060951Y0282964D01*
X0060951Y0279894D02*
X0064021Y0279894D01*
X0062486Y0277593D02*
X0062486Y0275291D01*
X0064021Y0275291D02*
X0059417Y0275291D01*
X0059417Y0277593D01*
X0060184Y0278360D01*
X0061719Y0278360D01*
X0062486Y0277593D01*
X0064021Y0271776D02*
X0064021Y0268706D01*
X0060951Y0271776D01*
X0060184Y0271776D01*
X0059417Y0271008D01*
X0059417Y0269474D01*
X0060184Y0268706D01*
X0059417Y0265637D02*
X0064021Y0265637D01*
X0064021Y0264102D02*
X0064021Y0267172D01*
X0060951Y0264102D02*
X0059417Y0265637D01*
X0060184Y0262568D02*
X0059417Y0261800D01*
X0059417Y0259498D01*
X0064021Y0259498D01*
X0064021Y0261800D01*
X0063253Y0262568D01*
X0060184Y0262568D01*
X0060951Y0257964D02*
X0064021Y0257964D01*
X0061719Y0257964D02*
X0061719Y0254894D01*
X0060951Y0254894D02*
X0059417Y0256429D01*
X0060951Y0257964D01*
X0060951Y0254894D02*
X0064021Y0254894D01*
X0062486Y0252593D02*
X0062486Y0250291D01*
X0064021Y0250291D02*
X0059417Y0250291D01*
X0059417Y0252593D01*
X0060184Y0253360D01*
X0061719Y0253360D01*
X0062486Y0252593D01*
X0062486Y0246776D02*
X0063253Y0246776D01*
X0064021Y0246008D01*
X0064021Y0244474D01*
X0063253Y0243706D01*
X0064021Y0242172D02*
X0064021Y0239102D01*
X0064021Y0240637D02*
X0059417Y0240637D01*
X0060951Y0239102D01*
X0060184Y0237568D02*
X0059417Y0236800D01*
X0059417Y0234498D01*
X0064021Y0234498D01*
X0064021Y0236800D01*
X0063253Y0237568D01*
X0060184Y0237568D01*
X0060951Y0232964D02*
X0064021Y0232964D01*
X0061719Y0232964D02*
X0061719Y0229894D01*
X0060951Y0229894D02*
X0059417Y0231429D01*
X0060951Y0232964D01*
X0060951Y0229894D02*
X0064021Y0229894D01*
X0062486Y0227593D02*
X0062486Y0225291D01*
X0064021Y0225291D02*
X0059417Y0225291D01*
X0059417Y0227593D01*
X0060184Y0228360D01*
X0061719Y0228360D01*
X0062486Y0227593D01*
X0063253Y0221776D02*
X0060184Y0221776D01*
X0063253Y0218706D01*
X0064021Y0219474D01*
X0064021Y0221008D01*
X0063253Y0221776D01*
X0060184Y0221776D02*
X0059417Y0221008D01*
X0059417Y0219474D01*
X0060184Y0218706D01*
X0063253Y0218706D01*
X0064021Y0217172D02*
X0064021Y0214102D01*
X0064021Y0215637D02*
X0059417Y0215637D01*
X0060951Y0214102D01*
X0060184Y0212568D02*
X0059417Y0211800D01*
X0059417Y0209498D01*
X0064021Y0209498D01*
X0064021Y0211800D01*
X0063253Y0212568D01*
X0060184Y0212568D01*
X0060951Y0207964D02*
X0064021Y0207964D01*
X0061719Y0207964D02*
X0061719Y0204894D01*
X0060951Y0204894D02*
X0059417Y0206429D01*
X0060951Y0207964D01*
X0060951Y0204894D02*
X0064021Y0204894D01*
X0062486Y0202593D02*
X0062486Y0200291D01*
X0064021Y0200291D02*
X0059417Y0200291D01*
X0059417Y0202593D01*
X0060184Y0203360D01*
X0061719Y0203360D01*
X0062486Y0202593D01*
X0063253Y0192172D02*
X0060184Y0192172D01*
X0059417Y0191404D01*
X0059417Y0189870D01*
X0060184Y0189102D01*
X0060951Y0189102D01*
X0061719Y0189870D01*
X0061719Y0192172D01*
X0063253Y0192172D02*
X0064021Y0191404D01*
X0064021Y0189870D01*
X0063253Y0189102D01*
X0063253Y0187568D02*
X0060184Y0187568D01*
X0059417Y0186800D01*
X0059417Y0184498D01*
X0064021Y0184498D01*
X0064021Y0186800D01*
X0063253Y0187568D01*
X0064021Y0182964D02*
X0060951Y0182964D01*
X0059417Y0181429D01*
X0060951Y0179894D01*
X0064021Y0179894D01*
X0061719Y0179894D02*
X0061719Y0182964D01*
X0061719Y0178360D02*
X0062486Y0177593D01*
X0062486Y0175291D01*
X0064021Y0175291D02*
X0059417Y0175291D01*
X0059417Y0177593D01*
X0060184Y0178360D01*
X0061719Y0178360D01*
X0061719Y0167172D02*
X0063253Y0167172D01*
X0064021Y0166404D01*
X0064021Y0164870D01*
X0063253Y0164102D01*
X0063253Y0162568D02*
X0060184Y0162568D01*
X0059417Y0161800D01*
X0059417Y0159498D01*
X0064021Y0159498D01*
X0064021Y0161800D01*
X0063253Y0162568D01*
X0061719Y0164102D02*
X0060951Y0165637D01*
X0060951Y0166404D01*
X0061719Y0167172D01*
X0059417Y0167172D02*
X0059417Y0164102D01*
X0061719Y0164102D01*
X0061719Y0157964D02*
X0061719Y0154894D01*
X0060951Y0154894D02*
X0059417Y0156429D01*
X0060951Y0157964D01*
X0064021Y0157964D01*
X0064021Y0154894D02*
X0060951Y0154894D01*
X0060184Y0153360D02*
X0061719Y0153360D01*
X0062486Y0152593D01*
X0062486Y0150291D01*
X0064021Y0150291D02*
X0059417Y0150291D01*
X0059417Y0152593D01*
X0060184Y0153360D01*
X0060184Y0146776D02*
X0063253Y0143706D01*
X0064021Y0143706D01*
X0064021Y0142172D02*
X0064021Y0139102D01*
X0064021Y0140637D02*
X0059417Y0140637D01*
X0060951Y0139102D01*
X0060184Y0137568D02*
X0059417Y0136800D01*
X0059417Y0134498D01*
X0064021Y0134498D01*
X0064021Y0136800D01*
X0063253Y0137568D01*
X0060184Y0137568D01*
X0060951Y0132964D02*
X0064021Y0132964D01*
X0061719Y0132964D02*
X0061719Y0129894D01*
X0060951Y0129894D02*
X0059417Y0131429D01*
X0060951Y0132964D01*
X0060951Y0129894D02*
X0064021Y0129894D01*
X0062486Y0127593D02*
X0062486Y0125291D01*
X0064021Y0125291D02*
X0059417Y0125291D01*
X0059417Y0127593D01*
X0060184Y0128360D01*
X0061719Y0128360D01*
X0062486Y0127593D01*
X0062486Y0121776D02*
X0063253Y0121776D01*
X0064021Y0121008D01*
X0064021Y0119474D01*
X0063253Y0118706D01*
X0062486Y0118706D01*
X0061719Y0119474D01*
X0061719Y0121008D01*
X0062486Y0121776D01*
X0061719Y0121008D02*
X0060951Y0121776D01*
X0060184Y0121776D01*
X0059417Y0121008D01*
X0059417Y0119474D01*
X0060184Y0118706D01*
X0060951Y0118706D01*
X0061719Y0119474D01*
X0064021Y0117172D02*
X0064021Y0114102D01*
X0064021Y0115637D02*
X0059417Y0115637D01*
X0060951Y0114102D01*
X0060184Y0112568D02*
X0059417Y0111800D01*
X0059417Y0109498D01*
X0064021Y0109498D01*
X0064021Y0111800D01*
X0063253Y0112568D01*
X0060184Y0112568D01*
X0060951Y0107964D02*
X0064021Y0107964D01*
X0061719Y0107964D02*
X0061719Y0104894D01*
X0060951Y0104894D02*
X0059417Y0106429D01*
X0060951Y0107964D01*
X0060951Y0104894D02*
X0064021Y0104894D01*
X0062486Y0102593D02*
X0062486Y0100291D01*
X0064021Y0100291D02*
X0059417Y0100291D01*
X0059417Y0102593D01*
X0060184Y0103360D01*
X0061719Y0103360D01*
X0062486Y0102593D01*
X0061719Y0096776D02*
X0061719Y0094474D01*
X0060951Y0093706D01*
X0060184Y0093706D01*
X0059417Y0094474D01*
X0059417Y0096008D01*
X0060184Y0096776D01*
X0063253Y0096776D01*
X0064021Y0096008D01*
X0064021Y0094474D01*
X0063253Y0093706D01*
X0064021Y0092172D02*
X0064021Y0089102D01*
X0064021Y0090637D02*
X0059417Y0090637D01*
X0060951Y0089102D01*
X0060184Y0087568D02*
X0059417Y0086800D01*
X0059417Y0084498D01*
X0064021Y0084498D01*
X0064021Y0086800D01*
X0063253Y0087568D01*
X0060184Y0087568D01*
X0060951Y0082964D02*
X0064021Y0082964D01*
X0061719Y0082964D02*
X0061719Y0079894D01*
X0060951Y0079894D02*
X0059417Y0081429D01*
X0060951Y0082964D01*
X0060951Y0079894D02*
X0064021Y0079894D01*
X0062486Y0077593D02*
X0062486Y0075291D01*
X0064021Y0075291D02*
X0059417Y0075291D01*
X0059417Y0077593D01*
X0060184Y0078360D01*
X0061719Y0078360D01*
X0062486Y0077593D01*
X0059417Y0143706D02*
X0059417Y0146776D01*
X0060184Y0146776D01*
X0060184Y0243706D02*
X0059417Y0244474D01*
X0059417Y0246008D01*
X0060184Y0246776D01*
X0060951Y0246776D01*
X0061719Y0246008D01*
X0062486Y0246776D01*
X0061719Y0246008D02*
X0061719Y0245241D01*
X0202610Y0244954D02*
X0202610Y0241117D01*
X0203377Y0240350D01*
X0204912Y0240350D01*
X0205679Y0241117D01*
X0205679Y0244954D01*
X0207214Y0244186D02*
X0207981Y0244954D01*
X0209515Y0244954D01*
X0210283Y0244186D01*
X0211817Y0243419D02*
X0213352Y0244954D01*
X0213352Y0240350D01*
X0211817Y0240350D02*
X0214887Y0240350D01*
X0210283Y0241117D02*
X0210283Y0241884D01*
X0209515Y0242652D01*
X0207981Y0242652D01*
X0207214Y0243419D01*
X0207214Y0244186D01*
X0208748Y0245721D02*
X0208748Y0239582D01*
X0207981Y0240350D02*
X0209515Y0240350D01*
X0210283Y0241117D01*
X0207981Y0240350D02*
X0207214Y0241117D01*
X0364417Y0166404D02*
X0366719Y0164102D01*
X0369021Y0166404D02*
X0364417Y0166404D01*
X0364417Y0116404D02*
X0366719Y0114102D01*
X0369021Y0116404D02*
X0364417Y0116404D01*
X0364417Y0091404D02*
X0366719Y0089102D01*
X0369021Y0091404D02*
X0364417Y0091404D01*
X0288263Y0053831D02*
X0288263Y0049228D01*
X0285961Y0051530D02*
X0288263Y0053831D01*
D12*
X0206747Y0232925D02*
X0207134Y0233313D01*
D13*
X0210126Y0229933D03*
M02*
