G75*
%MOIN*%
%OFA0B0*%
%FSLAX25Y25*%
%IPPOS*%
%LPD*%
%AMOC8*
5,1,8,0,0,1.08239X$1,22.5*
%
%ADD10R,0.10000X0.20000*%
%ADD11R,0.20000X0.10000*%
%ADD12R,0.05906X0.01181*%
%ADD13R,0.01181X0.05906*%
%ADD14C,0.01600*%
%ADD15C,0.01200*%
D10*
X0070126Y0084933D03*
X0070126Y0109933D03*
X0070126Y0134933D03*
X0070126Y0159933D03*
X0070126Y0184933D03*
X0070126Y0209933D03*
X0070126Y0234933D03*
X0070126Y0259933D03*
X0070126Y0284933D03*
X0070126Y0309933D03*
X0070126Y0334933D03*
X0070126Y0359933D03*
X0375126Y0359933D03*
X0375126Y0334933D03*
X0375126Y0309933D03*
X0375126Y0284933D03*
X0375126Y0259933D03*
X0375126Y0234933D03*
X0375126Y0209933D03*
X0375126Y0184933D03*
X0375126Y0159933D03*
X0375126Y0134933D03*
X0375126Y0109933D03*
X0375126Y0084933D03*
D11*
X0360126Y0059933D03*
X0335126Y0059933D03*
X0310126Y0059933D03*
X0285126Y0059933D03*
X0260126Y0059933D03*
X0235126Y0059933D03*
X0210126Y0059933D03*
X0185126Y0059933D03*
X0160126Y0059933D03*
X0135126Y0059933D03*
X0110126Y0059933D03*
X0085126Y0059933D03*
X0085126Y0384933D03*
X0110126Y0384933D03*
X0135126Y0384933D03*
X0160126Y0384933D03*
X0185126Y0384933D03*
X0210126Y0384933D03*
X0235126Y0384933D03*
X0260126Y0384933D03*
X0285126Y0384933D03*
X0310126Y0384933D03*
X0335126Y0384933D03*
X0360126Y0384933D03*
D12*
X0236465Y0230760D03*
X0236465Y0228791D03*
X0236465Y0226823D03*
X0236465Y0224854D03*
X0236465Y0222886D03*
X0236465Y0220917D03*
X0236465Y0218949D03*
X0236465Y0216980D03*
X0236465Y0215012D03*
X0236465Y0213043D03*
X0236465Y0211075D03*
X0236465Y0209106D03*
X0203788Y0209106D03*
X0203788Y0211075D03*
X0203788Y0213043D03*
X0203788Y0215012D03*
X0203788Y0216980D03*
X0203788Y0218949D03*
X0203788Y0220917D03*
X0203788Y0222886D03*
X0203788Y0224854D03*
X0203788Y0226823D03*
X0203788Y0228791D03*
X0203788Y0230760D03*
D13*
X0209299Y0236272D03*
X0211268Y0236272D03*
X0213236Y0236272D03*
X0215205Y0236272D03*
X0217173Y0236272D03*
X0219142Y0236272D03*
X0221110Y0236272D03*
X0223079Y0236272D03*
X0225047Y0236272D03*
X0227016Y0236272D03*
X0228984Y0236272D03*
X0230953Y0236272D03*
X0230953Y0203594D03*
X0228984Y0203594D03*
X0227016Y0203594D03*
X0225047Y0203594D03*
X0223079Y0203594D03*
X0221110Y0203594D03*
X0219142Y0203594D03*
X0217173Y0203594D03*
X0215205Y0203594D03*
X0213236Y0203594D03*
X0211268Y0203594D03*
X0209299Y0203594D03*
D14*
X0057126Y0047933D02*
X0058126Y0045933D01*
X0058126Y0046933D01*
X0386126Y0046933D01*
X0386126Y0398834D01*
X0057126Y0398834D01*
X0057126Y0047933D01*
X0057126Y0048093D02*
X0386126Y0048093D01*
X0386126Y0049691D02*
X0057126Y0049691D01*
X0057126Y0051290D02*
X0386126Y0051290D01*
X0386126Y0052888D02*
X0057126Y0052888D01*
X0057126Y0054487D02*
X0073526Y0054487D01*
X0073526Y0054270D02*
X0074463Y0053333D01*
X0095789Y0053333D01*
X0096726Y0054270D01*
X0096726Y0065596D01*
X0095789Y0066533D01*
X0094574Y0066533D01*
X0200206Y0179644D01*
X0200541Y0180538D01*
X0200523Y0181060D01*
X0203019Y0187714D01*
X0207058Y0191754D01*
X0203532Y0186505D01*
X0203125Y0186223D01*
X0203044Y0185779D01*
X0202792Y0185404D01*
X0202887Y0184917D01*
X0201139Y0175304D01*
X0126618Y0088859D01*
X0126615Y0088857D01*
X0126307Y0088499D01*
X0125997Y0088139D01*
X0125996Y0088135D01*
X0120480Y0081700D01*
X0120314Y0081577D01*
X0120172Y0081341D01*
X0119993Y0081133D01*
X0119929Y0080936D01*
X0111287Y0066533D01*
X0099463Y0066533D01*
X0098526Y0065596D01*
X0098526Y0054270D01*
X0099463Y0053333D01*
X0120789Y0053333D01*
X0121726Y0054270D01*
X0121726Y0065596D01*
X0120789Y0066533D01*
X0116885Y0066533D01*
X0124080Y0078525D01*
X0129946Y0085369D01*
X0205256Y0172728D01*
X0205555Y0173634D01*
X0205484Y0174586D01*
X0205482Y0174591D01*
X0206513Y0180263D01*
X0204822Y0165885D01*
X0135328Y0077529D01*
X0135092Y0077293D01*
X0135035Y0077157D01*
X0134945Y0077042D01*
X0134854Y0076719D01*
X0134726Y0076410D01*
X0134726Y0076264D01*
X0134686Y0076122D01*
X0134726Y0075790D01*
X0134726Y0066533D01*
X0124463Y0066533D01*
X0123526Y0065596D01*
X0123526Y0054270D01*
X0124463Y0053333D01*
X0145789Y0053333D01*
X0146726Y0054270D01*
X0146726Y0065596D01*
X0145789Y0066533D01*
X0139526Y0066533D01*
X0139526Y0075102D01*
X0208837Y0163226D01*
X0208988Y0163345D01*
X0209129Y0163597D01*
X0209188Y0163673D01*
X0208782Y0159611D01*
X0206027Y0154101D01*
X0158230Y0076431D01*
X0158092Y0076293D01*
X0157982Y0076028D01*
X0157832Y0075784D01*
X0157801Y0075591D01*
X0157726Y0075410D01*
X0157726Y0075124D01*
X0157681Y0074842D01*
X0157726Y0074651D01*
X0157726Y0066533D01*
X0149463Y0066533D01*
X0148526Y0065596D01*
X0148526Y0054270D01*
X0149463Y0053333D01*
X0170789Y0053333D01*
X0171726Y0054270D01*
X0171726Y0065596D01*
X0170789Y0066533D01*
X0162526Y0066533D01*
X0162526Y0074254D01*
X0209977Y0151361D01*
X0210059Y0151433D01*
X0210225Y0151765D01*
X0210420Y0152082D01*
X0210438Y0152189D01*
X0212835Y0156985D01*
X0212776Y0156492D01*
X0183888Y0076802D01*
X0183726Y0076410D01*
X0183726Y0076355D01*
X0183707Y0076302D01*
X0183726Y0075879D01*
X0183726Y0066533D01*
X0174463Y0066533D01*
X0173526Y0065596D01*
X0173526Y0054270D01*
X0174463Y0053333D01*
X0195789Y0053333D01*
X0196726Y0054270D01*
X0196726Y0065596D01*
X0195789Y0066533D01*
X0188526Y0066533D01*
X0188526Y0075511D01*
X0215837Y0150853D01*
X0207793Y0076551D01*
X0207742Y0076429D01*
X0207742Y0076079D01*
X0207704Y0075733D01*
X0207742Y0075606D01*
X0207733Y0066533D01*
X0199463Y0066533D01*
X0198526Y0065596D01*
X0198526Y0054270D01*
X0199463Y0053333D01*
X0220789Y0053333D01*
X0221726Y0054270D01*
X0221726Y0065596D01*
X0220789Y0066533D01*
X0212533Y0066533D01*
X0212542Y0075818D01*
X0220430Y0148681D01*
X0232726Y0076729D01*
X0232726Y0066533D01*
X0224463Y0066533D01*
X0223526Y0065596D01*
X0223526Y0054270D01*
X0224463Y0053333D01*
X0245789Y0053333D01*
X0246726Y0054270D01*
X0246726Y0065596D01*
X0245789Y0066533D01*
X0237526Y0066533D01*
X0237526Y0076664D01*
X0237572Y0076867D01*
X0237526Y0077137D01*
X0237526Y0077410D01*
X0237446Y0077603D01*
X0224193Y0155159D01*
X0240891Y0118051D01*
X0255726Y0074535D01*
X0255726Y0066533D01*
X0249463Y0066533D01*
X0248526Y0065596D01*
X0248526Y0054270D01*
X0249463Y0053333D01*
X0270789Y0053333D01*
X0271726Y0054270D01*
X0271726Y0065596D01*
X0270789Y0066533D01*
X0260526Y0066533D01*
X0260526Y0074856D01*
X0260552Y0075256D01*
X0260526Y0075331D01*
X0260526Y0075410D01*
X0260373Y0075780D01*
X0245514Y0119366D01*
X0245511Y0119483D01*
X0245361Y0119815D01*
X0245244Y0120159D01*
X0245167Y0120247D01*
X0227447Y0159624D01*
X0225376Y0172824D01*
X0225279Y0172983D01*
X0225279Y0174885D01*
X0228785Y0164367D01*
X0228827Y0164096D01*
X0228935Y0163918D01*
X0229000Y0163721D01*
X0229180Y0163514D01*
X0282726Y0075262D01*
X0282726Y0066533D01*
X0274463Y0066533D01*
X0273526Y0065596D01*
X0273526Y0054270D01*
X0274463Y0053333D01*
X0295789Y0053333D01*
X0296726Y0054270D01*
X0296726Y0065596D01*
X0295789Y0066533D01*
X0287526Y0066533D01*
X0287526Y0075644D01*
X0287571Y0075826D01*
X0287526Y0076117D01*
X0287526Y0076410D01*
X0287454Y0076584D01*
X0287426Y0076770D01*
X0287273Y0077021D01*
X0287161Y0077293D01*
X0287028Y0077425D01*
X0233318Y0165948D01*
X0229526Y0177323D01*
X0229526Y0177410D01*
X0229376Y0177773D01*
X0229252Y0178145D01*
X0229194Y0178211D01*
X0229161Y0178293D01*
X0228883Y0178570D01*
X0228626Y0178866D01*
X0228548Y0178906D01*
X0227247Y0180206D01*
X0227247Y0183399D01*
X0229018Y0180767D01*
X0232927Y0171973D01*
X0235857Y0165134D01*
X0235943Y0164828D01*
X0236044Y0164699D01*
X0236108Y0164549D01*
X0236336Y0164327D01*
X0304726Y0077104D01*
X0304726Y0066533D01*
X0299463Y0066533D01*
X0298526Y0065596D01*
X0298526Y0054270D01*
X0299463Y0053333D01*
X0320789Y0053333D01*
X0321726Y0054270D01*
X0321726Y0065596D01*
X0320789Y0066533D01*
X0309526Y0066533D01*
X0309526Y0077788D01*
X0309566Y0078119D01*
X0309526Y0078262D01*
X0309526Y0078410D01*
X0309399Y0078718D01*
X0309309Y0079038D01*
X0309218Y0079155D01*
X0309161Y0079293D01*
X0308925Y0079528D01*
X0240208Y0167167D01*
X0237514Y0173455D01*
X0237513Y0173472D01*
X0237326Y0173893D01*
X0237144Y0174317D01*
X0237132Y0174329D01*
X0233426Y0182667D01*
X0233384Y0182877D01*
X0233234Y0183099D01*
X0233125Y0183344D01*
X0232970Y0183491D01*
X0229216Y0189073D01*
X0229216Y0196449D01*
X0242397Y0183268D01*
X0350727Y0066533D01*
X0349463Y0066533D01*
X0348526Y0065596D01*
X0348526Y0054270D01*
X0349463Y0053333D01*
X0370789Y0053333D01*
X0371726Y0054270D01*
X0371726Y0065596D01*
X0370789Y0066533D01*
X0357276Y0066533D01*
X0246178Y0186250D01*
X0246161Y0186293D01*
X0245855Y0186599D01*
X0245561Y0186916D01*
X0245518Y0186935D01*
X0233153Y0199300D01*
X0233153Y0203583D01*
X0233186Y0206916D01*
X0235544Y0206916D01*
X0235553Y0206906D01*
X0239042Y0206906D01*
X0240926Y0205022D01*
X0240926Y0202022D01*
X0357892Y0085056D01*
X0358092Y0084574D01*
X0358767Y0083898D01*
X0359649Y0083533D01*
X0368526Y0083533D01*
X0368526Y0074270D01*
X0369463Y0073333D01*
X0380789Y0073333D01*
X0381726Y0074270D01*
X0381726Y0095596D01*
X0380789Y0096533D01*
X0369463Y0096533D01*
X0368526Y0095596D01*
X0368526Y0088333D01*
X0360837Y0088333D01*
X0245326Y0203844D01*
X0245326Y0206254D01*
X0361970Y0108867D01*
X0362092Y0108574D01*
X0362767Y0107898D01*
X0363649Y0107533D01*
X0368526Y0107533D01*
X0368526Y0099270D01*
X0369463Y0098333D01*
X0380789Y0098333D01*
X0381726Y0099270D01*
X0381726Y0120596D01*
X0380789Y0121533D01*
X0369463Y0121533D01*
X0368526Y0120596D01*
X0368526Y0112333D01*
X0364684Y0112333D01*
X0254704Y0204156D01*
X0359060Y0136649D01*
X0359092Y0136574D01*
X0359767Y0135898D01*
X0360649Y0135533D01*
X0368526Y0135533D01*
X0368526Y0124270D01*
X0369463Y0123333D01*
X0380789Y0123333D01*
X0381726Y0124270D01*
X0381726Y0145596D01*
X0380789Y0146533D01*
X0369463Y0146533D01*
X0368526Y0145596D01*
X0368526Y0140333D01*
X0361466Y0140333D01*
X0255869Y0208643D01*
X0361344Y0161322D01*
X0361767Y0160898D01*
X0362649Y0160533D01*
X0368526Y0160533D01*
X0368526Y0149270D01*
X0369463Y0148333D01*
X0380789Y0148333D01*
X0381726Y0149270D01*
X0381726Y0170596D01*
X0380789Y0171533D01*
X0369463Y0171533D01*
X0368526Y0170596D01*
X0368526Y0165333D01*
X0363151Y0165333D01*
X0257918Y0212546D01*
X0361592Y0184073D01*
X0361767Y0183898D01*
X0362649Y0183533D01*
X0368526Y0183533D01*
X0368526Y0174270D01*
X0369463Y0173333D01*
X0380789Y0173333D01*
X0381726Y0174270D01*
X0381726Y0195596D01*
X0380789Y0196533D01*
X0369463Y0196533D01*
X0368526Y0195596D01*
X0368526Y0188333D01*
X0362695Y0188333D01*
X0262857Y0215752D01*
X0343738Y0208927D01*
X0343767Y0208898D01*
X0344649Y0208533D01*
X0368526Y0208533D01*
X0368526Y0199270D01*
X0369463Y0198333D01*
X0380789Y0198333D01*
X0381726Y0199270D01*
X0381726Y0220596D01*
X0380789Y0221533D01*
X0369463Y0221533D01*
X0368526Y0220596D01*
X0368526Y0213333D01*
X0344649Y0213333D01*
X0344513Y0213277D01*
X0265006Y0219987D01*
X0354430Y0231624D01*
X0354649Y0231533D01*
X0368526Y0231533D01*
X0368526Y0224270D01*
X0369463Y0223333D01*
X0380789Y0223333D01*
X0381726Y0224270D01*
X0381726Y0245596D01*
X0380789Y0246533D01*
X0369463Y0246533D01*
X0368526Y0245596D01*
X0368526Y0236333D01*
X0354649Y0236333D01*
X0353791Y0235978D01*
X0261127Y0223919D01*
X0361884Y0257533D01*
X0368526Y0257533D01*
X0368526Y0249270D01*
X0369463Y0248333D01*
X0380789Y0248333D01*
X0381726Y0249270D01*
X0381726Y0270596D01*
X0380789Y0271533D01*
X0369463Y0271533D01*
X0368526Y0270596D01*
X0368526Y0262333D01*
X0361649Y0262333D01*
X0360767Y0261968D01*
X0360513Y0261714D01*
X0257115Y0227219D01*
X0360305Y0282533D01*
X0368526Y0282533D01*
X0368526Y0274270D01*
X0369463Y0273333D01*
X0380789Y0273333D01*
X0381726Y0274270D01*
X0381726Y0295596D01*
X0380789Y0296533D01*
X0369463Y0296533D01*
X0368526Y0295596D01*
X0368526Y0287333D01*
X0359649Y0287333D01*
X0358767Y0286968D01*
X0358191Y0286392D01*
X0256729Y0232004D01*
X0357580Y0306533D01*
X0368526Y0306533D01*
X0368526Y0299270D01*
X0369463Y0298333D01*
X0380789Y0298333D01*
X0381726Y0299270D01*
X0381726Y0320596D01*
X0380789Y0321533D01*
X0369463Y0321533D01*
X0368526Y0320596D01*
X0368526Y0311333D01*
X0356649Y0311333D01*
X0355767Y0310968D01*
X0355092Y0310293D01*
X0355015Y0310109D01*
X0245291Y0229023D01*
X0241327Y0229023D01*
X0241364Y0229060D01*
X0243807Y0230733D01*
X0244037Y0230733D01*
X0244538Y0231233D01*
X0245121Y0231633D01*
X0245163Y0231859D01*
X0245326Y0232022D01*
X0245326Y0232729D01*
X0245456Y0233424D01*
X0245326Y0233614D01*
X0245326Y0235064D01*
X0359894Y0357533D01*
X0368526Y0357533D01*
X0368526Y0349270D01*
X0369463Y0348333D01*
X0380789Y0348333D01*
X0381726Y0349270D01*
X0381726Y0370596D01*
X0380789Y0371533D01*
X0369463Y0371533D01*
X0368526Y0370596D01*
X0368526Y0362333D01*
X0358649Y0362333D01*
X0357767Y0361968D01*
X0357092Y0361293D01*
X0356858Y0360729D01*
X0241545Y0237463D01*
X0240926Y0236844D01*
X0240926Y0236802D01*
X0240897Y0236771D01*
X0240926Y0235896D01*
X0240926Y0234093D01*
X0239272Y0232960D01*
X0236515Y0232960D01*
X0233710Y0233087D01*
X0233143Y0233321D01*
X0233143Y0235351D01*
X0233153Y0235360D01*
X0233153Y0238886D01*
X0347064Y0359721D01*
X0347403Y0359846D01*
X0360709Y0372128D01*
X0361029Y0372395D01*
X0361059Y0372451D01*
X0361105Y0372493D01*
X0361279Y0372872D01*
X0361473Y0373240D01*
X0361479Y0373303D01*
X0361505Y0373360D01*
X0361522Y0373776D01*
X0361936Y0378333D01*
X0370789Y0378333D01*
X0371726Y0379270D01*
X0371726Y0390596D01*
X0370789Y0391533D01*
X0349463Y0391533D01*
X0348526Y0390596D01*
X0348526Y0379270D01*
X0349463Y0378333D01*
X0357116Y0378333D01*
X0356820Y0375070D01*
X0344147Y0363373D01*
X0343847Y0362723D01*
X0231184Y0243213D01*
X0231184Y0244038D01*
X0299273Y0331823D01*
X0299611Y0331988D01*
X0336877Y0374290D01*
X0337161Y0374574D01*
X0337191Y0374646D01*
X0337243Y0374705D01*
X0337372Y0375085D01*
X0337526Y0375456D01*
X0337526Y0375534D01*
X0337551Y0375608D01*
X0337526Y0376009D01*
X0337526Y0378333D01*
X0345789Y0378333D01*
X0346726Y0379270D01*
X0346726Y0390596D01*
X0345789Y0391533D01*
X0324463Y0391533D01*
X0323526Y0390596D01*
X0323526Y0379270D01*
X0324463Y0378333D01*
X0332726Y0378333D01*
X0332726Y0376839D01*
X0296010Y0335161D01*
X0295785Y0334504D01*
X0231705Y0251888D01*
X0308422Y0366911D01*
X0308760Y0367111D01*
X0311944Y0371357D01*
X0312161Y0371574D01*
X0312228Y0371735D01*
X0312333Y0371875D01*
X0312409Y0372172D01*
X0312526Y0372456D01*
X0312526Y0372631D01*
X0312570Y0372800D01*
X0312526Y0373104D01*
X0312526Y0378333D01*
X0320789Y0378333D01*
X0321726Y0379270D01*
X0321726Y0390596D01*
X0320789Y0391533D01*
X0299463Y0391533D01*
X0298526Y0390596D01*
X0298526Y0379270D01*
X0299463Y0378333D01*
X0307726Y0378333D01*
X0307726Y0373733D01*
X0304920Y0369991D01*
X0304753Y0369339D01*
X0227247Y0253135D01*
X0227247Y0255306D01*
X0286594Y0367007D01*
X0287161Y0367574D01*
X0287526Y0368456D01*
X0287526Y0378333D01*
X0295789Y0378333D01*
X0296726Y0379270D01*
X0296726Y0390596D01*
X0295789Y0391533D01*
X0274463Y0391533D01*
X0273526Y0390596D01*
X0273526Y0379270D01*
X0274463Y0378333D01*
X0282726Y0378333D01*
X0282726Y0369105D01*
X0225279Y0260979D01*
X0225279Y0261499D01*
X0261866Y0362279D01*
X0262161Y0362574D01*
X0262526Y0363456D01*
X0262526Y0378333D01*
X0270789Y0378333D01*
X0271726Y0379270D01*
X0271726Y0390596D01*
X0270789Y0391533D01*
X0249463Y0391533D01*
X0248526Y0390596D01*
X0248526Y0379270D01*
X0249463Y0378333D01*
X0257726Y0378333D01*
X0257726Y0363769D01*
X0224040Y0270981D01*
X0236157Y0357570D01*
X0236161Y0357574D01*
X0236526Y0358456D01*
X0236526Y0378333D01*
X0245789Y0378333D01*
X0246726Y0379270D01*
X0246726Y0390596D01*
X0245789Y0391533D01*
X0224463Y0391533D01*
X0223526Y0390596D01*
X0223526Y0379270D01*
X0224463Y0378333D01*
X0231726Y0378333D01*
X0231726Y0358456D01*
X0231810Y0358254D01*
X0220301Y0276009D01*
X0211416Y0361189D01*
X0211526Y0361456D01*
X0211526Y0378333D01*
X0220789Y0378333D01*
X0221726Y0379270D01*
X0221726Y0390596D01*
X0220789Y0391533D01*
X0199463Y0391533D01*
X0198526Y0390596D01*
X0198526Y0379270D01*
X0199463Y0378333D01*
X0206726Y0378333D01*
X0206726Y0361456D01*
X0207044Y0360688D01*
X0216320Y0271760D01*
X0187526Y0361652D01*
X0187526Y0378333D01*
X0195789Y0378333D01*
X0196726Y0379270D01*
X0196726Y0390596D01*
X0195789Y0391533D01*
X0174463Y0391533D01*
X0173526Y0390596D01*
X0173526Y0379270D01*
X0174463Y0378333D01*
X0182726Y0378333D01*
X0182726Y0361456D01*
X0183092Y0360574D01*
X0183327Y0360338D01*
X0214358Y0263464D01*
X0161526Y0369053D01*
X0161526Y0378333D01*
X0170789Y0378333D01*
X0171726Y0379270D01*
X0171726Y0390596D01*
X0170789Y0391533D01*
X0149463Y0391533D01*
X0148526Y0390596D01*
X0148526Y0379270D01*
X0149463Y0378333D01*
X0156726Y0378333D01*
X0156726Y0368456D01*
X0157092Y0367574D01*
X0157602Y0367064D01*
X0212410Y0257523D01*
X0163489Y0321465D01*
X0163476Y0321617D01*
X0137526Y0371520D01*
X0137526Y0378333D01*
X0145789Y0378333D01*
X0146726Y0379270D01*
X0146726Y0390596D01*
X0145789Y0391533D01*
X0124463Y0391533D01*
X0123526Y0390596D01*
X0123526Y0379270D01*
X0124463Y0378333D01*
X0132726Y0378333D01*
X0132726Y0371303D01*
X0132694Y0371201D01*
X0132726Y0370829D01*
X0132726Y0370456D01*
X0132767Y0370356D01*
X0132777Y0370249D01*
X0132949Y0369918D01*
X0133092Y0369574D01*
X0133167Y0369498D01*
X0159217Y0319402D01*
X0159948Y0318788D01*
X0160013Y0318768D01*
X0211036Y0252078D01*
X0211036Y0245134D01*
X0210211Y0245960D01*
X0144361Y0311810D01*
X0144206Y0312222D01*
X0088460Y0371950D01*
X0088004Y0378333D01*
X0095789Y0378333D01*
X0096726Y0379270D01*
X0096726Y0390596D01*
X0095789Y0391533D01*
X0074463Y0391533D01*
X0073526Y0390596D01*
X0073526Y0379270D01*
X0074463Y0378333D01*
X0083191Y0378333D01*
X0083723Y0370889D01*
X0083711Y0370539D01*
X0083757Y0370416D01*
X0083766Y0370286D01*
X0083923Y0369973D01*
X0084046Y0369645D01*
X0084135Y0369549D01*
X0084194Y0369432D01*
X0084458Y0369203D01*
X0140697Y0308947D01*
X0141255Y0308692D01*
X0207099Y0242849D01*
X0207099Y0235360D01*
X0207109Y0235351D01*
X0207109Y0232960D01*
X0202499Y0232960D01*
X0202499Y0239671D01*
X0202294Y0239877D01*
X0202292Y0239923D01*
X0201654Y0240517D01*
X0201211Y0240960D01*
X0201037Y0241133D01*
X0200992Y0241133D01*
X0076726Y0356795D01*
X0076726Y0370596D01*
X0075789Y0371533D01*
X0064463Y0371533D01*
X0063526Y0370596D01*
X0063526Y0349270D01*
X0064463Y0348333D01*
X0075789Y0348333D01*
X0076726Y0349270D01*
X0076726Y0350785D01*
X0198099Y0237814D01*
X0198099Y0231016D01*
X0085323Y0334900D01*
X0085161Y0335293D01*
X0084486Y0335968D01*
X0083604Y0336333D01*
X0076726Y0336333D01*
X0076726Y0345596D01*
X0075789Y0346533D01*
X0064463Y0346533D01*
X0063526Y0345596D01*
X0063526Y0324270D01*
X0064463Y0323333D01*
X0075789Y0323333D01*
X0076726Y0324270D01*
X0076726Y0331533D01*
X0082484Y0331533D01*
X0177364Y0244134D01*
X0097271Y0309027D01*
X0097161Y0309293D01*
X0096486Y0309968D01*
X0095604Y0310333D01*
X0076726Y0310333D01*
X0076726Y0320596D01*
X0075789Y0321533D01*
X0064463Y0321533D01*
X0063526Y0320596D01*
X0063526Y0299270D01*
X0064463Y0298333D01*
X0075789Y0298333D01*
X0076726Y0299270D01*
X0076726Y0305533D01*
X0094594Y0305533D01*
X0185652Y0231757D01*
X0102195Y0286210D01*
X0102161Y0286293D01*
X0101486Y0286968D01*
X0100604Y0287333D01*
X0076726Y0287333D01*
X0076726Y0295596D01*
X0075789Y0296533D01*
X0064463Y0296533D01*
X0063526Y0295596D01*
X0063526Y0274270D01*
X0064463Y0273333D01*
X0075789Y0273333D01*
X0076726Y0274270D01*
X0076726Y0282533D01*
X0099778Y0282533D01*
X0183728Y0227759D01*
X0108913Y0261540D01*
X0108486Y0261968D01*
X0107604Y0262333D01*
X0076726Y0262333D01*
X0076726Y0270596D01*
X0075789Y0271533D01*
X0064463Y0271533D01*
X0063526Y0270596D01*
X0063526Y0249270D01*
X0064463Y0248333D01*
X0075789Y0248333D01*
X0076726Y0249270D01*
X0076726Y0257533D01*
X0107095Y0257533D01*
X0181296Y0224029D01*
X0115540Y0235913D01*
X0115486Y0235968D01*
X0114604Y0236333D01*
X0076726Y0236333D01*
X0076726Y0245596D01*
X0075789Y0246533D01*
X0064463Y0246533D01*
X0063526Y0245596D01*
X0063526Y0224270D01*
X0064463Y0223333D01*
X0075789Y0223333D01*
X0076726Y0224270D01*
X0076726Y0231533D01*
X0114604Y0231533D01*
X0114735Y0231587D01*
X0178066Y0220141D01*
X0115828Y0212240D01*
X0115604Y0212333D01*
X0076726Y0212333D01*
X0076726Y0220596D01*
X0075789Y0221533D01*
X0064463Y0221533D01*
X0063526Y0220596D01*
X0063526Y0199270D01*
X0064463Y0198333D01*
X0075789Y0198333D01*
X0076726Y0199270D01*
X0076726Y0207533D01*
X0115604Y0207533D01*
X0116449Y0207883D01*
X0186281Y0216749D01*
X0190831Y0216749D01*
X0190818Y0216736D01*
X0105795Y0162333D01*
X0076726Y0162333D01*
X0076726Y0170596D01*
X0075789Y0171533D01*
X0064463Y0171533D01*
X0063526Y0170596D01*
X0063526Y0149270D01*
X0064463Y0148333D01*
X0075789Y0148333D01*
X0076726Y0149270D01*
X0076726Y0157533D01*
X0106604Y0157533D01*
X0107486Y0157898D01*
X0108161Y0158574D01*
X0108189Y0158641D01*
X0188121Y0209787D01*
X0104536Y0137333D01*
X0076726Y0137333D01*
X0076726Y0145596D01*
X0075789Y0146533D01*
X0064463Y0146533D01*
X0063526Y0145596D01*
X0063526Y0124270D01*
X0064463Y0123333D01*
X0075789Y0123333D01*
X0076726Y0124270D01*
X0076726Y0132533D01*
X0105604Y0132533D01*
X0106486Y0132898D01*
X0107161Y0133574D01*
X0107298Y0133904D01*
X0195066Y0209984D01*
X0097415Y0112333D01*
X0076726Y0112333D01*
X0076726Y0120596D01*
X0075789Y0121533D01*
X0064463Y0121533D01*
X0063526Y0120596D01*
X0063526Y0099270D01*
X0064463Y0098333D01*
X0075789Y0098333D01*
X0076726Y0099270D01*
X0076726Y0107533D01*
X0098604Y0107533D01*
X0099486Y0107898D01*
X0100161Y0108574D01*
X0100361Y0109056D01*
X0195926Y0204622D01*
X0195926Y0196844D01*
X0086415Y0087333D01*
X0076726Y0087333D01*
X0076726Y0095596D01*
X0075789Y0096533D01*
X0064463Y0096533D01*
X0063526Y0095596D01*
X0063526Y0074270D01*
X0064463Y0073333D01*
X0075789Y0073333D01*
X0076726Y0074270D01*
X0076726Y0082533D01*
X0087604Y0082533D01*
X0088486Y0082898D01*
X0089161Y0083574D01*
X0089361Y0084056D01*
X0199037Y0193733D01*
X0200326Y0195022D01*
X0200326Y0205022D01*
X0202211Y0206906D01*
X0204699Y0206906D01*
X0204708Y0206916D01*
X0207109Y0206916D01*
X0207109Y0204515D01*
X0207099Y0204506D01*
X0207099Y0198018D01*
X0199853Y0190771D01*
X0199386Y0190559D01*
X0199234Y0190152D01*
X0198926Y0189844D01*
X0198926Y0189332D01*
X0196403Y0182605D01*
X0088006Y0066533D01*
X0074463Y0066533D01*
X0073526Y0065596D01*
X0073526Y0054270D01*
X0073526Y0056085D02*
X0057126Y0056085D01*
X0057126Y0057684D02*
X0073526Y0057684D01*
X0073526Y0059282D02*
X0057126Y0059282D01*
X0057126Y0060881D02*
X0073526Y0060881D01*
X0073526Y0062479D02*
X0057126Y0062479D01*
X0057126Y0064078D02*
X0073526Y0064078D01*
X0073607Y0065677D02*
X0057126Y0065677D01*
X0057126Y0067275D02*
X0088699Y0067275D01*
X0090192Y0068874D02*
X0057126Y0068874D01*
X0057126Y0070472D02*
X0091684Y0070472D01*
X0093177Y0072071D02*
X0057126Y0072071D01*
X0057126Y0073669D02*
X0064127Y0073669D01*
X0063526Y0075268D02*
X0057126Y0075268D01*
X0057126Y0076866D02*
X0063526Y0076866D01*
X0063526Y0078465D02*
X0057126Y0078465D01*
X0057126Y0080063D02*
X0063526Y0080063D01*
X0063526Y0081662D02*
X0057126Y0081662D01*
X0057126Y0083260D02*
X0063526Y0083260D01*
X0063526Y0084859D02*
X0057126Y0084859D01*
X0057126Y0086457D02*
X0063526Y0086457D01*
X0063526Y0088056D02*
X0057126Y0088056D01*
X0057126Y0089654D02*
X0063526Y0089654D01*
X0063526Y0091253D02*
X0057126Y0091253D01*
X0057126Y0092851D02*
X0063526Y0092851D01*
X0063526Y0094450D02*
X0057126Y0094450D01*
X0057126Y0096048D02*
X0063979Y0096048D01*
X0063551Y0099245D02*
X0057126Y0099245D01*
X0057126Y0097647D02*
X0096729Y0097647D01*
X0098327Y0099245D02*
X0076701Y0099245D01*
X0076726Y0100844D02*
X0099926Y0100844D01*
X0101524Y0102442D02*
X0076726Y0102442D01*
X0076726Y0104041D02*
X0103123Y0104041D01*
X0104721Y0105639D02*
X0076726Y0105639D01*
X0076726Y0107238D02*
X0106320Y0107238D01*
X0107918Y0108836D02*
X0100270Y0108836D01*
X0101739Y0110435D02*
X0109517Y0110435D01*
X0111115Y0112033D02*
X0103338Y0112033D01*
X0104936Y0113632D02*
X0112714Y0113632D01*
X0114312Y0115230D02*
X0106535Y0115230D01*
X0108133Y0116829D02*
X0115911Y0116829D01*
X0117509Y0118427D02*
X0109732Y0118427D01*
X0111330Y0120026D02*
X0119108Y0120026D01*
X0120706Y0121624D02*
X0112929Y0121624D01*
X0114527Y0123223D02*
X0122305Y0123223D01*
X0123903Y0124821D02*
X0116126Y0124821D01*
X0117724Y0126420D02*
X0125502Y0126420D01*
X0127100Y0128018D02*
X0119323Y0128018D01*
X0120921Y0129617D02*
X0128699Y0129617D01*
X0130297Y0131215D02*
X0122520Y0131215D01*
X0124118Y0132814D02*
X0131896Y0132814D01*
X0133494Y0134412D02*
X0125717Y0134412D01*
X0127315Y0136011D02*
X0135093Y0136011D01*
X0136691Y0137610D02*
X0128914Y0137610D01*
X0130512Y0139208D02*
X0138290Y0139208D01*
X0139888Y0140807D02*
X0132111Y0140807D01*
X0133709Y0142405D02*
X0141487Y0142405D01*
X0143085Y0144004D02*
X0135308Y0144004D01*
X0136906Y0145602D02*
X0144684Y0145602D01*
X0146282Y0147201D02*
X0138505Y0147201D01*
X0140103Y0148799D02*
X0147881Y0148799D01*
X0149479Y0150398D02*
X0141702Y0150398D01*
X0143300Y0151996D02*
X0151078Y0151996D01*
X0152676Y0153595D02*
X0144899Y0153595D01*
X0146497Y0155193D02*
X0154275Y0155193D01*
X0155873Y0156792D02*
X0148096Y0156792D01*
X0149694Y0158390D02*
X0157472Y0158390D01*
X0159070Y0159989D02*
X0151293Y0159989D01*
X0152891Y0161587D02*
X0160669Y0161587D01*
X0162267Y0163186D02*
X0154490Y0163186D01*
X0156089Y0164784D02*
X0163866Y0164784D01*
X0165465Y0166383D02*
X0157687Y0166383D01*
X0159286Y0167981D02*
X0167063Y0167981D01*
X0168662Y0169580D02*
X0160884Y0169580D01*
X0162483Y0171178D02*
X0170260Y0171178D01*
X0171859Y0172777D02*
X0164081Y0172777D01*
X0165680Y0174375D02*
X0173457Y0174375D01*
X0175056Y0175974D02*
X0167278Y0175974D01*
X0168877Y0177572D02*
X0176654Y0177572D01*
X0178253Y0179171D02*
X0170475Y0179171D01*
X0172074Y0180769D02*
X0179851Y0180769D01*
X0181450Y0182368D02*
X0173672Y0182368D01*
X0175271Y0183966D02*
X0183048Y0183966D01*
X0184647Y0185565D02*
X0176869Y0185565D01*
X0178468Y0187163D02*
X0186245Y0187163D01*
X0187844Y0188762D02*
X0180066Y0188762D01*
X0181665Y0190360D02*
X0189442Y0190360D01*
X0191041Y0191959D02*
X0183263Y0191959D01*
X0184862Y0193557D02*
X0192639Y0193557D01*
X0194238Y0195156D02*
X0186460Y0195156D01*
X0188059Y0196754D02*
X0195836Y0196754D01*
X0195926Y0198353D02*
X0189657Y0198353D01*
X0191256Y0199951D02*
X0195926Y0199951D01*
X0195926Y0201550D02*
X0192854Y0201550D01*
X0194453Y0203148D02*
X0195926Y0203148D01*
X0200326Y0203148D02*
X0207099Y0203148D01*
X0207099Y0201550D02*
X0200326Y0201550D01*
X0200326Y0199951D02*
X0207099Y0199951D01*
X0207099Y0198353D02*
X0200326Y0198353D01*
X0200326Y0196754D02*
X0205836Y0196754D01*
X0204238Y0195156D02*
X0200326Y0195156D01*
X0198862Y0193557D02*
X0202639Y0193557D01*
X0201041Y0191959D02*
X0197263Y0191959D01*
X0195665Y0190360D02*
X0199312Y0190360D01*
X0198712Y0188762D02*
X0194066Y0188762D01*
X0192468Y0187163D02*
X0198113Y0187163D01*
X0197513Y0185565D02*
X0190869Y0185565D01*
X0189271Y0183966D02*
X0196914Y0183966D01*
X0196182Y0182368D02*
X0187672Y0182368D01*
X0186074Y0180769D02*
X0194689Y0180769D01*
X0193197Y0179171D02*
X0184475Y0179171D01*
X0182877Y0177572D02*
X0191704Y0177572D01*
X0190211Y0175974D02*
X0181278Y0175974D01*
X0179680Y0174375D02*
X0188718Y0174375D01*
X0187225Y0172777D02*
X0178081Y0172777D01*
X0176483Y0171178D02*
X0185732Y0171178D01*
X0184240Y0169580D02*
X0174884Y0169580D01*
X0173286Y0167981D02*
X0182747Y0167981D01*
X0181254Y0166383D02*
X0171687Y0166383D01*
X0170089Y0164784D02*
X0179761Y0164784D01*
X0178268Y0163186D02*
X0168490Y0163186D01*
X0166891Y0161587D02*
X0176776Y0161587D01*
X0175283Y0159989D02*
X0165293Y0159989D01*
X0163694Y0158390D02*
X0173790Y0158390D01*
X0172297Y0156792D02*
X0162096Y0156792D01*
X0160497Y0155193D02*
X0170804Y0155193D01*
X0169311Y0153595D02*
X0158899Y0153595D01*
X0157300Y0151996D02*
X0167819Y0151996D01*
X0166326Y0150398D02*
X0155702Y0150398D01*
X0154103Y0148799D02*
X0164833Y0148799D01*
X0163340Y0147201D02*
X0152505Y0147201D01*
X0150906Y0145602D02*
X0161847Y0145602D01*
X0160354Y0144004D02*
X0149308Y0144004D01*
X0147709Y0142405D02*
X0158862Y0142405D01*
X0157369Y0140807D02*
X0146111Y0140807D01*
X0144512Y0139208D02*
X0155876Y0139208D01*
X0154383Y0137610D02*
X0142914Y0137610D01*
X0141315Y0136011D02*
X0152890Y0136011D01*
X0151397Y0134412D02*
X0139717Y0134412D01*
X0138118Y0132814D02*
X0149905Y0132814D01*
X0148412Y0131215D02*
X0136520Y0131215D01*
X0134921Y0129617D02*
X0146919Y0129617D01*
X0145426Y0128018D02*
X0133323Y0128018D01*
X0131724Y0126420D02*
X0143933Y0126420D01*
X0142441Y0124821D02*
X0130126Y0124821D01*
X0128527Y0123223D02*
X0140948Y0123223D01*
X0139455Y0121624D02*
X0126929Y0121624D01*
X0125330Y0120026D02*
X0137962Y0120026D01*
X0136469Y0118427D02*
X0123732Y0118427D01*
X0122133Y0116829D02*
X0134976Y0116829D01*
X0133484Y0115230D02*
X0120535Y0115230D01*
X0118936Y0113632D02*
X0131991Y0113632D01*
X0130498Y0112033D02*
X0117338Y0112033D01*
X0115739Y0110435D02*
X0129005Y0110435D01*
X0127512Y0108836D02*
X0114141Y0108836D01*
X0112542Y0107238D02*
X0126019Y0107238D01*
X0124527Y0105639D02*
X0110944Y0105639D01*
X0109345Y0104041D02*
X0123034Y0104041D01*
X0121541Y0102442D02*
X0107747Y0102442D01*
X0106148Y0100844D02*
X0120048Y0100844D01*
X0118555Y0099245D02*
X0104550Y0099245D01*
X0102951Y0097647D02*
X0117063Y0097647D01*
X0115570Y0096048D02*
X0101353Y0096048D01*
X0099754Y0094450D02*
X0114077Y0094450D01*
X0112584Y0092851D02*
X0098156Y0092851D01*
X0096557Y0091253D02*
X0111091Y0091253D01*
X0109598Y0089654D02*
X0094958Y0089654D01*
X0093360Y0088056D02*
X0108106Y0088056D01*
X0106613Y0086457D02*
X0091761Y0086457D01*
X0090163Y0084859D02*
X0105120Y0084859D01*
X0103627Y0083260D02*
X0088847Y0083260D01*
X0087126Y0084933D02*
X0070126Y0084933D01*
X0076726Y0088056D02*
X0087137Y0088056D01*
X0088736Y0089654D02*
X0076726Y0089654D01*
X0076726Y0091253D02*
X0090334Y0091253D01*
X0091933Y0092851D02*
X0076726Y0092851D01*
X0076726Y0094450D02*
X0093531Y0094450D01*
X0095130Y0096048D02*
X0076274Y0096048D01*
X0063526Y0100844D02*
X0057126Y0100844D01*
X0057126Y0102442D02*
X0063526Y0102442D01*
X0063526Y0104041D02*
X0057126Y0104041D01*
X0057126Y0105639D02*
X0063526Y0105639D01*
X0063526Y0107238D02*
X0057126Y0107238D01*
X0057126Y0108836D02*
X0063526Y0108836D01*
X0063526Y0110435D02*
X0057126Y0110435D01*
X0057126Y0112033D02*
X0063526Y0112033D01*
X0063526Y0113632D02*
X0057126Y0113632D01*
X0057126Y0115230D02*
X0063526Y0115230D01*
X0063526Y0116829D02*
X0057126Y0116829D01*
X0057126Y0118427D02*
X0063526Y0118427D01*
X0063526Y0120026D02*
X0057126Y0120026D01*
X0057126Y0121624D02*
X0106706Y0121624D01*
X0105108Y0120026D02*
X0076726Y0120026D01*
X0076726Y0118427D02*
X0103509Y0118427D01*
X0101911Y0116829D02*
X0076726Y0116829D01*
X0076726Y0115230D02*
X0100312Y0115230D01*
X0098714Y0113632D02*
X0076726Y0113632D01*
X0070126Y0109933D02*
X0098126Y0109933D01*
X0108305Y0123223D02*
X0057126Y0123223D01*
X0057126Y0124821D02*
X0063526Y0124821D01*
X0063526Y0126420D02*
X0057126Y0126420D01*
X0057126Y0128018D02*
X0063526Y0128018D01*
X0063526Y0129617D02*
X0057126Y0129617D01*
X0057126Y0131215D02*
X0063526Y0131215D01*
X0063526Y0132814D02*
X0057126Y0132814D01*
X0057126Y0134412D02*
X0063526Y0134412D01*
X0063526Y0136011D02*
X0057126Y0136011D01*
X0057126Y0137610D02*
X0063526Y0137610D01*
X0063526Y0139208D02*
X0057126Y0139208D01*
X0057126Y0140807D02*
X0063526Y0140807D01*
X0063526Y0142405D02*
X0057126Y0142405D01*
X0057126Y0144004D02*
X0063526Y0144004D01*
X0063532Y0145602D02*
X0057126Y0145602D01*
X0057126Y0147201D02*
X0115920Y0147201D01*
X0117764Y0148799D02*
X0076255Y0148799D01*
X0076726Y0150398D02*
X0119608Y0150398D01*
X0121452Y0151996D02*
X0076726Y0151996D01*
X0076726Y0153595D02*
X0123296Y0153595D01*
X0125140Y0155193D02*
X0076726Y0155193D01*
X0076726Y0156792D02*
X0126984Y0156792D01*
X0128828Y0158390D02*
X0107977Y0158390D01*
X0106126Y0159933D02*
X0070126Y0159933D01*
X0063526Y0159989D02*
X0057126Y0159989D01*
X0057126Y0161587D02*
X0063526Y0161587D01*
X0063526Y0163186D02*
X0057126Y0163186D01*
X0057126Y0164784D02*
X0063526Y0164784D01*
X0063526Y0166383D02*
X0057126Y0166383D01*
X0057126Y0167981D02*
X0063526Y0167981D01*
X0063526Y0169580D02*
X0057126Y0169580D01*
X0057126Y0171178D02*
X0064109Y0171178D01*
X0064431Y0173256D02*
X0064889Y0173133D01*
X0069326Y0173133D01*
X0069326Y0184133D01*
X0063326Y0184133D01*
X0063326Y0174696D01*
X0063449Y0174238D01*
X0063686Y0173828D01*
X0064021Y0173493D01*
X0064431Y0173256D01*
X0063412Y0174375D02*
X0057126Y0174375D01*
X0057126Y0172777D02*
X0122117Y0172777D01*
X0124615Y0174375D02*
X0076840Y0174375D01*
X0076803Y0174238D02*
X0076926Y0174696D01*
X0076926Y0184133D01*
X0070926Y0184133D01*
X0070926Y0173133D01*
X0075363Y0173133D01*
X0075821Y0173256D01*
X0076231Y0173493D01*
X0076566Y0173828D01*
X0076803Y0174238D01*
X0076926Y0175974D02*
X0127113Y0175974D01*
X0129611Y0177572D02*
X0076926Y0177572D01*
X0076926Y0179171D02*
X0132110Y0179171D01*
X0134608Y0180769D02*
X0076926Y0180769D01*
X0076926Y0182368D02*
X0137106Y0182368D01*
X0139604Y0183966D02*
X0076926Y0183966D01*
X0076926Y0185733D02*
X0076926Y0195170D01*
X0076803Y0195628D01*
X0076566Y0196038D01*
X0076231Y0196373D01*
X0075821Y0196610D01*
X0075363Y0196733D01*
X0070926Y0196733D01*
X0070926Y0185733D01*
X0069326Y0185733D01*
X0069326Y0184133D01*
X0070926Y0184133D01*
X0070926Y0185733D01*
X0076926Y0185733D01*
X0076926Y0187163D02*
X0144601Y0187163D01*
X0147099Y0188762D02*
X0076926Y0188762D01*
X0076926Y0190360D02*
X0149597Y0190360D01*
X0152095Y0191959D02*
X0076926Y0191959D01*
X0076926Y0193557D02*
X0154593Y0193557D01*
X0157092Y0195156D02*
X0076926Y0195156D01*
X0075809Y0198353D02*
X0162088Y0198353D01*
X0159590Y0196754D02*
X0057126Y0196754D01*
X0057126Y0195156D02*
X0063326Y0195156D01*
X0063326Y0195170D02*
X0063326Y0185733D01*
X0069326Y0185733D01*
X0069326Y0196733D01*
X0064889Y0196733D01*
X0064431Y0196610D01*
X0064021Y0196373D01*
X0063686Y0196038D01*
X0063449Y0195628D01*
X0063326Y0195170D01*
X0063326Y0193557D02*
X0057126Y0193557D01*
X0057126Y0191959D02*
X0063326Y0191959D01*
X0063326Y0190360D02*
X0057126Y0190360D01*
X0057126Y0188762D02*
X0063326Y0188762D01*
X0063326Y0187163D02*
X0057126Y0187163D01*
X0057126Y0185565D02*
X0069326Y0185565D01*
X0070126Y0184933D02*
X0071126Y0185933D01*
X0109126Y0185933D01*
X0119619Y0171178D02*
X0076144Y0171178D01*
X0076726Y0169580D02*
X0117120Y0169580D01*
X0114622Y0167981D02*
X0076726Y0167981D01*
X0076726Y0166383D02*
X0112124Y0166383D01*
X0109626Y0164784D02*
X0076726Y0164784D01*
X0076726Y0163186D02*
X0107128Y0163186D01*
X0110295Y0159989D02*
X0130672Y0159989D01*
X0132516Y0161587D02*
X0112793Y0161587D01*
X0115291Y0163186D02*
X0134360Y0163186D01*
X0136205Y0164784D02*
X0117789Y0164784D01*
X0120288Y0166383D02*
X0138049Y0166383D01*
X0139893Y0167981D02*
X0122786Y0167981D01*
X0125284Y0169580D02*
X0141737Y0169580D01*
X0143581Y0171178D02*
X0127782Y0171178D01*
X0130280Y0172777D02*
X0145425Y0172777D01*
X0147269Y0174375D02*
X0132779Y0174375D01*
X0135277Y0175974D02*
X0149113Y0175974D01*
X0150957Y0177572D02*
X0137775Y0177572D01*
X0140273Y0179171D02*
X0152801Y0179171D01*
X0154645Y0180769D02*
X0142771Y0180769D01*
X0145270Y0182368D02*
X0156489Y0182368D01*
X0158334Y0183966D02*
X0147768Y0183966D01*
X0150266Y0185565D02*
X0160178Y0185565D01*
X0162022Y0187163D02*
X0152764Y0187163D01*
X0155262Y0188762D02*
X0163866Y0188762D01*
X0165710Y0190360D02*
X0157761Y0190360D01*
X0160259Y0191959D02*
X0167554Y0191959D01*
X0169398Y0193557D02*
X0162757Y0193557D01*
X0165255Y0195156D02*
X0171242Y0195156D01*
X0173086Y0196754D02*
X0167753Y0196754D01*
X0170252Y0198353D02*
X0174930Y0198353D01*
X0176774Y0199951D02*
X0172750Y0199951D01*
X0175248Y0201550D02*
X0178619Y0201550D01*
X0177746Y0203148D02*
X0180463Y0203148D01*
X0180245Y0204747D02*
X0182307Y0204747D01*
X0182743Y0206345D02*
X0184151Y0206345D01*
X0185241Y0207944D02*
X0185995Y0207944D01*
X0187739Y0209543D02*
X0187839Y0209543D01*
X0190868Y0206345D02*
X0191427Y0206345D01*
X0192712Y0207944D02*
X0193026Y0207944D01*
X0194557Y0209543D02*
X0194624Y0209543D01*
X0189829Y0204747D02*
X0189024Y0204747D01*
X0188230Y0203148D02*
X0187180Y0203148D01*
X0186632Y0201550D02*
X0185336Y0201550D01*
X0185033Y0199951D02*
X0183492Y0199951D01*
X0183435Y0198353D02*
X0181648Y0198353D01*
X0181836Y0196754D02*
X0179804Y0196754D01*
X0180238Y0195156D02*
X0177960Y0195156D01*
X0178639Y0193557D02*
X0176116Y0193557D01*
X0177041Y0191959D02*
X0174272Y0191959D01*
X0175442Y0190360D02*
X0172427Y0190360D01*
X0173844Y0188762D02*
X0170583Y0188762D01*
X0172245Y0187163D02*
X0168739Y0187163D01*
X0166895Y0185565D02*
X0170647Y0185565D01*
X0169048Y0183966D02*
X0165051Y0183966D01*
X0163207Y0182368D02*
X0167450Y0182368D01*
X0165851Y0180769D02*
X0161363Y0180769D01*
X0159519Y0179171D02*
X0164253Y0179171D01*
X0162654Y0177572D02*
X0157675Y0177572D01*
X0155831Y0175974D02*
X0161056Y0175974D01*
X0159457Y0174375D02*
X0153987Y0174375D01*
X0152142Y0172777D02*
X0157859Y0172777D01*
X0156260Y0171178D02*
X0150298Y0171178D01*
X0148454Y0169580D02*
X0154662Y0169580D01*
X0153063Y0167981D02*
X0146610Y0167981D01*
X0144766Y0166383D02*
X0151465Y0166383D01*
X0149866Y0164784D02*
X0142922Y0164784D01*
X0141078Y0163186D02*
X0148267Y0163186D01*
X0146669Y0161587D02*
X0139234Y0161587D01*
X0137390Y0159989D02*
X0145070Y0159989D01*
X0143472Y0158390D02*
X0135546Y0158390D01*
X0133702Y0156792D02*
X0141873Y0156792D01*
X0140275Y0155193D02*
X0131857Y0155193D01*
X0130013Y0153595D02*
X0138676Y0153595D01*
X0137078Y0151996D02*
X0128169Y0151996D01*
X0126325Y0150398D02*
X0135479Y0150398D01*
X0133881Y0148799D02*
X0124481Y0148799D01*
X0122637Y0147201D02*
X0132282Y0147201D01*
X0130684Y0145602D02*
X0120793Y0145602D01*
X0118949Y0144004D02*
X0129085Y0144004D01*
X0127487Y0142405D02*
X0117105Y0142405D01*
X0115261Y0140807D02*
X0125888Y0140807D01*
X0124290Y0139208D02*
X0113417Y0139208D01*
X0111573Y0137610D02*
X0122691Y0137610D01*
X0121093Y0136011D02*
X0109728Y0136011D01*
X0107884Y0134412D02*
X0119494Y0134412D01*
X0117896Y0132814D02*
X0106282Y0132814D01*
X0105126Y0134933D02*
X0070126Y0134933D01*
X0076726Y0137610D02*
X0104855Y0137610D01*
X0106699Y0139208D02*
X0076726Y0139208D01*
X0076726Y0140807D02*
X0108543Y0140807D01*
X0110387Y0142405D02*
X0076726Y0142405D01*
X0076726Y0144004D02*
X0112231Y0144004D01*
X0114075Y0145602D02*
X0076720Y0145602D01*
X0063997Y0148799D02*
X0057126Y0148799D01*
X0057126Y0150398D02*
X0063526Y0150398D01*
X0063526Y0151996D02*
X0057126Y0151996D01*
X0057126Y0153595D02*
X0063526Y0153595D01*
X0063526Y0155193D02*
X0057126Y0155193D01*
X0057126Y0156792D02*
X0063526Y0156792D01*
X0063526Y0158390D02*
X0057126Y0158390D01*
X0057126Y0175974D02*
X0063326Y0175974D01*
X0063326Y0177572D02*
X0057126Y0177572D01*
X0057126Y0179171D02*
X0063326Y0179171D01*
X0063326Y0180769D02*
X0057126Y0180769D01*
X0057126Y0182368D02*
X0063326Y0182368D01*
X0063326Y0183966D02*
X0057126Y0183966D01*
X0069326Y0183966D02*
X0070926Y0183966D01*
X0070926Y0182368D02*
X0069326Y0182368D01*
X0069326Y0180769D02*
X0070926Y0180769D01*
X0070926Y0179171D02*
X0069326Y0179171D01*
X0069326Y0177572D02*
X0070926Y0177572D01*
X0070926Y0175974D02*
X0069326Y0175974D01*
X0069326Y0174375D02*
X0070926Y0174375D01*
X0070926Y0185565D02*
X0142102Y0185565D01*
X0164586Y0199951D02*
X0076726Y0199951D01*
X0076726Y0201550D02*
X0167084Y0201550D01*
X0169583Y0203148D02*
X0076726Y0203148D01*
X0076726Y0204747D02*
X0172081Y0204747D01*
X0174579Y0206345D02*
X0076726Y0206345D01*
X0076726Y0212740D02*
X0119764Y0212740D01*
X0115126Y0209933D02*
X0070126Y0209933D01*
X0063526Y0209543D02*
X0057126Y0209543D01*
X0057126Y0211141D02*
X0063526Y0211141D01*
X0063526Y0212740D02*
X0057126Y0212740D01*
X0057126Y0214338D02*
X0063526Y0214338D01*
X0063526Y0215937D02*
X0057126Y0215937D01*
X0057126Y0217535D02*
X0063526Y0217535D01*
X0063526Y0219134D02*
X0057126Y0219134D01*
X0057126Y0220732D02*
X0063662Y0220732D01*
X0063867Y0223929D02*
X0057126Y0223929D01*
X0057126Y0222331D02*
X0165952Y0222331D01*
X0170129Y0219134D02*
X0076726Y0219134D01*
X0076726Y0217535D02*
X0157538Y0217535D01*
X0154700Y0212740D02*
X0184572Y0212740D01*
X0187070Y0214338D02*
X0167292Y0214338D01*
X0174797Y0220732D02*
X0076590Y0220732D01*
X0076385Y0223929D02*
X0157108Y0223929D01*
X0155314Y0228725D02*
X0170896Y0228725D01*
X0173003Y0225528D02*
X0177977Y0225528D01*
X0174437Y0227126D02*
X0164158Y0227126D01*
X0167356Y0230323D02*
X0146469Y0230323D01*
X0148263Y0225528D02*
X0076726Y0225528D01*
X0076726Y0227126D02*
X0139419Y0227126D01*
X0137625Y0231922D02*
X0163816Y0231922D01*
X0160276Y0233520D02*
X0128780Y0233520D01*
X0130574Y0228725D02*
X0076726Y0228725D01*
X0076726Y0230323D02*
X0121730Y0230323D01*
X0119936Y0235119D02*
X0156736Y0235119D01*
X0153196Y0236717D02*
X0076726Y0236717D01*
X0076726Y0238316D02*
X0149655Y0238316D01*
X0146115Y0239914D02*
X0076726Y0239914D01*
X0076726Y0241513D02*
X0142575Y0241513D01*
X0139035Y0243111D02*
X0076726Y0243111D01*
X0076726Y0244710D02*
X0135495Y0244710D01*
X0131955Y0246308D02*
X0076014Y0246308D01*
X0076726Y0249505D02*
X0124874Y0249505D01*
X0121334Y0251104D02*
X0076726Y0251104D01*
X0076726Y0252702D02*
X0117794Y0252702D01*
X0114254Y0254301D02*
X0076726Y0254301D01*
X0076726Y0255899D02*
X0110714Y0255899D01*
X0107173Y0257498D02*
X0076726Y0257498D01*
X0076726Y0263892D02*
X0128348Y0263892D01*
X0125899Y0265490D02*
X0076726Y0265490D01*
X0076726Y0267089D02*
X0123449Y0267089D01*
X0120999Y0268687D02*
X0076726Y0268687D01*
X0076726Y0270286D02*
X0118549Y0270286D01*
X0116099Y0271884D02*
X0057126Y0271884D01*
X0057126Y0270286D02*
X0063526Y0270286D01*
X0063526Y0268687D02*
X0057126Y0268687D01*
X0057126Y0267089D02*
X0063526Y0267089D01*
X0063526Y0265490D02*
X0057126Y0265490D01*
X0057126Y0263892D02*
X0063526Y0263892D01*
X0063526Y0262293D02*
X0057126Y0262293D01*
X0057126Y0260695D02*
X0063526Y0260695D01*
X0063526Y0259096D02*
X0057126Y0259096D01*
X0057126Y0257498D02*
X0063526Y0257498D01*
X0063526Y0255899D02*
X0057126Y0255899D01*
X0057126Y0254301D02*
X0063526Y0254301D01*
X0063526Y0252702D02*
X0057126Y0252702D01*
X0057126Y0251104D02*
X0063526Y0251104D01*
X0063526Y0249505D02*
X0057126Y0249505D01*
X0057126Y0247907D02*
X0128414Y0247907D01*
X0128486Y0252702D02*
X0145498Y0252702D01*
X0147948Y0251104D02*
X0132026Y0251104D01*
X0135566Y0249505D02*
X0150398Y0249505D01*
X0152848Y0247907D02*
X0139106Y0247907D01*
X0142646Y0246308D02*
X0155298Y0246308D01*
X0157748Y0244710D02*
X0146187Y0244710D01*
X0149727Y0243111D02*
X0160198Y0243111D01*
X0162648Y0241513D02*
X0153267Y0241513D01*
X0156807Y0239914D02*
X0165097Y0239914D01*
X0167547Y0238316D02*
X0160347Y0238316D01*
X0163887Y0236717D02*
X0169997Y0236717D01*
X0172447Y0235119D02*
X0167428Y0235119D01*
X0170968Y0233520D02*
X0174897Y0233520D01*
X0174508Y0231922D02*
X0177347Y0231922D01*
X0178048Y0230323D02*
X0179797Y0230323D01*
X0181588Y0228725D02*
X0182247Y0228725D01*
X0185399Y0231922D02*
X0185448Y0231922D01*
X0183475Y0233520D02*
X0182949Y0233520D01*
X0181502Y0235119D02*
X0180499Y0235119D01*
X0179530Y0236717D02*
X0178049Y0236717D01*
X0177557Y0238316D02*
X0175599Y0238316D01*
X0175584Y0239914D02*
X0173150Y0239914D01*
X0173611Y0241513D02*
X0170700Y0241513D01*
X0171638Y0243111D02*
X0168250Y0243111D01*
X0169665Y0244710D02*
X0165800Y0244710D01*
X0167692Y0246308D02*
X0163350Y0246308D01*
X0165719Y0247907D02*
X0160900Y0247907D01*
X0158450Y0249505D02*
X0163746Y0249505D01*
X0161773Y0251104D02*
X0156000Y0251104D01*
X0153550Y0252702D02*
X0159800Y0252702D01*
X0157827Y0254301D02*
X0151100Y0254301D01*
X0148650Y0255899D02*
X0155854Y0255899D01*
X0153881Y0257498D02*
X0146200Y0257498D01*
X0143750Y0259096D02*
X0151908Y0259096D01*
X0149935Y0260695D02*
X0141300Y0260695D01*
X0138850Y0262293D02*
X0147962Y0262293D01*
X0145989Y0263892D02*
X0136401Y0263892D01*
X0133951Y0265490D02*
X0144016Y0265490D01*
X0142043Y0267089D02*
X0131501Y0267089D01*
X0129051Y0268687D02*
X0140070Y0268687D01*
X0138097Y0270286D02*
X0126601Y0270286D01*
X0124151Y0271884D02*
X0136124Y0271884D01*
X0134151Y0273483D02*
X0121701Y0273483D01*
X0119251Y0275081D02*
X0132178Y0275081D01*
X0130205Y0276680D02*
X0116801Y0276680D01*
X0114351Y0278279D02*
X0128233Y0278279D01*
X0126260Y0279877D02*
X0111901Y0279877D01*
X0109451Y0281476D02*
X0124287Y0281476D01*
X0122314Y0283074D02*
X0107001Y0283074D01*
X0104551Y0284673D02*
X0120341Y0284673D01*
X0118368Y0286271D02*
X0102170Y0286271D01*
X0100126Y0284933D02*
X0070126Y0284933D01*
X0063526Y0284673D02*
X0057126Y0284673D01*
X0057126Y0286271D02*
X0063526Y0286271D01*
X0063526Y0287870D02*
X0057126Y0287870D01*
X0057126Y0289468D02*
X0063526Y0289468D01*
X0063526Y0291067D02*
X0057126Y0291067D01*
X0057126Y0292665D02*
X0063526Y0292665D01*
X0063526Y0294264D02*
X0057126Y0294264D01*
X0057126Y0295862D02*
X0063792Y0295862D01*
X0063737Y0299059D02*
X0057126Y0299059D01*
X0057126Y0297461D02*
X0104557Y0297461D01*
X0102584Y0299059D02*
X0076515Y0299059D01*
X0076726Y0300658D02*
X0100611Y0300658D01*
X0098638Y0302256D02*
X0076726Y0302256D01*
X0076726Y0303855D02*
X0096665Y0303855D01*
X0094692Y0305453D02*
X0076726Y0305453D01*
X0072126Y0307933D02*
X0095126Y0307933D01*
X0095807Y0310249D02*
X0105591Y0310249D01*
X0107326Y0308650D02*
X0097736Y0308650D01*
X0099709Y0307052D02*
X0109061Y0307052D01*
X0110797Y0305453D02*
X0101682Y0305453D01*
X0103655Y0303855D02*
X0112532Y0303855D01*
X0114267Y0302256D02*
X0105628Y0302256D01*
X0107600Y0300658D02*
X0116003Y0300658D01*
X0117738Y0299059D02*
X0109573Y0299059D01*
X0111546Y0297461D02*
X0119473Y0297461D01*
X0121209Y0295862D02*
X0113519Y0295862D01*
X0115492Y0294264D02*
X0122944Y0294264D01*
X0124679Y0292665D02*
X0117465Y0292665D01*
X0119438Y0291067D02*
X0126415Y0291067D01*
X0128150Y0289468D02*
X0121411Y0289468D01*
X0123384Y0287870D02*
X0129885Y0287870D01*
X0131621Y0286271D02*
X0125357Y0286271D01*
X0127330Y0284673D02*
X0133356Y0284673D01*
X0135091Y0283074D02*
X0129303Y0283074D01*
X0131276Y0281476D02*
X0136827Y0281476D01*
X0138562Y0279877D02*
X0133249Y0279877D01*
X0135222Y0278279D02*
X0140297Y0278279D01*
X0142033Y0276680D02*
X0137195Y0276680D01*
X0139168Y0275081D02*
X0143768Y0275081D01*
X0145504Y0273483D02*
X0141141Y0273483D01*
X0143114Y0271884D02*
X0147239Y0271884D01*
X0148974Y0270286D02*
X0145087Y0270286D01*
X0147060Y0268687D02*
X0150710Y0268687D01*
X0149033Y0267089D02*
X0152445Y0267089D01*
X0151006Y0265490D02*
X0154180Y0265490D01*
X0152979Y0263892D02*
X0155916Y0263892D01*
X0154952Y0262293D02*
X0157651Y0262293D01*
X0156925Y0260695D02*
X0159386Y0260695D01*
X0158897Y0259096D02*
X0161122Y0259096D01*
X0160870Y0257498D02*
X0162857Y0257498D01*
X0162843Y0255899D02*
X0164592Y0255899D01*
X0164816Y0254301D02*
X0166328Y0254301D01*
X0166789Y0252702D02*
X0168063Y0252702D01*
X0168762Y0251104D02*
X0169798Y0251104D01*
X0170735Y0249505D02*
X0171534Y0249505D01*
X0172708Y0247907D02*
X0173269Y0247907D01*
X0174681Y0246308D02*
X0175004Y0246308D01*
X0176654Y0244710D02*
X0176740Y0244710D01*
X0179763Y0247907D02*
X0187256Y0247907D01*
X0185538Y0249505D02*
X0178028Y0249505D01*
X0176293Y0251104D02*
X0183821Y0251104D01*
X0182104Y0252702D02*
X0174557Y0252702D01*
X0172822Y0254301D02*
X0180386Y0254301D01*
X0178669Y0255899D02*
X0171087Y0255899D01*
X0169351Y0257498D02*
X0176951Y0257498D01*
X0175234Y0259096D02*
X0167616Y0259096D01*
X0165881Y0260695D02*
X0173517Y0260695D01*
X0171799Y0262293D02*
X0164145Y0262293D01*
X0162410Y0263892D02*
X0170082Y0263892D01*
X0168364Y0265490D02*
X0160675Y0265490D01*
X0158939Y0267089D02*
X0166647Y0267089D01*
X0164930Y0268687D02*
X0157204Y0268687D01*
X0155469Y0270286D02*
X0163212Y0270286D01*
X0161495Y0271884D02*
X0153733Y0271884D01*
X0151998Y0273483D02*
X0159777Y0273483D01*
X0158060Y0275081D02*
X0150262Y0275081D01*
X0148527Y0276680D02*
X0156343Y0276680D01*
X0154625Y0278279D02*
X0146792Y0278279D01*
X0145056Y0279877D02*
X0152908Y0279877D01*
X0151190Y0281476D02*
X0143321Y0281476D01*
X0141586Y0283074D02*
X0149473Y0283074D01*
X0147755Y0284673D02*
X0139850Y0284673D01*
X0138115Y0286271D02*
X0146038Y0286271D01*
X0144321Y0287870D02*
X0136380Y0287870D01*
X0134644Y0289468D02*
X0142603Y0289468D01*
X0140886Y0291067D02*
X0132909Y0291067D01*
X0131174Y0292665D02*
X0139168Y0292665D01*
X0137451Y0294264D02*
X0129438Y0294264D01*
X0127703Y0295862D02*
X0135734Y0295862D01*
X0134016Y0297461D02*
X0125968Y0297461D01*
X0124232Y0299059D02*
X0132299Y0299059D01*
X0130581Y0300658D02*
X0122497Y0300658D01*
X0120762Y0302256D02*
X0128864Y0302256D01*
X0127147Y0303855D02*
X0119026Y0303855D01*
X0117291Y0305453D02*
X0125429Y0305453D01*
X0123712Y0307052D02*
X0115556Y0307052D01*
X0113820Y0308650D02*
X0121994Y0308650D01*
X0120277Y0310249D02*
X0112085Y0310249D01*
X0110350Y0311847D02*
X0118560Y0311847D01*
X0116842Y0313446D02*
X0108614Y0313446D01*
X0106879Y0315044D02*
X0115125Y0315044D01*
X0113407Y0316643D02*
X0105144Y0316643D01*
X0103408Y0318241D02*
X0111690Y0318241D01*
X0109973Y0319840D02*
X0101673Y0319840D01*
X0099938Y0321438D02*
X0108255Y0321438D01*
X0106538Y0323037D02*
X0098202Y0323037D01*
X0096467Y0324635D02*
X0104820Y0324635D01*
X0103103Y0326234D02*
X0094732Y0326234D01*
X0092996Y0327832D02*
X0101385Y0327832D01*
X0099668Y0329431D02*
X0091261Y0329431D01*
X0089526Y0331029D02*
X0097951Y0331029D01*
X0096233Y0332628D02*
X0087790Y0332628D01*
X0086055Y0334226D02*
X0094516Y0334226D01*
X0092798Y0335825D02*
X0084628Y0335825D01*
X0083126Y0333933D02*
X0071126Y0333933D01*
X0070126Y0334933D01*
X0063526Y0334226D02*
X0057126Y0334226D01*
X0057126Y0332628D02*
X0063526Y0332628D01*
X0063526Y0331029D02*
X0057126Y0331029D01*
X0057126Y0329431D02*
X0063526Y0329431D01*
X0063526Y0327832D02*
X0057126Y0327832D01*
X0057126Y0326234D02*
X0063526Y0326234D01*
X0063526Y0324635D02*
X0057126Y0324635D01*
X0057126Y0323037D02*
X0091708Y0323037D01*
X0089973Y0324635D02*
X0076726Y0324635D01*
X0076726Y0326234D02*
X0088237Y0326234D01*
X0086502Y0327832D02*
X0076726Y0327832D01*
X0076726Y0329431D02*
X0084767Y0329431D01*
X0083031Y0331029D02*
X0076726Y0331029D01*
X0076726Y0337423D02*
X0091081Y0337423D01*
X0089364Y0339022D02*
X0076726Y0339022D01*
X0076726Y0340620D02*
X0087646Y0340620D01*
X0085929Y0342219D02*
X0076726Y0342219D01*
X0076726Y0343817D02*
X0084211Y0343817D01*
X0082494Y0345416D02*
X0076726Y0345416D01*
X0076069Y0348613D02*
X0079059Y0348613D01*
X0077342Y0350212D02*
X0076726Y0350212D01*
X0080365Y0353409D02*
X0099199Y0353409D01*
X0097707Y0355007D02*
X0078648Y0355007D01*
X0076930Y0356606D02*
X0096216Y0356606D01*
X0094724Y0358204D02*
X0076726Y0358204D01*
X0076726Y0359803D02*
X0093232Y0359803D01*
X0091740Y0361401D02*
X0076726Y0361401D01*
X0076726Y0363000D02*
X0090248Y0363000D01*
X0088756Y0364598D02*
X0076726Y0364598D01*
X0076726Y0366197D02*
X0087264Y0366197D01*
X0085772Y0367795D02*
X0076726Y0367795D01*
X0076726Y0369394D02*
X0084238Y0369394D01*
X0083716Y0370992D02*
X0076330Y0370992D01*
X0083602Y0372591D02*
X0057126Y0372591D01*
X0057126Y0374189D02*
X0083487Y0374189D01*
X0083373Y0375788D02*
X0057126Y0375788D01*
X0057126Y0377386D02*
X0083259Y0377386D01*
X0088071Y0377386D02*
X0132726Y0377386D01*
X0132726Y0375788D02*
X0088185Y0375788D01*
X0088300Y0374189D02*
X0132726Y0374189D01*
X0132726Y0372591D02*
X0088414Y0372591D01*
X0089354Y0370992D02*
X0132712Y0370992D01*
X0133222Y0369394D02*
X0090846Y0369394D01*
X0092338Y0367795D02*
X0134053Y0367795D01*
X0134884Y0366197D02*
X0093830Y0366197D01*
X0095322Y0364598D02*
X0135715Y0364598D01*
X0136546Y0363000D02*
X0096814Y0363000D01*
X0098306Y0361401D02*
X0137378Y0361401D01*
X0138209Y0359803D02*
X0099797Y0359803D01*
X0101289Y0358204D02*
X0139040Y0358204D01*
X0139871Y0356606D02*
X0102781Y0356606D01*
X0104273Y0355007D02*
X0140703Y0355007D01*
X0141534Y0353409D02*
X0105765Y0353409D01*
X0107257Y0351810D02*
X0142365Y0351810D01*
X0143196Y0350212D02*
X0108749Y0350212D01*
X0110241Y0348613D02*
X0144027Y0348613D01*
X0144859Y0347014D02*
X0111733Y0347014D01*
X0113225Y0345416D02*
X0145690Y0345416D01*
X0146521Y0343817D02*
X0114717Y0343817D01*
X0116209Y0342219D02*
X0147352Y0342219D01*
X0148184Y0340620D02*
X0117701Y0340620D01*
X0119193Y0339022D02*
X0149015Y0339022D01*
X0149846Y0337423D02*
X0120685Y0337423D01*
X0122177Y0335825D02*
X0150677Y0335825D01*
X0151509Y0334226D02*
X0123669Y0334226D01*
X0125161Y0332628D02*
X0152340Y0332628D01*
X0153171Y0331029D02*
X0126652Y0331029D01*
X0128144Y0329431D02*
X0154002Y0329431D01*
X0154833Y0327832D02*
X0129636Y0327832D01*
X0131128Y0326234D02*
X0155665Y0326234D01*
X0156496Y0324635D02*
X0132620Y0324635D01*
X0134112Y0323037D02*
X0157327Y0323037D01*
X0158158Y0321438D02*
X0135604Y0321438D01*
X0137096Y0319840D02*
X0158990Y0319840D01*
X0160416Y0318241D02*
X0138588Y0318241D01*
X0140080Y0316643D02*
X0161639Y0316643D01*
X0162862Y0315044D02*
X0141572Y0315044D01*
X0143064Y0313446D02*
X0164085Y0313446D01*
X0165308Y0311847D02*
X0144347Y0311847D01*
X0145922Y0310249D02*
X0166531Y0310249D01*
X0167754Y0308650D02*
X0147520Y0308650D01*
X0149119Y0307052D02*
X0168977Y0307052D01*
X0170200Y0305453D02*
X0150717Y0305453D01*
X0152316Y0303855D02*
X0171423Y0303855D01*
X0172646Y0302256D02*
X0153914Y0302256D01*
X0155513Y0300658D02*
X0173869Y0300658D01*
X0175092Y0299059D02*
X0157111Y0299059D01*
X0158710Y0297461D02*
X0176315Y0297461D01*
X0177538Y0295862D02*
X0160308Y0295862D01*
X0161907Y0294264D02*
X0178761Y0294264D01*
X0179984Y0292665D02*
X0163505Y0292665D01*
X0165104Y0291067D02*
X0181207Y0291067D01*
X0182430Y0289468D02*
X0166702Y0289468D01*
X0168301Y0287870D02*
X0183653Y0287870D01*
X0184876Y0286271D02*
X0169899Y0286271D01*
X0171498Y0284673D02*
X0186099Y0284673D01*
X0187322Y0283074D02*
X0173096Y0283074D01*
X0174695Y0281476D02*
X0188545Y0281476D01*
X0189768Y0279877D02*
X0176293Y0279877D01*
X0177892Y0278279D02*
X0190991Y0278279D01*
X0192214Y0276680D02*
X0179490Y0276680D01*
X0181089Y0275081D02*
X0193437Y0275081D01*
X0194660Y0273483D02*
X0182687Y0273483D01*
X0184286Y0271884D02*
X0195883Y0271884D01*
X0197106Y0270286D02*
X0185885Y0270286D01*
X0187483Y0268687D02*
X0198329Y0268687D01*
X0199552Y0267089D02*
X0189082Y0267089D01*
X0190680Y0265490D02*
X0200775Y0265490D01*
X0201998Y0263892D02*
X0192279Y0263892D01*
X0193877Y0262293D02*
X0203221Y0262293D01*
X0204444Y0260695D02*
X0195476Y0260695D01*
X0197074Y0259096D02*
X0205667Y0259096D01*
X0206890Y0257498D02*
X0198673Y0257498D01*
X0200271Y0255899D02*
X0208113Y0255899D01*
X0209336Y0254301D02*
X0201870Y0254301D01*
X0203468Y0252702D02*
X0210559Y0252702D01*
X0211036Y0251104D02*
X0205067Y0251104D01*
X0206665Y0249505D02*
X0211036Y0249505D01*
X0211036Y0247907D02*
X0208264Y0247907D01*
X0209862Y0246308D02*
X0211036Y0246308D01*
X0206837Y0243111D02*
X0198866Y0243111D01*
X0200584Y0241513D02*
X0207099Y0241513D01*
X0207099Y0239914D02*
X0202292Y0239914D01*
X0202499Y0238316D02*
X0207099Y0238316D01*
X0207099Y0236717D02*
X0202499Y0236717D01*
X0202499Y0235119D02*
X0207109Y0235119D01*
X0207109Y0233520D02*
X0202499Y0233520D01*
X0198099Y0233520D02*
X0195381Y0233520D01*
X0193646Y0235119D02*
X0198099Y0235119D01*
X0198099Y0236717D02*
X0191911Y0236717D01*
X0190175Y0238316D02*
X0197560Y0238316D01*
X0195843Y0239914D02*
X0188440Y0239914D01*
X0186705Y0241513D02*
X0194126Y0241513D01*
X0192408Y0243111D02*
X0184969Y0243111D01*
X0183234Y0244710D02*
X0190691Y0244710D01*
X0188973Y0246308D02*
X0181499Y0246308D01*
X0188562Y0252702D02*
X0197246Y0252702D01*
X0198844Y0251104D02*
X0190279Y0251104D01*
X0191997Y0249505D02*
X0200443Y0249505D01*
X0202041Y0247907D02*
X0193714Y0247907D01*
X0195431Y0246308D02*
X0203640Y0246308D01*
X0205238Y0244710D02*
X0197149Y0244710D01*
X0195647Y0254301D02*
X0186844Y0254301D01*
X0185127Y0255899D02*
X0194049Y0255899D01*
X0192450Y0257498D02*
X0183410Y0257498D01*
X0181692Y0259096D02*
X0190852Y0259096D01*
X0189253Y0260695D02*
X0179975Y0260695D01*
X0178257Y0262293D02*
X0187655Y0262293D01*
X0186056Y0263892D02*
X0176540Y0263892D01*
X0174822Y0265490D02*
X0184458Y0265490D01*
X0182859Y0267089D02*
X0173105Y0267089D01*
X0171388Y0268687D02*
X0181260Y0268687D01*
X0179662Y0270286D02*
X0169670Y0270286D01*
X0167953Y0271884D02*
X0178063Y0271884D01*
X0176465Y0273483D02*
X0166235Y0273483D01*
X0164518Y0275081D02*
X0174866Y0275081D01*
X0173268Y0276680D02*
X0162801Y0276680D01*
X0161083Y0278279D02*
X0171669Y0278279D01*
X0170071Y0279877D02*
X0159366Y0279877D01*
X0157648Y0281476D02*
X0168472Y0281476D01*
X0166874Y0283074D02*
X0155931Y0283074D01*
X0154214Y0284673D02*
X0165275Y0284673D01*
X0163677Y0286271D02*
X0152496Y0286271D01*
X0150779Y0287870D02*
X0162078Y0287870D01*
X0160480Y0289468D02*
X0149061Y0289468D01*
X0147344Y0291067D02*
X0158881Y0291067D01*
X0157283Y0292665D02*
X0145627Y0292665D01*
X0143909Y0294264D02*
X0155684Y0294264D01*
X0154086Y0295862D02*
X0142192Y0295862D01*
X0140474Y0297461D02*
X0152487Y0297461D01*
X0150889Y0299059D02*
X0138757Y0299059D01*
X0137039Y0300658D02*
X0149290Y0300658D01*
X0147692Y0302256D02*
X0135322Y0302256D01*
X0133605Y0303855D02*
X0146093Y0303855D01*
X0144495Y0305453D02*
X0131887Y0305453D01*
X0130170Y0307052D02*
X0142896Y0307052D01*
X0141298Y0308650D02*
X0128452Y0308650D01*
X0126735Y0310249D02*
X0139482Y0310249D01*
X0137990Y0311847D02*
X0125018Y0311847D01*
X0123300Y0313446D02*
X0136498Y0313446D01*
X0135006Y0315044D02*
X0121583Y0315044D01*
X0119865Y0316643D02*
X0133514Y0316643D01*
X0132022Y0318241D02*
X0118148Y0318241D01*
X0116431Y0319840D02*
X0130530Y0319840D01*
X0129038Y0321438D02*
X0114713Y0321438D01*
X0112996Y0323037D02*
X0127546Y0323037D01*
X0126054Y0324635D02*
X0111278Y0324635D01*
X0109561Y0326234D02*
X0124562Y0326234D01*
X0123071Y0327832D02*
X0107844Y0327832D01*
X0106126Y0329431D02*
X0121579Y0329431D01*
X0120087Y0331029D02*
X0104409Y0331029D01*
X0102691Y0332628D02*
X0118595Y0332628D01*
X0117103Y0334226D02*
X0100974Y0334226D01*
X0099256Y0335825D02*
X0115611Y0335825D01*
X0114119Y0337423D02*
X0097539Y0337423D01*
X0095822Y0339022D02*
X0112627Y0339022D01*
X0111135Y0340620D02*
X0094104Y0340620D01*
X0092387Y0342219D02*
X0109643Y0342219D01*
X0108151Y0343817D02*
X0090669Y0343817D01*
X0088952Y0345416D02*
X0106659Y0345416D01*
X0105167Y0347014D02*
X0087235Y0347014D01*
X0085517Y0348613D02*
X0103675Y0348613D01*
X0102183Y0350212D02*
X0083800Y0350212D01*
X0082082Y0351810D02*
X0100691Y0351810D01*
X0110126Y0369933D02*
X0153126Y0313933D01*
X0161126Y0320933D02*
X0135126Y0370933D01*
X0135126Y0384933D01*
X0137526Y0377386D02*
X0156726Y0377386D01*
X0156726Y0375788D02*
X0137526Y0375788D01*
X0137526Y0374189D02*
X0156726Y0374189D01*
X0156726Y0372591D02*
X0137526Y0372591D01*
X0137800Y0370992D02*
X0156726Y0370992D01*
X0156726Y0369394D02*
X0138632Y0369394D01*
X0139463Y0367795D02*
X0157000Y0367795D01*
X0158035Y0366197D02*
X0140294Y0366197D01*
X0141125Y0364598D02*
X0158835Y0364598D01*
X0159635Y0363000D02*
X0141957Y0363000D01*
X0142788Y0361401D02*
X0160435Y0361401D01*
X0161235Y0359803D02*
X0143619Y0359803D01*
X0144450Y0358204D02*
X0162034Y0358204D01*
X0162834Y0356606D02*
X0145282Y0356606D01*
X0146113Y0355007D02*
X0163634Y0355007D01*
X0164434Y0353409D02*
X0146944Y0353409D01*
X0147775Y0351810D02*
X0165234Y0351810D01*
X0166033Y0350212D02*
X0148606Y0350212D01*
X0149438Y0348613D02*
X0166833Y0348613D01*
X0167633Y0347014D02*
X0150269Y0347014D01*
X0151100Y0345416D02*
X0168433Y0345416D01*
X0169233Y0343817D02*
X0151931Y0343817D01*
X0152763Y0342219D02*
X0170033Y0342219D01*
X0170832Y0340620D02*
X0153594Y0340620D01*
X0154425Y0339022D02*
X0171632Y0339022D01*
X0172432Y0337423D02*
X0155256Y0337423D01*
X0156087Y0335825D02*
X0173232Y0335825D01*
X0174032Y0334226D02*
X0156919Y0334226D01*
X0157750Y0332628D02*
X0174831Y0332628D01*
X0175631Y0331029D02*
X0158581Y0331029D01*
X0159412Y0329431D02*
X0176431Y0329431D01*
X0177231Y0327832D02*
X0160244Y0327832D01*
X0161075Y0326234D02*
X0178031Y0326234D01*
X0178831Y0324635D02*
X0161906Y0324635D01*
X0162737Y0323037D02*
X0179630Y0323037D01*
X0180430Y0321438D02*
X0163510Y0321438D01*
X0164733Y0319840D02*
X0181230Y0319840D01*
X0182030Y0318241D02*
X0165956Y0318241D01*
X0167179Y0316643D02*
X0182830Y0316643D01*
X0183629Y0315044D02*
X0168402Y0315044D01*
X0169625Y0313446D02*
X0184429Y0313446D01*
X0185229Y0311847D02*
X0170848Y0311847D01*
X0172071Y0310249D02*
X0186029Y0310249D01*
X0186829Y0308650D02*
X0173294Y0308650D01*
X0174517Y0307052D02*
X0187629Y0307052D01*
X0188428Y0305453D02*
X0175740Y0305453D01*
X0176963Y0303855D02*
X0189228Y0303855D01*
X0190028Y0302256D02*
X0178186Y0302256D01*
X0179409Y0300658D02*
X0190828Y0300658D01*
X0191628Y0299059D02*
X0180632Y0299059D01*
X0181855Y0297461D02*
X0192427Y0297461D01*
X0193227Y0295862D02*
X0183078Y0295862D01*
X0184301Y0294264D02*
X0194027Y0294264D01*
X0194827Y0292665D02*
X0185524Y0292665D01*
X0186747Y0291067D02*
X0195627Y0291067D01*
X0196427Y0289468D02*
X0187970Y0289468D01*
X0189193Y0287870D02*
X0197226Y0287870D01*
X0198026Y0286271D02*
X0190416Y0286271D01*
X0191639Y0284673D02*
X0198826Y0284673D01*
X0199626Y0283074D02*
X0192862Y0283074D01*
X0194085Y0281476D02*
X0200426Y0281476D01*
X0201225Y0279877D02*
X0195308Y0279877D01*
X0196531Y0278279D02*
X0202025Y0278279D01*
X0202825Y0276680D02*
X0197754Y0276680D01*
X0198977Y0275081D02*
X0203625Y0275081D01*
X0204425Y0273483D02*
X0200200Y0273483D01*
X0201423Y0271884D02*
X0205224Y0271884D01*
X0206024Y0270286D02*
X0202646Y0270286D01*
X0203869Y0268687D02*
X0206824Y0268687D01*
X0207624Y0267089D02*
X0205092Y0267089D01*
X0206315Y0265490D02*
X0208424Y0265490D01*
X0209224Y0263892D02*
X0207538Y0263892D01*
X0208761Y0262293D02*
X0210023Y0262293D01*
X0209984Y0260695D02*
X0210823Y0260695D01*
X0211207Y0259096D02*
X0211623Y0259096D01*
X0214144Y0263892D02*
X0214221Y0263892D01*
X0213709Y0265490D02*
X0213344Y0265490D01*
X0213197Y0267089D02*
X0212544Y0267089D01*
X0212685Y0268687D02*
X0211744Y0268687D01*
X0212173Y0270286D02*
X0210944Y0270286D01*
X0211660Y0271884D02*
X0210145Y0271884D01*
X0209345Y0273483D02*
X0211148Y0273483D01*
X0210636Y0275081D02*
X0208545Y0275081D01*
X0207745Y0276680D02*
X0210124Y0276680D01*
X0209612Y0278279D02*
X0206945Y0278279D01*
X0206145Y0279877D02*
X0209100Y0279877D01*
X0208588Y0281476D02*
X0205346Y0281476D01*
X0204546Y0283074D02*
X0208076Y0283074D01*
X0207564Y0284673D02*
X0203746Y0284673D01*
X0202946Y0286271D02*
X0207052Y0286271D01*
X0206540Y0287870D02*
X0202146Y0287870D01*
X0201347Y0289468D02*
X0206028Y0289468D01*
X0205516Y0291067D02*
X0200547Y0291067D01*
X0199747Y0292665D02*
X0205004Y0292665D01*
X0204492Y0294264D02*
X0198947Y0294264D01*
X0198147Y0295862D02*
X0203980Y0295862D01*
X0203468Y0297461D02*
X0197347Y0297461D01*
X0196548Y0299059D02*
X0202956Y0299059D01*
X0202444Y0300658D02*
X0195748Y0300658D01*
X0194948Y0302256D02*
X0201932Y0302256D01*
X0201420Y0303855D02*
X0194148Y0303855D01*
X0193348Y0305453D02*
X0200908Y0305453D01*
X0200396Y0307052D02*
X0192549Y0307052D01*
X0191749Y0308650D02*
X0199884Y0308650D01*
X0199372Y0310249D02*
X0190949Y0310249D01*
X0190149Y0311847D02*
X0198860Y0311847D01*
X0198348Y0313446D02*
X0189349Y0313446D01*
X0188549Y0315044D02*
X0197835Y0315044D01*
X0197323Y0316643D02*
X0187750Y0316643D01*
X0186950Y0318241D02*
X0196811Y0318241D01*
X0196299Y0319840D02*
X0186150Y0319840D01*
X0185350Y0321438D02*
X0195787Y0321438D01*
X0195275Y0323037D02*
X0184550Y0323037D01*
X0183751Y0324635D02*
X0194763Y0324635D01*
X0194251Y0326234D02*
X0182951Y0326234D01*
X0182151Y0327832D02*
X0193739Y0327832D01*
X0193227Y0329431D02*
X0181351Y0329431D01*
X0180551Y0331029D02*
X0192715Y0331029D01*
X0192203Y0332628D02*
X0179751Y0332628D01*
X0178952Y0334226D02*
X0191691Y0334226D01*
X0191179Y0335825D02*
X0178152Y0335825D01*
X0177352Y0337423D02*
X0190667Y0337423D01*
X0190155Y0339022D02*
X0176552Y0339022D01*
X0175752Y0340620D02*
X0189643Y0340620D01*
X0189131Y0342219D02*
X0174953Y0342219D01*
X0174153Y0343817D02*
X0188619Y0343817D01*
X0188107Y0345416D02*
X0173353Y0345416D01*
X0172553Y0347014D02*
X0187595Y0347014D01*
X0187083Y0348613D02*
X0171753Y0348613D01*
X0170953Y0350212D02*
X0186571Y0350212D01*
X0186059Y0351810D02*
X0170154Y0351810D01*
X0169354Y0353409D02*
X0185547Y0353409D01*
X0185035Y0355007D02*
X0168554Y0355007D01*
X0167754Y0356606D02*
X0184523Y0356606D01*
X0184011Y0358204D02*
X0166954Y0358204D01*
X0166155Y0359803D02*
X0183498Y0359803D01*
X0182749Y0361401D02*
X0165355Y0361401D01*
X0164555Y0363000D02*
X0182726Y0363000D01*
X0182726Y0364598D02*
X0163755Y0364598D01*
X0162955Y0366197D02*
X0182726Y0366197D01*
X0182726Y0367795D02*
X0162155Y0367795D01*
X0161526Y0369394D02*
X0182726Y0369394D01*
X0182726Y0370992D02*
X0161526Y0370992D01*
X0161526Y0372591D02*
X0182726Y0372591D01*
X0182726Y0374189D02*
X0161526Y0374189D01*
X0161526Y0375788D02*
X0182726Y0375788D01*
X0182726Y0377386D02*
X0161526Y0377386D01*
X0159126Y0380933D02*
X0159126Y0368933D01*
X0159126Y0380933D02*
X0160126Y0384933D01*
X0148526Y0385379D02*
X0146726Y0385379D01*
X0146726Y0386977D02*
X0148526Y0386977D01*
X0148526Y0388576D02*
X0146726Y0388576D01*
X0146726Y0390174D02*
X0148526Y0390174D01*
X0148526Y0383780D02*
X0146726Y0383780D01*
X0146726Y0382182D02*
X0148526Y0382182D01*
X0148526Y0380583D02*
X0146726Y0380583D01*
X0146441Y0378985D02*
X0148812Y0378985D01*
X0171441Y0378985D02*
X0173812Y0378985D01*
X0173526Y0380583D02*
X0171726Y0380583D01*
X0171726Y0382182D02*
X0173526Y0382182D01*
X0173526Y0383780D02*
X0171726Y0383780D01*
X0171726Y0385379D02*
X0173526Y0385379D01*
X0173526Y0386977D02*
X0171726Y0386977D01*
X0171726Y0388576D02*
X0173526Y0388576D01*
X0173526Y0390174D02*
X0171726Y0390174D01*
X0185126Y0384933D02*
X0185126Y0361933D01*
X0187607Y0361401D02*
X0206749Y0361401D01*
X0206726Y0363000D02*
X0187526Y0363000D01*
X0187526Y0364598D02*
X0206726Y0364598D01*
X0206726Y0366197D02*
X0187526Y0366197D01*
X0187526Y0367795D02*
X0206726Y0367795D01*
X0206726Y0369394D02*
X0187526Y0369394D01*
X0187526Y0370992D02*
X0206726Y0370992D01*
X0206726Y0372591D02*
X0187526Y0372591D01*
X0187526Y0374189D02*
X0206726Y0374189D01*
X0206726Y0375788D02*
X0187526Y0375788D01*
X0187526Y0377386D02*
X0206726Y0377386D01*
X0211526Y0377386D02*
X0231726Y0377386D01*
X0231726Y0375788D02*
X0211526Y0375788D01*
X0211526Y0374189D02*
X0231726Y0374189D01*
X0231726Y0372591D02*
X0211526Y0372591D01*
X0211526Y0370992D02*
X0231726Y0370992D01*
X0231726Y0369394D02*
X0211526Y0369394D01*
X0211526Y0367795D02*
X0231726Y0367795D01*
X0231726Y0366197D02*
X0211526Y0366197D01*
X0211526Y0364598D02*
X0231726Y0364598D01*
X0231726Y0363000D02*
X0211526Y0363000D01*
X0211504Y0361401D02*
X0231726Y0361401D01*
X0231726Y0359803D02*
X0211560Y0359803D01*
X0211727Y0358204D02*
X0231803Y0358204D01*
X0231579Y0356606D02*
X0211894Y0356606D01*
X0212061Y0355007D02*
X0231355Y0355007D01*
X0231132Y0353409D02*
X0212227Y0353409D01*
X0212394Y0351810D02*
X0230908Y0351810D01*
X0230684Y0350212D02*
X0212561Y0350212D01*
X0212728Y0348613D02*
X0230461Y0348613D01*
X0230237Y0347014D02*
X0212894Y0347014D01*
X0213061Y0345416D02*
X0230013Y0345416D01*
X0229790Y0343817D02*
X0213228Y0343817D01*
X0213395Y0342219D02*
X0229566Y0342219D01*
X0229342Y0340620D02*
X0213561Y0340620D01*
X0213728Y0339022D02*
X0229119Y0339022D01*
X0228895Y0337423D02*
X0213895Y0337423D01*
X0214061Y0335825D02*
X0228671Y0335825D01*
X0228447Y0334226D02*
X0214228Y0334226D01*
X0214395Y0332628D02*
X0228224Y0332628D01*
X0228000Y0331029D02*
X0214562Y0331029D01*
X0214728Y0329431D02*
X0227776Y0329431D01*
X0227553Y0327832D02*
X0214895Y0327832D01*
X0215062Y0326234D02*
X0227329Y0326234D01*
X0227105Y0324635D02*
X0215229Y0324635D01*
X0215395Y0323037D02*
X0226882Y0323037D01*
X0226658Y0321438D02*
X0215562Y0321438D01*
X0215729Y0319840D02*
X0226434Y0319840D01*
X0226211Y0318241D02*
X0215896Y0318241D01*
X0216062Y0316643D02*
X0225987Y0316643D01*
X0225763Y0315044D02*
X0216229Y0315044D01*
X0216396Y0313446D02*
X0225540Y0313446D01*
X0225316Y0311847D02*
X0216563Y0311847D01*
X0216729Y0310249D02*
X0225092Y0310249D01*
X0224869Y0308650D02*
X0216896Y0308650D01*
X0217063Y0307052D02*
X0224645Y0307052D01*
X0224421Y0305453D02*
X0217230Y0305453D01*
X0217396Y0303855D02*
X0224198Y0303855D01*
X0223974Y0302256D02*
X0217563Y0302256D01*
X0217730Y0300658D02*
X0223750Y0300658D01*
X0223527Y0299059D02*
X0217897Y0299059D01*
X0218063Y0297461D02*
X0223303Y0297461D01*
X0223079Y0295862D02*
X0218230Y0295862D01*
X0218397Y0294264D02*
X0222855Y0294264D01*
X0222632Y0292665D02*
X0218564Y0292665D01*
X0218730Y0291067D02*
X0222408Y0291067D01*
X0222184Y0289468D02*
X0218897Y0289468D01*
X0219064Y0287870D02*
X0221961Y0287870D01*
X0221737Y0286271D02*
X0219231Y0286271D01*
X0219397Y0284673D02*
X0221513Y0284673D01*
X0221290Y0283074D02*
X0219564Y0283074D01*
X0219731Y0281476D02*
X0221066Y0281476D01*
X0220842Y0279877D02*
X0219898Y0279877D01*
X0220064Y0278279D02*
X0220619Y0278279D01*
X0220395Y0276680D02*
X0220231Y0276680D01*
X0215807Y0276680D02*
X0214745Y0276680D01*
X0215257Y0275081D02*
X0215974Y0275081D01*
X0216141Y0273483D02*
X0215769Y0273483D01*
X0216281Y0271884D02*
X0216307Y0271884D01*
X0215641Y0278279D02*
X0214233Y0278279D01*
X0213721Y0279877D02*
X0215474Y0279877D01*
X0215307Y0281476D02*
X0213208Y0281476D01*
X0212696Y0283074D02*
X0215140Y0283074D01*
X0214974Y0284673D02*
X0212184Y0284673D01*
X0211672Y0286271D02*
X0214807Y0286271D01*
X0214640Y0287870D02*
X0211160Y0287870D01*
X0210648Y0289468D02*
X0214473Y0289468D01*
X0214307Y0291067D02*
X0210136Y0291067D01*
X0209624Y0292665D02*
X0214140Y0292665D01*
X0213973Y0294264D02*
X0209112Y0294264D01*
X0208600Y0295862D02*
X0213806Y0295862D01*
X0213640Y0297461D02*
X0208088Y0297461D01*
X0207576Y0299059D02*
X0213473Y0299059D01*
X0213306Y0300658D02*
X0207064Y0300658D01*
X0206552Y0302256D02*
X0213139Y0302256D01*
X0212973Y0303855D02*
X0206040Y0303855D01*
X0205528Y0305453D02*
X0212806Y0305453D01*
X0212639Y0307052D02*
X0205016Y0307052D01*
X0204504Y0308650D02*
X0212472Y0308650D01*
X0212306Y0310249D02*
X0203992Y0310249D01*
X0203480Y0311847D02*
X0212139Y0311847D01*
X0211972Y0313446D02*
X0202968Y0313446D01*
X0202456Y0315044D02*
X0211805Y0315044D01*
X0211639Y0316643D02*
X0201944Y0316643D01*
X0201432Y0318241D02*
X0211472Y0318241D01*
X0211305Y0319840D02*
X0200920Y0319840D01*
X0200408Y0321438D02*
X0211138Y0321438D01*
X0210972Y0323037D02*
X0199896Y0323037D01*
X0199383Y0324635D02*
X0210805Y0324635D01*
X0210638Y0326234D02*
X0198871Y0326234D01*
X0198359Y0327832D02*
X0210471Y0327832D01*
X0210305Y0329431D02*
X0197847Y0329431D01*
X0197335Y0331029D02*
X0210138Y0331029D01*
X0209971Y0332628D02*
X0196823Y0332628D01*
X0196311Y0334226D02*
X0209804Y0334226D01*
X0209638Y0335825D02*
X0195799Y0335825D01*
X0195287Y0337423D02*
X0209471Y0337423D01*
X0209304Y0339022D02*
X0194775Y0339022D01*
X0194263Y0340620D02*
X0209137Y0340620D01*
X0208971Y0342219D02*
X0193751Y0342219D01*
X0193239Y0343817D02*
X0208804Y0343817D01*
X0208637Y0345416D02*
X0192727Y0345416D01*
X0192215Y0347014D02*
X0208470Y0347014D01*
X0208304Y0348613D02*
X0191703Y0348613D01*
X0191191Y0350212D02*
X0208137Y0350212D01*
X0207970Y0351810D02*
X0190679Y0351810D01*
X0190167Y0353409D02*
X0207803Y0353409D01*
X0207637Y0355007D02*
X0189655Y0355007D01*
X0189143Y0356606D02*
X0207470Y0356606D01*
X0207303Y0358204D02*
X0188631Y0358204D01*
X0188119Y0359803D02*
X0207136Y0359803D01*
X0209126Y0361933D02*
X0209126Y0383933D01*
X0210126Y0384933D01*
X0198526Y0385379D02*
X0196726Y0385379D01*
X0196726Y0386977D02*
X0198526Y0386977D01*
X0198526Y0388576D02*
X0196726Y0388576D01*
X0196726Y0390174D02*
X0198526Y0390174D01*
X0198526Y0383780D02*
X0196726Y0383780D01*
X0196726Y0382182D02*
X0198526Y0382182D01*
X0198526Y0380583D02*
X0196726Y0380583D01*
X0196441Y0378985D02*
X0198812Y0378985D01*
X0221441Y0378985D02*
X0223812Y0378985D01*
X0223526Y0380583D02*
X0221726Y0380583D01*
X0221726Y0382182D02*
X0223526Y0382182D01*
X0223526Y0383780D02*
X0221726Y0383780D01*
X0221726Y0385379D02*
X0223526Y0385379D01*
X0223526Y0386977D02*
X0221726Y0386977D01*
X0221726Y0388576D02*
X0223526Y0388576D01*
X0223526Y0390174D02*
X0221726Y0390174D01*
X0234126Y0383933D02*
X0234126Y0358933D01*
X0236422Y0358204D02*
X0255706Y0358204D01*
X0256286Y0359803D02*
X0236526Y0359803D01*
X0236526Y0361401D02*
X0256866Y0361401D01*
X0257447Y0363000D02*
X0236526Y0363000D01*
X0236526Y0364598D02*
X0257726Y0364598D01*
X0257726Y0366197D02*
X0236526Y0366197D01*
X0236526Y0367795D02*
X0257726Y0367795D01*
X0257726Y0369394D02*
X0236526Y0369394D01*
X0236526Y0370992D02*
X0257726Y0370992D01*
X0257726Y0372591D02*
X0236526Y0372591D01*
X0236526Y0374189D02*
X0257726Y0374189D01*
X0257726Y0375788D02*
X0236526Y0375788D01*
X0236526Y0377386D02*
X0257726Y0377386D01*
X0262526Y0377386D02*
X0282726Y0377386D01*
X0282726Y0375788D02*
X0262526Y0375788D01*
X0262526Y0374189D02*
X0282726Y0374189D01*
X0282726Y0372591D02*
X0262526Y0372591D01*
X0262526Y0370992D02*
X0282726Y0370992D01*
X0282726Y0369394D02*
X0262526Y0369394D01*
X0262526Y0367795D02*
X0282030Y0367795D01*
X0281181Y0366197D02*
X0262526Y0366197D01*
X0262526Y0364598D02*
X0280332Y0364598D01*
X0279482Y0363000D02*
X0262337Y0363000D01*
X0261547Y0361401D02*
X0278633Y0361401D01*
X0277784Y0359803D02*
X0260967Y0359803D01*
X0260387Y0358204D02*
X0276935Y0358204D01*
X0276085Y0356606D02*
X0259806Y0356606D01*
X0259226Y0355007D02*
X0275236Y0355007D01*
X0274387Y0353409D02*
X0258646Y0353409D01*
X0258065Y0351810D02*
X0273537Y0351810D01*
X0272688Y0350212D02*
X0257485Y0350212D01*
X0256905Y0348613D02*
X0271839Y0348613D01*
X0270990Y0347014D02*
X0256324Y0347014D01*
X0255744Y0345416D02*
X0270140Y0345416D01*
X0269291Y0343817D02*
X0255164Y0343817D01*
X0254584Y0342219D02*
X0268442Y0342219D01*
X0267592Y0340620D02*
X0254003Y0340620D01*
X0253423Y0339022D02*
X0266743Y0339022D01*
X0265894Y0337423D02*
X0252843Y0337423D01*
X0252262Y0335825D02*
X0265045Y0335825D01*
X0264195Y0334226D02*
X0251682Y0334226D01*
X0251102Y0332628D02*
X0263346Y0332628D01*
X0262497Y0331029D02*
X0250521Y0331029D01*
X0249941Y0329431D02*
X0261647Y0329431D01*
X0260798Y0327832D02*
X0249361Y0327832D01*
X0248780Y0326234D02*
X0259949Y0326234D01*
X0259100Y0324635D02*
X0248200Y0324635D01*
X0247620Y0323037D02*
X0258250Y0323037D01*
X0257401Y0321438D02*
X0247039Y0321438D01*
X0246459Y0319840D02*
X0256552Y0319840D01*
X0255702Y0318241D02*
X0245879Y0318241D01*
X0245298Y0316643D02*
X0254853Y0316643D01*
X0254004Y0315044D02*
X0244718Y0315044D01*
X0244138Y0313446D02*
X0253155Y0313446D01*
X0252305Y0311847D02*
X0243557Y0311847D01*
X0242977Y0310249D02*
X0251456Y0310249D01*
X0250607Y0308650D02*
X0242397Y0308650D01*
X0241816Y0307052D02*
X0249757Y0307052D01*
X0248908Y0305453D02*
X0241236Y0305453D01*
X0240656Y0303855D02*
X0248059Y0303855D01*
X0247209Y0302256D02*
X0240075Y0302256D01*
X0239495Y0300658D02*
X0246360Y0300658D01*
X0245511Y0299059D02*
X0238915Y0299059D01*
X0238334Y0297461D02*
X0244662Y0297461D01*
X0243812Y0295862D02*
X0237754Y0295862D01*
X0237174Y0294264D02*
X0242963Y0294264D01*
X0242114Y0292665D02*
X0236593Y0292665D01*
X0236013Y0291067D02*
X0241264Y0291067D01*
X0240415Y0289468D02*
X0235433Y0289468D01*
X0234853Y0287870D02*
X0239566Y0287870D01*
X0238717Y0286271D02*
X0234272Y0286271D01*
X0233692Y0284673D02*
X0237867Y0284673D01*
X0237018Y0283074D02*
X0233112Y0283074D01*
X0232531Y0281476D02*
X0236169Y0281476D01*
X0235319Y0279877D02*
X0231951Y0279877D01*
X0231371Y0278279D02*
X0234470Y0278279D01*
X0233621Y0276680D02*
X0230790Y0276680D01*
X0230210Y0275081D02*
X0232772Y0275081D01*
X0231922Y0273483D02*
X0229630Y0273483D01*
X0229049Y0271884D02*
X0231073Y0271884D01*
X0230224Y0270286D02*
X0228469Y0270286D01*
X0227889Y0268687D02*
X0229374Y0268687D01*
X0228525Y0267089D02*
X0227308Y0267089D01*
X0227676Y0265490D02*
X0226728Y0265490D01*
X0226827Y0263892D02*
X0226148Y0263892D01*
X0225977Y0262293D02*
X0225567Y0262293D01*
X0230110Y0260695D02*
X0232290Y0260695D01*
X0233356Y0262293D02*
X0230960Y0262293D01*
X0231809Y0263892D02*
X0234422Y0263892D01*
X0235488Y0265490D02*
X0232658Y0265490D01*
X0233508Y0267089D02*
X0236554Y0267089D01*
X0237621Y0268687D02*
X0234357Y0268687D01*
X0235206Y0270286D02*
X0238687Y0270286D01*
X0239753Y0271884D02*
X0236055Y0271884D01*
X0236905Y0273483D02*
X0240819Y0273483D01*
X0241885Y0275081D02*
X0237754Y0275081D01*
X0238603Y0276680D02*
X0242951Y0276680D01*
X0244018Y0278279D02*
X0239453Y0278279D01*
X0240302Y0279877D02*
X0245084Y0279877D01*
X0246150Y0281476D02*
X0241151Y0281476D01*
X0242000Y0283074D02*
X0247216Y0283074D01*
X0248282Y0284673D02*
X0242850Y0284673D01*
X0243699Y0286271D02*
X0249348Y0286271D01*
X0250415Y0287870D02*
X0244548Y0287870D01*
X0245398Y0289468D02*
X0251481Y0289468D01*
X0252547Y0291067D02*
X0246247Y0291067D01*
X0247096Y0292665D02*
X0253613Y0292665D01*
X0254679Y0294264D02*
X0247945Y0294264D01*
X0248795Y0295862D02*
X0255745Y0295862D01*
X0256812Y0297461D02*
X0249644Y0297461D01*
X0250493Y0299059D02*
X0257878Y0299059D01*
X0258944Y0300658D02*
X0251343Y0300658D01*
X0252192Y0302256D02*
X0260010Y0302256D01*
X0261076Y0303855D02*
X0253041Y0303855D01*
X0253890Y0305453D02*
X0262142Y0305453D01*
X0263209Y0307052D02*
X0254740Y0307052D01*
X0255589Y0308650D02*
X0264275Y0308650D01*
X0265341Y0310249D02*
X0256438Y0310249D01*
X0257288Y0311847D02*
X0266407Y0311847D01*
X0267473Y0313446D02*
X0258137Y0313446D01*
X0258986Y0315044D02*
X0268539Y0315044D01*
X0269606Y0316643D02*
X0259836Y0316643D01*
X0260685Y0318241D02*
X0270672Y0318241D01*
X0271738Y0319840D02*
X0261534Y0319840D01*
X0262383Y0321438D02*
X0272804Y0321438D01*
X0273870Y0323037D02*
X0263233Y0323037D01*
X0264082Y0324635D02*
X0274936Y0324635D01*
X0276002Y0326234D02*
X0264931Y0326234D01*
X0265781Y0327832D02*
X0277069Y0327832D01*
X0278135Y0329431D02*
X0266630Y0329431D01*
X0267479Y0331029D02*
X0279201Y0331029D01*
X0280267Y0332628D02*
X0268328Y0332628D01*
X0269178Y0334226D02*
X0281333Y0334226D01*
X0282399Y0335825D02*
X0270027Y0335825D01*
X0270876Y0337423D02*
X0283466Y0337423D01*
X0284532Y0339022D02*
X0271726Y0339022D01*
X0272575Y0340620D02*
X0285598Y0340620D01*
X0286664Y0342219D02*
X0273424Y0342219D01*
X0274273Y0343817D02*
X0287730Y0343817D01*
X0288796Y0345416D02*
X0275123Y0345416D01*
X0275972Y0347014D02*
X0289863Y0347014D01*
X0290929Y0348613D02*
X0276821Y0348613D01*
X0277671Y0350212D02*
X0291995Y0350212D01*
X0293061Y0351810D02*
X0278520Y0351810D01*
X0279369Y0353409D02*
X0294127Y0353409D01*
X0295193Y0355007D02*
X0280218Y0355007D01*
X0281068Y0356606D02*
X0296260Y0356606D01*
X0297326Y0358204D02*
X0281917Y0358204D01*
X0282766Y0359803D02*
X0298392Y0359803D01*
X0299458Y0361401D02*
X0283616Y0361401D01*
X0284465Y0363000D02*
X0300524Y0363000D01*
X0301590Y0364598D02*
X0285314Y0364598D01*
X0286163Y0366197D02*
X0302657Y0366197D01*
X0303723Y0367795D02*
X0287253Y0367795D01*
X0287526Y0369394D02*
X0304767Y0369394D01*
X0305670Y0370992D02*
X0287526Y0370992D01*
X0287526Y0372591D02*
X0306869Y0372591D01*
X0307726Y0374189D02*
X0287526Y0374189D01*
X0287526Y0375788D02*
X0307726Y0375788D01*
X0307726Y0377386D02*
X0287526Y0377386D01*
X0285126Y0384933D02*
X0285126Y0368933D01*
X0273812Y0378985D02*
X0271441Y0378985D01*
X0271726Y0380583D02*
X0273526Y0380583D01*
X0273526Y0382182D02*
X0271726Y0382182D01*
X0271726Y0383780D02*
X0273526Y0383780D01*
X0273526Y0385379D02*
X0271726Y0385379D01*
X0271726Y0386977D02*
X0273526Y0386977D01*
X0273526Y0388576D02*
X0271726Y0388576D01*
X0271726Y0390174D02*
X0273526Y0390174D01*
X0260126Y0384933D02*
X0260126Y0363933D01*
X0255125Y0356606D02*
X0236022Y0356606D01*
X0235798Y0355007D02*
X0254545Y0355007D01*
X0253965Y0353409D02*
X0235574Y0353409D01*
X0235351Y0351810D02*
X0253384Y0351810D01*
X0252804Y0350212D02*
X0235127Y0350212D01*
X0234903Y0348613D02*
X0252224Y0348613D01*
X0251644Y0347014D02*
X0234680Y0347014D01*
X0234456Y0345416D02*
X0251063Y0345416D01*
X0250483Y0343817D02*
X0234232Y0343817D01*
X0234009Y0342219D02*
X0249903Y0342219D01*
X0249322Y0340620D02*
X0233785Y0340620D01*
X0233561Y0339022D02*
X0248742Y0339022D01*
X0248162Y0337423D02*
X0233338Y0337423D01*
X0233114Y0335825D02*
X0247581Y0335825D01*
X0247001Y0334226D02*
X0232890Y0334226D01*
X0232667Y0332628D02*
X0246421Y0332628D01*
X0245840Y0331029D02*
X0232443Y0331029D01*
X0232219Y0329431D02*
X0245260Y0329431D01*
X0244680Y0327832D02*
X0231996Y0327832D01*
X0231772Y0326234D02*
X0244099Y0326234D01*
X0243519Y0324635D02*
X0231548Y0324635D01*
X0231325Y0323037D02*
X0242939Y0323037D01*
X0242358Y0321438D02*
X0231101Y0321438D01*
X0230877Y0319840D02*
X0241778Y0319840D01*
X0241198Y0318241D02*
X0230654Y0318241D01*
X0230430Y0316643D02*
X0240617Y0316643D01*
X0240037Y0315044D02*
X0230206Y0315044D01*
X0229982Y0313446D02*
X0239457Y0313446D01*
X0238876Y0311847D02*
X0229759Y0311847D01*
X0229535Y0310249D02*
X0238296Y0310249D01*
X0237716Y0308650D02*
X0229311Y0308650D01*
X0229088Y0307052D02*
X0237135Y0307052D01*
X0236555Y0305453D02*
X0228864Y0305453D01*
X0228640Y0303855D02*
X0235975Y0303855D01*
X0235394Y0302256D02*
X0228417Y0302256D01*
X0228193Y0300658D02*
X0234814Y0300658D01*
X0234234Y0299059D02*
X0227969Y0299059D01*
X0227746Y0297461D02*
X0233653Y0297461D01*
X0233073Y0295862D02*
X0227522Y0295862D01*
X0227298Y0294264D02*
X0232493Y0294264D01*
X0231913Y0292665D02*
X0227075Y0292665D01*
X0226851Y0291067D02*
X0231332Y0291067D01*
X0230752Y0289468D02*
X0226627Y0289468D01*
X0226404Y0287870D02*
X0230172Y0287870D01*
X0229591Y0286271D02*
X0226180Y0286271D01*
X0225956Y0284673D02*
X0229011Y0284673D01*
X0228431Y0283074D02*
X0225733Y0283074D01*
X0225509Y0281476D02*
X0227850Y0281476D01*
X0227270Y0279877D02*
X0225285Y0279877D01*
X0225062Y0278279D02*
X0226690Y0278279D01*
X0226109Y0276680D02*
X0224838Y0276680D01*
X0224614Y0275081D02*
X0225529Y0275081D01*
X0224949Y0273483D02*
X0224390Y0273483D01*
X0224368Y0271884D02*
X0224167Y0271884D01*
X0229261Y0259096D02*
X0231224Y0259096D01*
X0230157Y0257498D02*
X0228412Y0257498D01*
X0229091Y0255899D02*
X0227563Y0255899D01*
X0227247Y0254301D02*
X0228025Y0254301D01*
X0232248Y0252702D02*
X0232336Y0252702D01*
X0233314Y0254301D02*
X0233576Y0254301D01*
X0234380Y0255899D02*
X0234816Y0255899D01*
X0235446Y0257498D02*
X0236056Y0257498D01*
X0236512Y0259096D02*
X0237296Y0259096D01*
X0237579Y0260695D02*
X0238536Y0260695D01*
X0238645Y0262293D02*
X0239775Y0262293D01*
X0239711Y0263892D02*
X0241015Y0263892D01*
X0240777Y0265490D02*
X0242255Y0265490D01*
X0241843Y0267089D02*
X0243495Y0267089D01*
X0242909Y0268687D02*
X0244735Y0268687D01*
X0243976Y0270286D02*
X0245975Y0270286D01*
X0245042Y0271884D02*
X0247215Y0271884D01*
X0246108Y0273483D02*
X0248455Y0273483D01*
X0249694Y0275081D02*
X0247174Y0275081D01*
X0248240Y0276680D02*
X0250934Y0276680D01*
X0252174Y0278279D02*
X0249306Y0278279D01*
X0250373Y0279877D02*
X0253414Y0279877D01*
X0254654Y0281476D02*
X0251439Y0281476D01*
X0252505Y0283074D02*
X0255894Y0283074D01*
X0257134Y0284673D02*
X0253571Y0284673D01*
X0254637Y0286271D02*
X0258373Y0286271D01*
X0259613Y0287870D02*
X0255703Y0287870D01*
X0256770Y0289468D02*
X0260853Y0289468D01*
X0262093Y0291067D02*
X0257836Y0291067D01*
X0258902Y0292665D02*
X0263333Y0292665D01*
X0264573Y0294264D02*
X0259968Y0294264D01*
X0261034Y0295862D02*
X0265813Y0295862D01*
X0267053Y0297461D02*
X0262100Y0297461D01*
X0263167Y0299059D02*
X0268292Y0299059D01*
X0269532Y0300658D02*
X0264233Y0300658D01*
X0265299Y0302256D02*
X0270772Y0302256D01*
X0272012Y0303855D02*
X0266365Y0303855D01*
X0267431Y0305453D02*
X0273252Y0305453D01*
X0274492Y0307052D02*
X0268497Y0307052D01*
X0269564Y0308650D02*
X0275732Y0308650D01*
X0276971Y0310249D02*
X0270630Y0310249D01*
X0271696Y0311847D02*
X0278211Y0311847D01*
X0279451Y0313446D02*
X0272762Y0313446D01*
X0273828Y0315044D02*
X0280691Y0315044D01*
X0281931Y0316643D02*
X0274894Y0316643D01*
X0275961Y0318241D02*
X0283171Y0318241D01*
X0284411Y0319840D02*
X0277027Y0319840D01*
X0278093Y0321438D02*
X0285651Y0321438D01*
X0286890Y0323037D02*
X0279159Y0323037D01*
X0280225Y0324635D02*
X0288130Y0324635D01*
X0289370Y0326234D02*
X0281291Y0326234D01*
X0282358Y0327832D02*
X0290610Y0327832D01*
X0291850Y0329431D02*
X0283424Y0329431D01*
X0284490Y0331029D02*
X0293090Y0331029D01*
X0294330Y0332628D02*
X0285556Y0332628D01*
X0286622Y0334226D02*
X0295569Y0334226D01*
X0296594Y0335825D02*
X0287688Y0335825D01*
X0288754Y0337423D02*
X0298003Y0337423D01*
X0299411Y0339022D02*
X0289821Y0339022D01*
X0290887Y0340620D02*
X0300819Y0340620D01*
X0302227Y0342219D02*
X0291953Y0342219D01*
X0293019Y0343817D02*
X0303635Y0343817D01*
X0305044Y0345416D02*
X0294085Y0345416D01*
X0295151Y0347014D02*
X0306452Y0347014D01*
X0307860Y0348613D02*
X0296218Y0348613D01*
X0297284Y0350212D02*
X0309268Y0350212D01*
X0310676Y0351810D02*
X0298350Y0351810D01*
X0299416Y0353409D02*
X0312085Y0353409D01*
X0313493Y0355007D02*
X0300482Y0355007D01*
X0301548Y0356606D02*
X0314901Y0356606D01*
X0316309Y0358204D02*
X0302615Y0358204D01*
X0303681Y0359803D02*
X0317717Y0359803D01*
X0319126Y0361401D02*
X0304747Y0361401D01*
X0305813Y0363000D02*
X0320534Y0363000D01*
X0321942Y0364598D02*
X0306879Y0364598D01*
X0307945Y0366197D02*
X0323350Y0366197D01*
X0324759Y0367795D02*
X0309273Y0367795D01*
X0310472Y0369394D02*
X0326167Y0369394D01*
X0327575Y0370992D02*
X0311670Y0370992D01*
X0312526Y0372591D02*
X0328983Y0372591D01*
X0330391Y0374189D02*
X0312526Y0374189D01*
X0312526Y0375788D02*
X0331800Y0375788D01*
X0332726Y0377386D02*
X0312526Y0377386D01*
X0310126Y0372933D02*
X0307126Y0368933D01*
X0310126Y0372933D02*
X0310126Y0384933D01*
X0298526Y0385379D02*
X0296726Y0385379D01*
X0296726Y0386977D02*
X0298526Y0386977D01*
X0298526Y0388576D02*
X0296726Y0388576D01*
X0296726Y0390174D02*
X0298526Y0390174D01*
X0298526Y0383780D02*
X0296726Y0383780D01*
X0296726Y0382182D02*
X0298526Y0382182D01*
X0298526Y0380583D02*
X0296726Y0380583D01*
X0296441Y0378985D02*
X0298812Y0378985D01*
X0321441Y0378985D02*
X0323812Y0378985D01*
X0323526Y0380583D02*
X0321726Y0380583D01*
X0321726Y0382182D02*
X0323526Y0382182D01*
X0323526Y0383780D02*
X0321726Y0383780D01*
X0321726Y0385379D02*
X0323526Y0385379D01*
X0323526Y0386977D02*
X0321726Y0386977D01*
X0321726Y0388576D02*
X0323526Y0388576D01*
X0323526Y0390174D02*
X0321726Y0390174D01*
X0335126Y0384933D02*
X0335126Y0375933D01*
X0298126Y0333933D01*
X0300175Y0332628D02*
X0315477Y0332628D01*
X0316984Y0334226D02*
X0301583Y0334226D01*
X0302991Y0335825D02*
X0318490Y0335825D01*
X0319997Y0337423D02*
X0304399Y0337423D01*
X0305808Y0339022D02*
X0321504Y0339022D01*
X0323011Y0340620D02*
X0307216Y0340620D01*
X0308624Y0342219D02*
X0324518Y0342219D01*
X0326025Y0343817D02*
X0310032Y0343817D01*
X0311440Y0345416D02*
X0327532Y0345416D01*
X0329039Y0347014D02*
X0312849Y0347014D01*
X0314257Y0348613D02*
X0330546Y0348613D01*
X0332053Y0350212D02*
X0315665Y0350212D01*
X0317073Y0351810D02*
X0333560Y0351810D01*
X0335067Y0353409D02*
X0318482Y0353409D01*
X0319890Y0355007D02*
X0336574Y0355007D01*
X0338080Y0356606D02*
X0321298Y0356606D01*
X0322706Y0358204D02*
X0339587Y0358204D01*
X0341094Y0359803D02*
X0324114Y0359803D01*
X0325523Y0361401D02*
X0342601Y0361401D01*
X0343975Y0363000D02*
X0326931Y0363000D01*
X0328339Y0364598D02*
X0345475Y0364598D01*
X0347207Y0366197D02*
X0329747Y0366197D01*
X0331155Y0367795D02*
X0348938Y0367795D01*
X0350670Y0369394D02*
X0332564Y0369394D01*
X0333972Y0370992D02*
X0352402Y0370992D01*
X0354134Y0372591D02*
X0335380Y0372591D01*
X0336788Y0374189D02*
X0355865Y0374189D01*
X0356885Y0375788D02*
X0337540Y0375788D01*
X0337526Y0377386D02*
X0357030Y0377386D01*
X0359126Y0373933D02*
X0346126Y0361933D01*
X0347286Y0359803D02*
X0355991Y0359803D01*
X0357200Y0361401D02*
X0349088Y0361401D01*
X0350820Y0363000D02*
X0368526Y0363000D01*
X0368526Y0364598D02*
X0352552Y0364598D01*
X0354283Y0366197D02*
X0368526Y0366197D01*
X0368526Y0367795D02*
X0356015Y0367795D01*
X0357747Y0369394D02*
X0368526Y0369394D01*
X0368922Y0370992D02*
X0359478Y0370992D01*
X0361150Y0372591D02*
X0386126Y0372591D01*
X0386126Y0374189D02*
X0361559Y0374189D01*
X0361705Y0375788D02*
X0386126Y0375788D01*
X0386126Y0377386D02*
X0361850Y0377386D01*
X0359126Y0373933D02*
X0360126Y0384933D01*
X0348526Y0385379D02*
X0346726Y0385379D01*
X0346726Y0386977D02*
X0348526Y0386977D01*
X0348526Y0388576D02*
X0346726Y0388576D01*
X0346726Y0390174D02*
X0348526Y0390174D01*
X0348526Y0383780D02*
X0346726Y0383780D01*
X0346726Y0382182D02*
X0348526Y0382182D01*
X0348526Y0380583D02*
X0346726Y0380583D01*
X0346441Y0378985D02*
X0348812Y0378985D01*
X0345634Y0358204D02*
X0354496Y0358204D01*
X0353001Y0356606D02*
X0344127Y0356606D01*
X0342620Y0355007D02*
X0351505Y0355007D01*
X0350010Y0353409D02*
X0341113Y0353409D01*
X0339607Y0351810D02*
X0348515Y0351810D01*
X0347019Y0350212D02*
X0338100Y0350212D01*
X0336593Y0348613D02*
X0345524Y0348613D01*
X0344028Y0347014D02*
X0335086Y0347014D01*
X0333579Y0345416D02*
X0342533Y0345416D01*
X0341038Y0343817D02*
X0332072Y0343817D01*
X0330565Y0342219D02*
X0339542Y0342219D01*
X0338047Y0340620D02*
X0329058Y0340620D01*
X0327551Y0339022D02*
X0336552Y0339022D01*
X0335056Y0337423D02*
X0326044Y0337423D01*
X0324537Y0335825D02*
X0333561Y0335825D01*
X0332065Y0334226D02*
X0323030Y0334226D01*
X0321523Y0332628D02*
X0330570Y0332628D01*
X0329075Y0331029D02*
X0320017Y0331029D01*
X0318510Y0329431D02*
X0327579Y0329431D01*
X0326084Y0327832D02*
X0317003Y0327832D01*
X0315496Y0326234D02*
X0324588Y0326234D01*
X0323093Y0324635D02*
X0313989Y0324635D01*
X0312482Y0323037D02*
X0321598Y0323037D01*
X0320102Y0321438D02*
X0310975Y0321438D01*
X0309468Y0319840D02*
X0318607Y0319840D01*
X0317112Y0318241D02*
X0307961Y0318241D01*
X0306454Y0316643D02*
X0315616Y0316643D01*
X0314121Y0315044D02*
X0304947Y0315044D01*
X0303440Y0313446D02*
X0312625Y0313446D01*
X0311130Y0311847D02*
X0301933Y0311847D01*
X0300427Y0310249D02*
X0309635Y0310249D01*
X0308139Y0308650D02*
X0298920Y0308650D01*
X0297413Y0307052D02*
X0306644Y0307052D01*
X0305149Y0305453D02*
X0295906Y0305453D01*
X0294399Y0303855D02*
X0303653Y0303855D01*
X0302158Y0302256D02*
X0292892Y0302256D01*
X0291385Y0300658D02*
X0300662Y0300658D01*
X0299167Y0299059D02*
X0289878Y0299059D01*
X0288371Y0297461D02*
X0297672Y0297461D01*
X0296176Y0295862D02*
X0286864Y0295862D01*
X0285357Y0294264D02*
X0294681Y0294264D01*
X0293185Y0292665D02*
X0283850Y0292665D01*
X0282343Y0291067D02*
X0291690Y0291067D01*
X0290195Y0289468D02*
X0280837Y0289468D01*
X0279330Y0287870D02*
X0288699Y0287870D01*
X0287204Y0286271D02*
X0277823Y0286271D01*
X0276316Y0284673D02*
X0285709Y0284673D01*
X0284213Y0283074D02*
X0274809Y0283074D01*
X0273302Y0281476D02*
X0282718Y0281476D01*
X0281222Y0279877D02*
X0271795Y0279877D01*
X0270288Y0278279D02*
X0279727Y0278279D01*
X0278232Y0276680D02*
X0268781Y0276680D01*
X0267274Y0275081D02*
X0276736Y0275081D01*
X0275241Y0273483D02*
X0265767Y0273483D01*
X0264260Y0271884D02*
X0273746Y0271884D01*
X0272250Y0270286D02*
X0262753Y0270286D01*
X0261247Y0268687D02*
X0270755Y0268687D01*
X0269259Y0267089D02*
X0259740Y0267089D01*
X0258233Y0265490D02*
X0267764Y0265490D01*
X0266269Y0263892D02*
X0256726Y0263892D01*
X0255219Y0262293D02*
X0264773Y0262293D01*
X0263278Y0260695D02*
X0253712Y0260695D01*
X0252205Y0259096D02*
X0261782Y0259096D01*
X0260287Y0257498D02*
X0250698Y0257498D01*
X0249191Y0255899D02*
X0258792Y0255899D01*
X0257296Y0254301D02*
X0247684Y0254301D01*
X0246177Y0252702D02*
X0255801Y0252702D01*
X0254306Y0251104D02*
X0244670Y0251104D01*
X0243163Y0249505D02*
X0252810Y0249505D01*
X0251315Y0247907D02*
X0241657Y0247907D01*
X0240150Y0246308D02*
X0249819Y0246308D01*
X0248324Y0244710D02*
X0238643Y0244710D01*
X0237136Y0243111D02*
X0246829Y0243111D01*
X0245333Y0241513D02*
X0235629Y0241513D01*
X0234122Y0239914D02*
X0243838Y0239914D01*
X0242343Y0238316D02*
X0233153Y0238316D01*
X0233153Y0236717D02*
X0240899Y0236717D01*
X0240926Y0235119D02*
X0233143Y0235119D01*
X0233143Y0233520D02*
X0240090Y0233520D01*
X0243209Y0230323D02*
X0247051Y0230323D01*
X0245226Y0231922D02*
X0249214Y0231922D01*
X0251377Y0233520D02*
X0245391Y0233520D01*
X0245377Y0235119D02*
X0253540Y0235119D01*
X0255703Y0236717D02*
X0246872Y0236717D01*
X0248368Y0238316D02*
X0257866Y0238316D01*
X0260029Y0239914D02*
X0249863Y0239914D01*
X0251358Y0241513D02*
X0262192Y0241513D01*
X0264355Y0243111D02*
X0252854Y0243111D01*
X0254349Y0244710D02*
X0266519Y0244710D01*
X0268682Y0246308D02*
X0255845Y0246308D01*
X0257340Y0247907D02*
X0270845Y0247907D01*
X0273008Y0249505D02*
X0258835Y0249505D01*
X0260331Y0251104D02*
X0275171Y0251104D01*
X0277334Y0252702D02*
X0261826Y0252702D01*
X0263321Y0254301D02*
X0279497Y0254301D01*
X0281660Y0255899D02*
X0264817Y0255899D01*
X0266312Y0257498D02*
X0283823Y0257498D01*
X0285986Y0259096D02*
X0267808Y0259096D01*
X0269303Y0260695D02*
X0288149Y0260695D01*
X0290312Y0262293D02*
X0270798Y0262293D01*
X0272294Y0263892D02*
X0292475Y0263892D01*
X0294639Y0265490D02*
X0273789Y0265490D01*
X0275284Y0267089D02*
X0296802Y0267089D01*
X0298965Y0268687D02*
X0276780Y0268687D01*
X0278275Y0270286D02*
X0301128Y0270286D01*
X0303291Y0271884D02*
X0279771Y0271884D01*
X0281266Y0273483D02*
X0305454Y0273483D01*
X0307617Y0275081D02*
X0282761Y0275081D01*
X0284257Y0276680D02*
X0309780Y0276680D01*
X0311943Y0278279D02*
X0285752Y0278279D01*
X0287248Y0279877D02*
X0314106Y0279877D01*
X0316269Y0281476D02*
X0288743Y0281476D01*
X0290238Y0283074D02*
X0318432Y0283074D01*
X0320596Y0284673D02*
X0291734Y0284673D01*
X0293229Y0286271D02*
X0322759Y0286271D01*
X0324922Y0287870D02*
X0294724Y0287870D01*
X0296220Y0289468D02*
X0327085Y0289468D01*
X0329248Y0291067D02*
X0297715Y0291067D01*
X0299211Y0292665D02*
X0331411Y0292665D01*
X0333574Y0294264D02*
X0300706Y0294264D01*
X0302201Y0295862D02*
X0335737Y0295862D01*
X0337900Y0297461D02*
X0303697Y0297461D01*
X0305192Y0299059D02*
X0340063Y0299059D01*
X0342226Y0300658D02*
X0306688Y0300658D01*
X0308183Y0302256D02*
X0344389Y0302256D01*
X0346552Y0303855D02*
X0309678Y0303855D01*
X0311174Y0305453D02*
X0348716Y0305453D01*
X0350879Y0307052D02*
X0312669Y0307052D01*
X0314164Y0308650D02*
X0353042Y0308650D01*
X0355073Y0310249D02*
X0315660Y0310249D01*
X0317155Y0311847D02*
X0368526Y0311847D01*
X0368526Y0313446D02*
X0318651Y0313446D01*
X0320146Y0315044D02*
X0368526Y0315044D01*
X0368526Y0316643D02*
X0321641Y0316643D01*
X0323137Y0318241D02*
X0368526Y0318241D01*
X0368526Y0319840D02*
X0324632Y0319840D01*
X0326127Y0321438D02*
X0369369Y0321438D01*
X0369889Y0323133D02*
X0374326Y0323133D01*
X0374326Y0334133D01*
X0368326Y0334133D01*
X0368326Y0324696D01*
X0368449Y0324238D01*
X0368686Y0323828D01*
X0369021Y0323493D01*
X0369431Y0323256D01*
X0369889Y0323133D01*
X0368342Y0324635D02*
X0329118Y0324635D01*
X0327623Y0323037D02*
X0386126Y0323037D01*
X0386126Y0324635D02*
X0381910Y0324635D01*
X0381926Y0324696D02*
X0381926Y0334133D01*
X0375926Y0334133D01*
X0375926Y0323133D01*
X0380363Y0323133D01*
X0380821Y0323256D01*
X0381231Y0323493D01*
X0381566Y0323828D01*
X0381803Y0324238D01*
X0381926Y0324696D01*
X0381926Y0326234D02*
X0386126Y0326234D01*
X0386126Y0327832D02*
X0381926Y0327832D01*
X0381926Y0329431D02*
X0386126Y0329431D01*
X0386126Y0331029D02*
X0381926Y0331029D01*
X0381926Y0332628D02*
X0386126Y0332628D01*
X0386126Y0334226D02*
X0375926Y0334226D01*
X0375926Y0334133D02*
X0375926Y0335733D01*
X0374326Y0335733D01*
X0374326Y0334133D01*
X0375926Y0334133D01*
X0375126Y0334933D02*
X0374126Y0333933D01*
X0354126Y0333933D01*
X0345567Y0342219D02*
X0368326Y0342219D01*
X0368326Y0343817D02*
X0347063Y0343817D01*
X0348558Y0345416D02*
X0368392Y0345416D01*
X0368449Y0345628D02*
X0368326Y0345170D01*
X0368326Y0335733D01*
X0374326Y0335733D01*
X0374326Y0346733D01*
X0369889Y0346733D01*
X0369431Y0346610D01*
X0369021Y0346373D01*
X0368686Y0346038D01*
X0368449Y0345628D01*
X0369183Y0348613D02*
X0351549Y0348613D01*
X0353044Y0350212D02*
X0368526Y0350212D01*
X0368526Y0351810D02*
X0354540Y0351810D01*
X0356035Y0353409D02*
X0368526Y0353409D01*
X0368526Y0355007D02*
X0357530Y0355007D01*
X0359026Y0356606D02*
X0368526Y0356606D01*
X0375126Y0359933D02*
X0359126Y0359933D01*
X0350054Y0347014D02*
X0386126Y0347014D01*
X0386126Y0345416D02*
X0381860Y0345416D01*
X0381803Y0345628D02*
X0381566Y0346038D01*
X0381231Y0346373D01*
X0380821Y0346610D01*
X0380363Y0346733D01*
X0375926Y0346733D01*
X0375926Y0335733D01*
X0381926Y0335733D01*
X0381926Y0345170D01*
X0381803Y0345628D01*
X0381926Y0343817D02*
X0386126Y0343817D01*
X0386126Y0342219D02*
X0381926Y0342219D01*
X0381926Y0340620D02*
X0386126Y0340620D01*
X0386126Y0339022D02*
X0381926Y0339022D01*
X0381926Y0337423D02*
X0386126Y0337423D01*
X0386126Y0335825D02*
X0381926Y0335825D01*
X0375926Y0335825D02*
X0374326Y0335825D01*
X0374326Y0337423D02*
X0375926Y0337423D01*
X0375926Y0339022D02*
X0374326Y0339022D01*
X0374326Y0340620D02*
X0375926Y0340620D01*
X0375926Y0342219D02*
X0374326Y0342219D01*
X0374326Y0343817D02*
X0375926Y0343817D01*
X0375926Y0345416D02*
X0374326Y0345416D01*
X0368326Y0340620D02*
X0344072Y0340620D01*
X0342577Y0339022D02*
X0368326Y0339022D01*
X0368326Y0337423D02*
X0341081Y0337423D01*
X0339586Y0335825D02*
X0368326Y0335825D01*
X0368326Y0332628D02*
X0336595Y0332628D01*
X0335100Y0331029D02*
X0368326Y0331029D01*
X0368326Y0329431D02*
X0333604Y0329431D01*
X0332109Y0327832D02*
X0368326Y0327832D01*
X0368326Y0326234D02*
X0330614Y0326234D01*
X0338091Y0334226D02*
X0374326Y0334226D01*
X0374326Y0332628D02*
X0375926Y0332628D01*
X0375926Y0331029D02*
X0374326Y0331029D01*
X0374326Y0329431D02*
X0375926Y0329431D01*
X0375926Y0327832D02*
X0374326Y0327832D01*
X0374326Y0326234D02*
X0375926Y0326234D01*
X0375926Y0324635D02*
X0374326Y0324635D01*
X0380884Y0321438D02*
X0386126Y0321438D01*
X0386126Y0319840D02*
X0381726Y0319840D01*
X0381726Y0318241D02*
X0386126Y0318241D01*
X0386126Y0316643D02*
X0381726Y0316643D01*
X0381726Y0315044D02*
X0386126Y0315044D01*
X0386126Y0313446D02*
X0381726Y0313446D01*
X0381726Y0311847D02*
X0386126Y0311847D01*
X0386126Y0310249D02*
X0381726Y0310249D01*
X0381726Y0308650D02*
X0386126Y0308650D01*
X0386126Y0307052D02*
X0381726Y0307052D01*
X0381726Y0305453D02*
X0386126Y0305453D01*
X0386126Y0303855D02*
X0381726Y0303855D01*
X0381726Y0302256D02*
X0386126Y0302256D01*
X0386126Y0300658D02*
X0381726Y0300658D01*
X0381515Y0299059D02*
X0386126Y0299059D01*
X0386126Y0297461D02*
X0345304Y0297461D01*
X0347467Y0299059D02*
X0368737Y0299059D01*
X0368526Y0300658D02*
X0349630Y0300658D01*
X0351793Y0302256D02*
X0368526Y0302256D01*
X0368526Y0303855D02*
X0353956Y0303855D01*
X0356119Y0305453D02*
X0368526Y0305453D01*
X0374126Y0308933D02*
X0357126Y0308933D01*
X0368792Y0295862D02*
X0343140Y0295862D01*
X0340977Y0294264D02*
X0368526Y0294264D01*
X0368526Y0292665D02*
X0338814Y0292665D01*
X0336651Y0291067D02*
X0368526Y0291067D01*
X0368526Y0289468D02*
X0334488Y0289468D01*
X0332325Y0287870D02*
X0368526Y0287870D01*
X0368526Y0281476D02*
X0358333Y0281476D01*
X0355351Y0279877D02*
X0368526Y0279877D01*
X0368526Y0278279D02*
X0352368Y0278279D01*
X0349386Y0276680D02*
X0368526Y0276680D01*
X0368526Y0275081D02*
X0346404Y0275081D01*
X0343422Y0273483D02*
X0369313Y0273483D01*
X0368526Y0270286D02*
X0337458Y0270286D01*
X0334476Y0268687D02*
X0368526Y0268687D01*
X0368526Y0267089D02*
X0331494Y0267089D01*
X0328512Y0265490D02*
X0368526Y0265490D01*
X0368526Y0263892D02*
X0325530Y0263892D01*
X0322548Y0262293D02*
X0361553Y0262293D01*
X0362126Y0259933D02*
X0375126Y0259933D01*
X0381726Y0260695D02*
X0386126Y0260695D01*
X0386126Y0262293D02*
X0381726Y0262293D01*
X0381726Y0263892D02*
X0386126Y0263892D01*
X0386126Y0265490D02*
X0381726Y0265490D01*
X0381726Y0267089D02*
X0386126Y0267089D01*
X0386126Y0268687D02*
X0381726Y0268687D01*
X0381726Y0270286D02*
X0386126Y0270286D01*
X0386126Y0271884D02*
X0340440Y0271884D01*
X0337091Y0275081D02*
X0315020Y0275081D01*
X0312857Y0273483D02*
X0334109Y0273483D01*
X0331127Y0271884D02*
X0310694Y0271884D01*
X0308531Y0270286D02*
X0328145Y0270286D01*
X0325163Y0268687D02*
X0306368Y0268687D01*
X0304205Y0267089D02*
X0322181Y0267089D01*
X0319199Y0265490D02*
X0302042Y0265490D01*
X0299879Y0263892D02*
X0316217Y0263892D01*
X0313235Y0262293D02*
X0297716Y0262293D01*
X0295553Y0260695D02*
X0310252Y0260695D01*
X0307270Y0259096D02*
X0293390Y0259096D01*
X0291227Y0257498D02*
X0304288Y0257498D01*
X0301306Y0255899D02*
X0289063Y0255899D01*
X0286900Y0254301D02*
X0298324Y0254301D01*
X0295342Y0252702D02*
X0284737Y0252702D01*
X0282574Y0251104D02*
X0292360Y0251104D01*
X0289378Y0249505D02*
X0280411Y0249505D01*
X0278248Y0247907D02*
X0286396Y0247907D01*
X0283414Y0246308D02*
X0276085Y0246308D01*
X0273922Y0244710D02*
X0280432Y0244710D01*
X0277450Y0243111D02*
X0271759Y0243111D01*
X0269596Y0241513D02*
X0274468Y0241513D01*
X0271486Y0239914D02*
X0267433Y0239914D01*
X0268503Y0238316D02*
X0265270Y0238316D01*
X0265521Y0236717D02*
X0263106Y0236717D01*
X0262539Y0235119D02*
X0260943Y0235119D01*
X0259557Y0233520D02*
X0258780Y0233520D01*
X0259924Y0228725D02*
X0261629Y0228725D01*
X0262906Y0230323D02*
X0266420Y0230323D01*
X0265888Y0231922D02*
X0271212Y0231922D01*
X0268870Y0233520D02*
X0276003Y0233520D01*
X0274835Y0236717D02*
X0285586Y0236717D01*
X0285115Y0231922D02*
X0322623Y0231922D01*
X0319868Y0227126D02*
X0368526Y0227126D01*
X0368526Y0225528D02*
X0307585Y0225528D01*
X0310339Y0230323D02*
X0280324Y0230323D01*
X0285773Y0227126D02*
X0270741Y0227126D01*
X0273489Y0225528D02*
X0265949Y0225528D01*
X0261206Y0223929D02*
X0261158Y0223929D01*
X0270735Y0220732D02*
X0368662Y0220732D01*
X0368526Y0219134D02*
X0275114Y0219134D01*
X0273827Y0212740D02*
X0298558Y0212740D01*
X0294056Y0217535D02*
X0368526Y0217535D01*
X0368526Y0215937D02*
X0312998Y0215937D01*
X0317500Y0211141D02*
X0279648Y0211141D01*
X0279616Y0214338D02*
X0268007Y0214338D01*
X0268854Y0209543D02*
X0264612Y0209543D01*
X0263033Y0211141D02*
X0261049Y0211141D01*
X0257426Y0207944D02*
X0256949Y0207944D01*
X0259420Y0206345D02*
X0260989Y0206345D01*
X0261891Y0204747D02*
X0264552Y0204747D01*
X0264362Y0203148D02*
X0268115Y0203148D01*
X0266833Y0201550D02*
X0271678Y0201550D01*
X0269305Y0199951D02*
X0275241Y0199951D01*
X0274247Y0196754D02*
X0282367Y0196754D01*
X0285930Y0195156D02*
X0276718Y0195156D01*
X0279189Y0193557D02*
X0289493Y0193557D01*
X0293056Y0191959D02*
X0281660Y0191959D01*
X0284131Y0190360D02*
X0296619Y0190360D01*
X0300182Y0188762D02*
X0286602Y0188762D01*
X0289073Y0187163D02*
X0303745Y0187163D01*
X0307307Y0185565D02*
X0291544Y0185565D01*
X0294015Y0183966D02*
X0310870Y0183966D01*
X0314433Y0182368D02*
X0296486Y0182368D01*
X0298958Y0180769D02*
X0317996Y0180769D01*
X0321559Y0179171D02*
X0301429Y0179171D01*
X0303900Y0177572D02*
X0325122Y0177572D01*
X0328685Y0175974D02*
X0306371Y0175974D01*
X0308842Y0174375D02*
X0332248Y0174375D01*
X0335811Y0172777D02*
X0311313Y0172777D01*
X0313784Y0171178D02*
X0339374Y0171178D01*
X0342937Y0169580D02*
X0316255Y0169580D01*
X0318726Y0167981D02*
X0346500Y0167981D01*
X0350063Y0166383D02*
X0321197Y0166383D01*
X0323668Y0164784D02*
X0353626Y0164784D01*
X0357189Y0163186D02*
X0326139Y0163186D01*
X0328611Y0161587D02*
X0360752Y0161587D01*
X0363126Y0162933D02*
X0372126Y0162933D01*
X0375126Y0159933D01*
X0381726Y0159989D02*
X0386126Y0159989D01*
X0386126Y0161587D02*
X0381726Y0161587D01*
X0381726Y0163186D02*
X0386126Y0163186D01*
X0386126Y0164784D02*
X0381726Y0164784D01*
X0381726Y0166383D02*
X0386126Y0166383D01*
X0386126Y0167981D02*
X0381726Y0167981D01*
X0381726Y0169580D02*
X0386126Y0169580D01*
X0386126Y0171178D02*
X0381144Y0171178D01*
X0381726Y0174375D02*
X0386126Y0174375D01*
X0386126Y0172777D02*
X0346560Y0172777D01*
X0342997Y0174375D02*
X0368526Y0174375D01*
X0368526Y0175974D02*
X0339434Y0175974D01*
X0335871Y0177572D02*
X0368526Y0177572D01*
X0368526Y0179171D02*
X0332308Y0179171D01*
X0328745Y0180769D02*
X0368526Y0180769D01*
X0368526Y0182368D02*
X0325182Y0182368D01*
X0321619Y0183966D02*
X0361699Y0183966D01*
X0363126Y0185933D02*
X0374126Y0185933D01*
X0375126Y0184933D01*
X0381726Y0185565D02*
X0386126Y0185565D01*
X0386126Y0187163D02*
X0381726Y0187163D01*
X0381726Y0188762D02*
X0386126Y0188762D01*
X0386126Y0190360D02*
X0381726Y0190360D01*
X0381726Y0191959D02*
X0386126Y0191959D01*
X0386126Y0193557D02*
X0381726Y0193557D01*
X0381726Y0195156D02*
X0386126Y0195156D01*
X0386126Y0196754D02*
X0332031Y0196754D01*
X0332878Y0191959D02*
X0303805Y0191959D01*
X0307368Y0190360D02*
X0338699Y0190360D01*
X0337852Y0195156D02*
X0368526Y0195156D01*
X0368526Y0193557D02*
X0343672Y0193557D01*
X0344519Y0188762D02*
X0310931Y0188762D01*
X0314494Y0187163D02*
X0350339Y0187163D01*
X0349492Y0191959D02*
X0368526Y0191959D01*
X0368526Y0190360D02*
X0355313Y0190360D01*
X0361133Y0188762D02*
X0368526Y0188762D01*
X0369444Y0198353D02*
X0326211Y0198353D01*
X0321237Y0195156D02*
X0296679Y0195156D01*
X0300242Y0193557D02*
X0327058Y0193557D01*
X0320390Y0199951D02*
X0368526Y0199951D01*
X0368526Y0201550D02*
X0314570Y0201550D01*
X0315417Y0196754D02*
X0293116Y0196754D01*
X0289553Y0198353D02*
X0309597Y0198353D01*
X0308750Y0203148D02*
X0368526Y0203148D01*
X0368526Y0204747D02*
X0302929Y0204747D01*
X0303776Y0199951D02*
X0285990Y0199951D01*
X0282427Y0201550D02*
X0297956Y0201550D01*
X0297109Y0206345D02*
X0368526Y0206345D01*
X0368526Y0207944D02*
X0291288Y0207944D01*
X0292135Y0203148D02*
X0278864Y0203148D01*
X0280495Y0206345D02*
X0271738Y0206345D01*
X0274674Y0207944D02*
X0268175Y0207944D01*
X0275301Y0204747D02*
X0286315Y0204747D01*
X0285468Y0209543D02*
X0336442Y0209543D01*
X0331940Y0214338D02*
X0368526Y0214338D01*
X0374126Y0210933D02*
X0346126Y0210933D01*
X0345126Y0210933D01*
X0344435Y0230323D02*
X0368526Y0230323D01*
X0368526Y0228725D02*
X0332151Y0228725D01*
X0334906Y0233520D02*
X0289907Y0233520D01*
X0290378Y0238316D02*
X0277817Y0238316D01*
X0280799Y0239914D02*
X0295169Y0239914D01*
X0294698Y0235119D02*
X0347189Y0235119D01*
X0355126Y0233933D02*
X0374126Y0233933D01*
X0375126Y0234933D01*
X0381726Y0235119D02*
X0386126Y0235119D01*
X0386126Y0236717D02*
X0381726Y0236717D01*
X0381726Y0238316D02*
X0386126Y0238316D01*
X0386126Y0239914D02*
X0381726Y0239914D01*
X0381726Y0241513D02*
X0386126Y0241513D01*
X0386126Y0243111D02*
X0381726Y0243111D01*
X0381726Y0244710D02*
X0386126Y0244710D01*
X0386126Y0246308D02*
X0381014Y0246308D01*
X0381726Y0249505D02*
X0386126Y0249505D01*
X0386126Y0247907D02*
X0333030Y0247907D01*
X0333501Y0252702D02*
X0304655Y0252702D01*
X0301673Y0251104D02*
X0328709Y0251104D01*
X0323918Y0249505D02*
X0298691Y0249505D01*
X0295709Y0247907D02*
X0319126Y0247907D01*
X0318655Y0243111D02*
X0368526Y0243111D01*
X0368526Y0241513D02*
X0313864Y0241513D01*
X0314335Y0246308D02*
X0292727Y0246308D01*
X0289745Y0244710D02*
X0309543Y0244710D01*
X0309072Y0239914D02*
X0368526Y0239914D01*
X0368526Y0238316D02*
X0304281Y0238316D01*
X0299961Y0241513D02*
X0283781Y0241513D01*
X0286763Y0243111D02*
X0304752Y0243111D01*
X0299489Y0236717D02*
X0368526Y0236717D01*
X0368526Y0244710D02*
X0323447Y0244710D01*
X0328238Y0246308D02*
X0369239Y0246308D01*
X0368526Y0249505D02*
X0337821Y0249505D01*
X0338292Y0254301D02*
X0307637Y0254301D01*
X0310619Y0255899D02*
X0343084Y0255899D01*
X0342613Y0251104D02*
X0368526Y0251104D01*
X0368526Y0252702D02*
X0347404Y0252702D01*
X0347875Y0257498D02*
X0313602Y0257498D01*
X0316584Y0259096D02*
X0352667Y0259096D01*
X0357458Y0260695D02*
X0319566Y0260695D01*
X0317183Y0276680D02*
X0340073Y0276680D01*
X0343055Y0278279D02*
X0319347Y0278279D01*
X0321510Y0279877D02*
X0346037Y0279877D01*
X0349019Y0281476D02*
X0323673Y0281476D01*
X0325836Y0283074D02*
X0352001Y0283074D01*
X0354984Y0284673D02*
X0327999Y0284673D01*
X0330162Y0286271D02*
X0357966Y0286271D01*
X0360126Y0284933D02*
X0375126Y0284933D01*
X0381726Y0284673D02*
X0386126Y0284673D01*
X0386126Y0286271D02*
X0381726Y0286271D01*
X0381726Y0287870D02*
X0386126Y0287870D01*
X0386126Y0289468D02*
X0381726Y0289468D01*
X0381726Y0291067D02*
X0386126Y0291067D01*
X0386126Y0292665D02*
X0381726Y0292665D01*
X0381726Y0294264D02*
X0386126Y0294264D01*
X0386126Y0295862D02*
X0381460Y0295862D01*
X0374126Y0308933D02*
X0375126Y0309933D01*
X0381726Y0283074D02*
X0386126Y0283074D01*
X0386126Y0281476D02*
X0381726Y0281476D01*
X0381726Y0279877D02*
X0386126Y0279877D01*
X0386126Y0278279D02*
X0381726Y0278279D01*
X0381726Y0276680D02*
X0386126Y0276680D01*
X0386126Y0275081D02*
X0381726Y0275081D01*
X0380939Y0273483D02*
X0386126Y0273483D01*
X0386126Y0259096D02*
X0381726Y0259096D01*
X0381726Y0257498D02*
X0386126Y0257498D01*
X0386126Y0255899D02*
X0381726Y0255899D01*
X0381726Y0254301D02*
X0386126Y0254301D01*
X0386126Y0252702D02*
X0381726Y0252702D01*
X0381726Y0251104D02*
X0386126Y0251104D01*
X0368526Y0254301D02*
X0352195Y0254301D01*
X0356987Y0255899D02*
X0368526Y0255899D01*
X0368526Y0257498D02*
X0361778Y0257498D01*
X0381726Y0233520D02*
X0386126Y0233520D01*
X0386126Y0231922D02*
X0381726Y0231922D01*
X0381726Y0230323D02*
X0386126Y0230323D01*
X0386126Y0228725D02*
X0381726Y0228725D01*
X0381726Y0227126D02*
X0386126Y0227126D01*
X0386126Y0225528D02*
X0381726Y0225528D01*
X0381385Y0223929D02*
X0386126Y0223929D01*
X0386126Y0222331D02*
X0283018Y0222331D01*
X0275532Y0228725D02*
X0298056Y0228725D01*
X0295301Y0223929D02*
X0368867Y0223929D01*
X0381590Y0220732D02*
X0386126Y0220732D01*
X0386126Y0219134D02*
X0381726Y0219134D01*
X0381726Y0217535D02*
X0386126Y0217535D01*
X0386126Y0215937D02*
X0381726Y0215937D01*
X0381726Y0214338D02*
X0386126Y0214338D01*
X0386126Y0212740D02*
X0381726Y0212740D01*
X0381726Y0211141D02*
X0386126Y0211141D01*
X0386126Y0209543D02*
X0381726Y0209543D01*
X0381726Y0207944D02*
X0386126Y0207944D01*
X0386126Y0206345D02*
X0381726Y0206345D01*
X0381726Y0204747D02*
X0386126Y0204747D01*
X0386126Y0203148D02*
X0381726Y0203148D01*
X0381726Y0201550D02*
X0386126Y0201550D01*
X0386126Y0199951D02*
X0381726Y0199951D01*
X0380809Y0198353D02*
X0386126Y0198353D01*
X0375126Y0209933D02*
X0374126Y0210933D01*
X0381726Y0183966D02*
X0386126Y0183966D01*
X0386126Y0182368D02*
X0381726Y0182368D01*
X0381726Y0180769D02*
X0386126Y0180769D01*
X0386126Y0179171D02*
X0381726Y0179171D01*
X0381726Y0177572D02*
X0386126Y0177572D01*
X0386126Y0175974D02*
X0381726Y0175974D01*
X0369109Y0171178D02*
X0350123Y0171178D01*
X0353686Y0169580D02*
X0368526Y0169580D01*
X0368526Y0167981D02*
X0357249Y0167981D01*
X0360812Y0166383D02*
X0368526Y0166383D01*
X0368526Y0159989D02*
X0331082Y0159989D01*
X0333553Y0158390D02*
X0368526Y0158390D01*
X0368526Y0156792D02*
X0336024Y0156792D01*
X0338495Y0155193D02*
X0368526Y0155193D01*
X0368526Y0153595D02*
X0340966Y0153595D01*
X0343437Y0151996D02*
X0368526Y0151996D01*
X0368526Y0150398D02*
X0345908Y0150398D01*
X0348379Y0148799D02*
X0368997Y0148799D01*
X0368532Y0145602D02*
X0353321Y0145602D01*
X0350850Y0147201D02*
X0386126Y0147201D01*
X0386126Y0148799D02*
X0381255Y0148799D01*
X0381726Y0150398D02*
X0386126Y0150398D01*
X0386126Y0151996D02*
X0381726Y0151996D01*
X0381726Y0153595D02*
X0386126Y0153595D01*
X0386126Y0155193D02*
X0381726Y0155193D01*
X0381726Y0156792D02*
X0386126Y0156792D01*
X0386126Y0158390D02*
X0381726Y0158390D01*
X0381720Y0145602D02*
X0386126Y0145602D01*
X0386126Y0144004D02*
X0381726Y0144004D01*
X0381726Y0142405D02*
X0386126Y0142405D01*
X0386126Y0140807D02*
X0381726Y0140807D01*
X0381726Y0139208D02*
X0386126Y0139208D01*
X0386126Y0137610D02*
X0381726Y0137610D01*
X0381726Y0136011D02*
X0386126Y0136011D01*
X0386126Y0134412D02*
X0381726Y0134412D01*
X0381726Y0132814D02*
X0386126Y0132814D01*
X0386126Y0131215D02*
X0381726Y0131215D01*
X0381726Y0129617D02*
X0386126Y0129617D01*
X0386126Y0128018D02*
X0381726Y0128018D01*
X0381726Y0126420D02*
X0386126Y0126420D01*
X0386126Y0124821D02*
X0381726Y0124821D01*
X0386126Y0123223D02*
X0351641Y0123223D01*
X0349726Y0124821D02*
X0368526Y0124821D01*
X0368526Y0126420D02*
X0347812Y0126420D01*
X0345897Y0128018D02*
X0368526Y0128018D01*
X0368526Y0129617D02*
X0343983Y0129617D01*
X0342068Y0131215D02*
X0368526Y0131215D01*
X0368526Y0132814D02*
X0340153Y0132814D01*
X0338239Y0134412D02*
X0368526Y0134412D01*
X0372126Y0137933D02*
X0361126Y0137933D01*
X0359654Y0136011D02*
X0336324Y0136011D01*
X0334410Y0137610D02*
X0357576Y0137610D01*
X0355105Y0139208D02*
X0332495Y0139208D01*
X0330580Y0140807D02*
X0352634Y0140807D01*
X0350163Y0142405D02*
X0328666Y0142405D01*
X0326751Y0144004D02*
X0347692Y0144004D01*
X0345220Y0145602D02*
X0324837Y0145602D01*
X0322922Y0147201D02*
X0342749Y0147201D01*
X0340278Y0148799D02*
X0321007Y0148799D01*
X0319093Y0150398D02*
X0337807Y0150398D01*
X0335336Y0151996D02*
X0317178Y0151996D01*
X0315264Y0153595D02*
X0332865Y0153595D01*
X0330394Y0155193D02*
X0313349Y0155193D01*
X0311434Y0156792D02*
X0327923Y0156792D01*
X0325452Y0158390D02*
X0309520Y0158390D01*
X0307605Y0159989D02*
X0322981Y0159989D01*
X0320510Y0161587D02*
X0305690Y0161587D01*
X0303776Y0163186D02*
X0318039Y0163186D01*
X0315567Y0164784D02*
X0301861Y0164784D01*
X0299947Y0166383D02*
X0313096Y0166383D01*
X0310625Y0167981D02*
X0298032Y0167981D01*
X0296117Y0169580D02*
X0308154Y0169580D01*
X0305683Y0171178D02*
X0294203Y0171178D01*
X0292288Y0172777D02*
X0303212Y0172777D01*
X0300741Y0174375D02*
X0290374Y0174375D01*
X0288459Y0175974D02*
X0298270Y0175974D01*
X0295799Y0177572D02*
X0286544Y0177572D01*
X0284630Y0179171D02*
X0293328Y0179171D01*
X0290857Y0180769D02*
X0282715Y0180769D01*
X0280801Y0182368D02*
X0288386Y0182368D01*
X0285914Y0183966D02*
X0278886Y0183966D01*
X0276971Y0185565D02*
X0283443Y0185565D01*
X0280972Y0187163D02*
X0275057Y0187163D01*
X0273142Y0188762D02*
X0278501Y0188762D01*
X0276030Y0190360D02*
X0271228Y0190360D01*
X0269313Y0191959D02*
X0273559Y0191959D01*
X0271088Y0193557D02*
X0267398Y0193557D01*
X0268617Y0195156D02*
X0265484Y0195156D01*
X0266146Y0196754D02*
X0263569Y0196754D01*
X0263675Y0198353D02*
X0261655Y0198353D01*
X0261204Y0199951D02*
X0259740Y0199951D01*
X0258733Y0201550D02*
X0257825Y0201550D01*
X0256262Y0203148D02*
X0255911Y0203148D01*
X0252875Y0199951D02*
X0249219Y0199951D01*
X0250818Y0198353D02*
X0254789Y0198353D01*
X0256704Y0196754D02*
X0252416Y0196754D01*
X0254015Y0195156D02*
X0258618Y0195156D01*
X0260533Y0193557D02*
X0255613Y0193557D01*
X0257212Y0191959D02*
X0262448Y0191959D01*
X0264362Y0190360D02*
X0258810Y0190360D01*
X0260409Y0188762D02*
X0266277Y0188762D01*
X0268191Y0187163D02*
X0262007Y0187163D01*
X0263606Y0185565D02*
X0270106Y0185565D01*
X0272021Y0183966D02*
X0265204Y0183966D01*
X0266803Y0182368D02*
X0273935Y0182368D01*
X0275850Y0180769D02*
X0268401Y0180769D01*
X0270000Y0179171D02*
X0277764Y0179171D01*
X0279679Y0177572D02*
X0271598Y0177572D01*
X0273197Y0175974D02*
X0281594Y0175974D01*
X0283508Y0174375D02*
X0274795Y0174375D01*
X0276394Y0172777D02*
X0285423Y0172777D01*
X0287338Y0171178D02*
X0277992Y0171178D01*
X0279591Y0169580D02*
X0289252Y0169580D01*
X0291167Y0167981D02*
X0281189Y0167981D01*
X0282788Y0166383D02*
X0293081Y0166383D01*
X0294996Y0164784D02*
X0284386Y0164784D01*
X0285985Y0163186D02*
X0296911Y0163186D01*
X0298825Y0161587D02*
X0287583Y0161587D01*
X0289182Y0159989D02*
X0300740Y0159989D01*
X0302654Y0158390D02*
X0290780Y0158390D01*
X0292379Y0156792D02*
X0304569Y0156792D01*
X0306484Y0155193D02*
X0293977Y0155193D01*
X0295576Y0153595D02*
X0308398Y0153595D01*
X0310313Y0151996D02*
X0297174Y0151996D01*
X0298773Y0150398D02*
X0312227Y0150398D01*
X0314142Y0148799D02*
X0300371Y0148799D01*
X0301970Y0147201D02*
X0316057Y0147201D01*
X0317971Y0145602D02*
X0303568Y0145602D01*
X0305167Y0144004D02*
X0319886Y0144004D01*
X0321800Y0142405D02*
X0306765Y0142405D01*
X0308364Y0140807D02*
X0323715Y0140807D01*
X0325630Y0139208D02*
X0309962Y0139208D01*
X0311561Y0137610D02*
X0327544Y0137610D01*
X0329459Y0136011D02*
X0313159Y0136011D01*
X0314758Y0134412D02*
X0331373Y0134412D01*
X0333288Y0132814D02*
X0316356Y0132814D01*
X0317955Y0131215D02*
X0335203Y0131215D01*
X0337117Y0129617D02*
X0319554Y0129617D01*
X0321152Y0128018D02*
X0339032Y0128018D01*
X0340946Y0126420D02*
X0322751Y0126420D01*
X0324349Y0124821D02*
X0342861Y0124821D01*
X0344776Y0123223D02*
X0325948Y0123223D01*
X0327546Y0121624D02*
X0346690Y0121624D01*
X0348605Y0120026D02*
X0329145Y0120026D01*
X0330743Y0118427D02*
X0350519Y0118427D01*
X0352434Y0116829D02*
X0332342Y0116829D01*
X0333940Y0115230D02*
X0354349Y0115230D01*
X0356263Y0113632D02*
X0335539Y0113632D01*
X0337137Y0112033D02*
X0358178Y0112033D01*
X0360092Y0110435D02*
X0338736Y0110435D01*
X0340334Y0108836D02*
X0361983Y0108836D01*
X0364126Y0109933D02*
X0375126Y0109933D01*
X0381726Y0110435D02*
X0386126Y0110435D01*
X0386126Y0112033D02*
X0381726Y0112033D01*
X0381726Y0113632D02*
X0386126Y0113632D01*
X0386126Y0115230D02*
X0381726Y0115230D01*
X0381726Y0116829D02*
X0386126Y0116829D01*
X0386126Y0118427D02*
X0381726Y0118427D01*
X0381726Y0120026D02*
X0386126Y0120026D01*
X0386126Y0121624D02*
X0353556Y0121624D01*
X0355470Y0120026D02*
X0368526Y0120026D01*
X0368526Y0118427D02*
X0357385Y0118427D01*
X0359299Y0116829D02*
X0368526Y0116829D01*
X0368526Y0115230D02*
X0361214Y0115230D01*
X0363129Y0113632D02*
X0368526Y0113632D01*
X0368526Y0107238D02*
X0341933Y0107238D01*
X0343531Y0105639D02*
X0368526Y0105639D01*
X0368526Y0104041D02*
X0345130Y0104041D01*
X0346728Y0102442D02*
X0368526Y0102442D01*
X0368526Y0100844D02*
X0348327Y0100844D01*
X0349925Y0099245D02*
X0368551Y0099245D01*
X0368979Y0096048D02*
X0353122Y0096048D01*
X0351524Y0097647D02*
X0386126Y0097647D01*
X0386126Y0099245D02*
X0381701Y0099245D01*
X0381726Y0100844D02*
X0386126Y0100844D01*
X0386126Y0102442D02*
X0381726Y0102442D01*
X0381726Y0104041D02*
X0386126Y0104041D01*
X0386126Y0105639D02*
X0381726Y0105639D01*
X0381726Y0107238D02*
X0386126Y0107238D01*
X0386126Y0108836D02*
X0381726Y0108836D01*
X0381274Y0096048D02*
X0386126Y0096048D01*
X0386126Y0094450D02*
X0381726Y0094450D01*
X0381726Y0092851D02*
X0386126Y0092851D01*
X0386126Y0091253D02*
X0381726Y0091253D01*
X0381726Y0089654D02*
X0386126Y0089654D01*
X0386126Y0088056D02*
X0381726Y0088056D01*
X0381726Y0086457D02*
X0386126Y0086457D01*
X0386126Y0084859D02*
X0381726Y0084859D01*
X0381726Y0083260D02*
X0386126Y0083260D01*
X0386126Y0081662D02*
X0381726Y0081662D01*
X0381726Y0080063D02*
X0386126Y0080063D01*
X0386126Y0078465D02*
X0381726Y0078465D01*
X0381726Y0076866D02*
X0386126Y0076866D01*
X0386126Y0075268D02*
X0381726Y0075268D01*
X0381125Y0073669D02*
X0386126Y0073669D01*
X0386126Y0072071D02*
X0352137Y0072071D01*
X0350653Y0073669D02*
X0369127Y0073669D01*
X0368526Y0075268D02*
X0349170Y0075268D01*
X0347686Y0076866D02*
X0368526Y0076866D01*
X0368526Y0078465D02*
X0346203Y0078465D01*
X0344720Y0080063D02*
X0368526Y0080063D01*
X0368526Y0081662D02*
X0343236Y0081662D01*
X0341753Y0083260D02*
X0368526Y0083260D01*
X0374126Y0085933D02*
X0360126Y0085933D01*
X0357973Y0084859D02*
X0340269Y0084859D01*
X0338786Y0086457D02*
X0356491Y0086457D01*
X0354892Y0088056D02*
X0337303Y0088056D01*
X0335819Y0089654D02*
X0353294Y0089654D01*
X0351695Y0091253D02*
X0334336Y0091253D01*
X0332852Y0092851D02*
X0350097Y0092851D01*
X0348498Y0094450D02*
X0331369Y0094450D01*
X0329885Y0096048D02*
X0346900Y0096048D01*
X0345301Y0097647D02*
X0328402Y0097647D01*
X0326919Y0099245D02*
X0343703Y0099245D01*
X0342104Y0100844D02*
X0325435Y0100844D01*
X0323952Y0102442D02*
X0340506Y0102442D01*
X0338907Y0104041D02*
X0322468Y0104041D01*
X0320985Y0105639D02*
X0337309Y0105639D01*
X0335710Y0107238D02*
X0319502Y0107238D01*
X0318018Y0108836D02*
X0334112Y0108836D01*
X0332513Y0110435D02*
X0316535Y0110435D01*
X0315051Y0112033D02*
X0330915Y0112033D01*
X0329316Y0113632D02*
X0313568Y0113632D01*
X0312084Y0115230D02*
X0327718Y0115230D01*
X0326119Y0116829D02*
X0310601Y0116829D01*
X0309118Y0118427D02*
X0324521Y0118427D01*
X0322922Y0120026D02*
X0307634Y0120026D01*
X0306151Y0121624D02*
X0321324Y0121624D01*
X0319725Y0123223D02*
X0304667Y0123223D01*
X0303184Y0124821D02*
X0318127Y0124821D01*
X0316528Y0126420D02*
X0301701Y0126420D01*
X0300217Y0128018D02*
X0314929Y0128018D01*
X0313331Y0129617D02*
X0298734Y0129617D01*
X0297250Y0131215D02*
X0311732Y0131215D01*
X0310134Y0132814D02*
X0295767Y0132814D01*
X0294283Y0134412D02*
X0308535Y0134412D01*
X0306937Y0136011D02*
X0292800Y0136011D01*
X0291317Y0137610D02*
X0305338Y0137610D01*
X0303740Y0139208D02*
X0289833Y0139208D01*
X0288350Y0140807D02*
X0302141Y0140807D01*
X0300543Y0142405D02*
X0286866Y0142405D01*
X0285383Y0144004D02*
X0298944Y0144004D01*
X0297346Y0145602D02*
X0283899Y0145602D01*
X0282416Y0147201D02*
X0295747Y0147201D01*
X0294149Y0148799D02*
X0280933Y0148799D01*
X0279449Y0150398D02*
X0292550Y0150398D01*
X0290952Y0151996D02*
X0277966Y0151996D01*
X0276482Y0153595D02*
X0289353Y0153595D01*
X0287755Y0155193D02*
X0274999Y0155193D01*
X0273516Y0156792D02*
X0286156Y0156792D01*
X0284558Y0158390D02*
X0272032Y0158390D01*
X0270549Y0159989D02*
X0282959Y0159989D01*
X0281361Y0161587D02*
X0269065Y0161587D01*
X0267582Y0163186D02*
X0279762Y0163186D01*
X0278164Y0164784D02*
X0266098Y0164784D01*
X0264615Y0166383D02*
X0276565Y0166383D01*
X0274967Y0167981D02*
X0263132Y0167981D01*
X0261648Y0169580D02*
X0273368Y0169580D01*
X0271770Y0171178D02*
X0260165Y0171178D01*
X0258681Y0172777D02*
X0270171Y0172777D01*
X0268573Y0174375D02*
X0257198Y0174375D01*
X0255715Y0175974D02*
X0266974Y0175974D01*
X0265376Y0177572D02*
X0254231Y0177572D01*
X0252748Y0179171D02*
X0263777Y0179171D01*
X0262179Y0180769D02*
X0251264Y0180769D01*
X0249781Y0182368D02*
X0260580Y0182368D01*
X0258982Y0183966D02*
X0248297Y0183966D01*
X0246814Y0185565D02*
X0257383Y0185565D01*
X0255785Y0187163D02*
X0245290Y0187163D01*
X0243691Y0188762D02*
X0254186Y0188762D01*
X0252588Y0190360D02*
X0242093Y0190360D01*
X0240494Y0191959D02*
X0250989Y0191959D01*
X0249391Y0193557D02*
X0238896Y0193557D01*
X0237297Y0195156D02*
X0247792Y0195156D01*
X0246193Y0196754D02*
X0235699Y0196754D01*
X0234100Y0198353D02*
X0244595Y0198353D01*
X0242996Y0199951D02*
X0233153Y0199951D01*
X0233153Y0201550D02*
X0241398Y0201550D01*
X0240926Y0203148D02*
X0233153Y0203148D01*
X0233164Y0204747D02*
X0240926Y0204747D01*
X0239602Y0206345D02*
X0233180Y0206345D01*
X0231126Y0208933D02*
X0209126Y0208933D01*
X0209126Y0230933D01*
X0231126Y0230933D01*
X0231126Y0208933D01*
X0231126Y0209543D02*
X0209126Y0209543D01*
X0209126Y0211141D02*
X0231126Y0211141D01*
X0231126Y0209933D02*
X0228126Y0210933D01*
X0226126Y0210933D01*
X0222047Y0215012D01*
X0220126Y0215012D01*
X0220126Y0222933D01*
X0220726Y0224133D01*
X0214099Y0230760D01*
X0209126Y0230323D02*
X0231126Y0230323D01*
X0231126Y0228725D02*
X0209126Y0228725D01*
X0209126Y0227126D02*
X0231126Y0227126D01*
X0231126Y0225528D02*
X0209126Y0225528D01*
X0209126Y0223929D02*
X0231126Y0223929D01*
X0231126Y0222331D02*
X0209126Y0222331D01*
X0209126Y0220732D02*
X0231126Y0220732D01*
X0231126Y0219134D02*
X0209126Y0219134D01*
X0209126Y0217535D02*
X0231126Y0217535D01*
X0231126Y0215937D02*
X0209126Y0215937D01*
X0209126Y0214338D02*
X0231126Y0214338D01*
X0231126Y0212740D02*
X0209126Y0212740D01*
X0207109Y0206345D02*
X0201650Y0206345D01*
X0200326Y0204747D02*
X0207109Y0204747D01*
X0206122Y0190360D02*
X0205665Y0190360D01*
X0205048Y0188762D02*
X0204066Y0188762D01*
X0203974Y0187163D02*
X0202812Y0187163D01*
X0202900Y0185565D02*
X0202213Y0185565D01*
X0202714Y0183966D02*
X0201613Y0183966D01*
X0201014Y0182368D02*
X0202424Y0182368D01*
X0202133Y0180769D02*
X0200533Y0180769D01*
X0199764Y0179171D02*
X0201842Y0179171D01*
X0201552Y0177572D02*
X0198271Y0177572D01*
X0196779Y0175974D02*
X0201261Y0175974D01*
X0200339Y0174375D02*
X0195286Y0174375D01*
X0193793Y0172777D02*
X0198961Y0172777D01*
X0197583Y0171178D02*
X0192300Y0171178D01*
X0190807Y0169580D02*
X0196205Y0169580D01*
X0194827Y0167981D02*
X0189314Y0167981D01*
X0187822Y0166383D02*
X0193449Y0166383D01*
X0192070Y0164784D02*
X0186329Y0164784D01*
X0184836Y0163186D02*
X0190692Y0163186D01*
X0189314Y0161587D02*
X0183343Y0161587D01*
X0181850Y0159989D02*
X0187936Y0159989D01*
X0186558Y0158390D02*
X0180357Y0158390D01*
X0178865Y0156792D02*
X0185180Y0156792D01*
X0183802Y0155193D02*
X0177372Y0155193D01*
X0175879Y0153595D02*
X0182424Y0153595D01*
X0181046Y0151996D02*
X0174386Y0151996D01*
X0172893Y0150398D02*
X0179668Y0150398D01*
X0178290Y0148799D02*
X0171401Y0148799D01*
X0169908Y0147201D02*
X0176912Y0147201D01*
X0175534Y0145602D02*
X0168415Y0145602D01*
X0166922Y0144004D02*
X0174156Y0144004D01*
X0172778Y0142405D02*
X0165429Y0142405D01*
X0163936Y0140807D02*
X0171400Y0140807D01*
X0170022Y0139208D02*
X0162444Y0139208D01*
X0160951Y0137610D02*
X0168644Y0137610D01*
X0167266Y0136011D02*
X0159458Y0136011D01*
X0157965Y0134412D02*
X0165888Y0134412D01*
X0164510Y0132814D02*
X0156472Y0132814D01*
X0154979Y0131215D02*
X0163132Y0131215D01*
X0161754Y0129617D02*
X0153487Y0129617D01*
X0151994Y0128018D02*
X0160376Y0128018D01*
X0158998Y0126420D02*
X0150501Y0126420D01*
X0149008Y0124821D02*
X0157620Y0124821D01*
X0156242Y0123223D02*
X0147515Y0123223D01*
X0146023Y0121624D02*
X0154864Y0121624D01*
X0153486Y0120026D02*
X0144530Y0120026D01*
X0143037Y0118427D02*
X0152108Y0118427D01*
X0150730Y0116829D02*
X0141544Y0116829D01*
X0140051Y0115230D02*
X0149352Y0115230D01*
X0147974Y0113632D02*
X0138558Y0113632D01*
X0137066Y0112033D02*
X0146596Y0112033D01*
X0145218Y0110435D02*
X0135573Y0110435D01*
X0134080Y0108836D02*
X0143840Y0108836D01*
X0142462Y0107238D02*
X0132587Y0107238D01*
X0131094Y0105639D02*
X0141084Y0105639D01*
X0139705Y0104041D02*
X0129601Y0104041D01*
X0128109Y0102442D02*
X0138327Y0102442D01*
X0136949Y0100844D02*
X0126616Y0100844D01*
X0125123Y0099245D02*
X0135571Y0099245D01*
X0134193Y0097647D02*
X0123630Y0097647D01*
X0122137Y0096048D02*
X0132815Y0096048D01*
X0131437Y0094450D02*
X0120644Y0094450D01*
X0119152Y0092851D02*
X0130059Y0092851D01*
X0128681Y0091253D02*
X0117659Y0091253D01*
X0116166Y0089654D02*
X0127303Y0089654D01*
X0125927Y0088056D02*
X0114673Y0088056D01*
X0113180Y0086457D02*
X0124557Y0086457D01*
X0123187Y0084859D02*
X0111688Y0084859D01*
X0110195Y0083260D02*
X0121817Y0083260D01*
X0120428Y0081662D02*
X0108702Y0081662D01*
X0107209Y0080063D02*
X0119405Y0080063D01*
X0118446Y0078465D02*
X0105716Y0078465D01*
X0104223Y0076866D02*
X0117487Y0076866D01*
X0116528Y0075268D02*
X0102731Y0075268D01*
X0101238Y0073669D02*
X0115569Y0073669D01*
X0114610Y0072071D02*
X0099745Y0072071D01*
X0098252Y0070472D02*
X0113651Y0070472D01*
X0112692Y0068874D02*
X0096759Y0068874D01*
X0095266Y0067275D02*
X0111732Y0067275D01*
X0117330Y0067275D02*
X0134726Y0067275D01*
X0134726Y0068874D02*
X0118289Y0068874D01*
X0119248Y0070472D02*
X0134726Y0070472D01*
X0134726Y0072071D02*
X0120207Y0072071D01*
X0121167Y0073669D02*
X0134726Y0073669D01*
X0134726Y0075268D02*
X0122126Y0075268D01*
X0123085Y0076866D02*
X0134895Y0076866D01*
X0136064Y0078465D02*
X0124044Y0078465D01*
X0125399Y0080063D02*
X0137321Y0080063D01*
X0138578Y0081662D02*
X0126769Y0081662D01*
X0128139Y0083260D02*
X0139836Y0083260D01*
X0141093Y0084859D02*
X0129509Y0084859D01*
X0130885Y0086457D02*
X0142350Y0086457D01*
X0143607Y0088056D02*
X0132263Y0088056D01*
X0133641Y0089654D02*
X0144865Y0089654D01*
X0146122Y0091253D02*
X0135019Y0091253D01*
X0136397Y0092851D02*
X0147379Y0092851D01*
X0148636Y0094450D02*
X0137775Y0094450D01*
X0139153Y0096048D02*
X0149894Y0096048D01*
X0151151Y0097647D02*
X0140531Y0097647D01*
X0141909Y0099245D02*
X0152408Y0099245D01*
X0153665Y0100844D02*
X0143287Y0100844D01*
X0144665Y0102442D02*
X0154923Y0102442D01*
X0156180Y0104041D02*
X0146043Y0104041D01*
X0147421Y0105639D02*
X0157437Y0105639D01*
X0158694Y0107238D02*
X0148799Y0107238D01*
X0150177Y0108836D02*
X0159952Y0108836D01*
X0161209Y0110435D02*
X0151555Y0110435D01*
X0152933Y0112033D02*
X0162466Y0112033D01*
X0163723Y0113632D02*
X0154311Y0113632D01*
X0155689Y0115230D02*
X0164981Y0115230D01*
X0166238Y0116829D02*
X0157067Y0116829D01*
X0158445Y0118427D02*
X0167495Y0118427D01*
X0168753Y0120026D02*
X0159823Y0120026D01*
X0161201Y0121624D02*
X0170010Y0121624D01*
X0171267Y0123223D02*
X0162579Y0123223D01*
X0163957Y0124821D02*
X0172524Y0124821D01*
X0173782Y0126420D02*
X0165335Y0126420D01*
X0166713Y0128018D02*
X0175039Y0128018D01*
X0176296Y0129617D02*
X0168091Y0129617D01*
X0169469Y0131215D02*
X0177553Y0131215D01*
X0178811Y0132814D02*
X0170847Y0132814D01*
X0172225Y0134412D02*
X0180068Y0134412D01*
X0181325Y0136011D02*
X0173603Y0136011D01*
X0174981Y0137610D02*
X0182582Y0137610D01*
X0183840Y0139208D02*
X0176359Y0139208D01*
X0177737Y0140807D02*
X0185097Y0140807D01*
X0186354Y0142405D02*
X0179115Y0142405D01*
X0180494Y0144004D02*
X0187611Y0144004D01*
X0188869Y0145602D02*
X0181872Y0145602D01*
X0183250Y0147201D02*
X0190126Y0147201D01*
X0191383Y0148799D02*
X0184628Y0148799D01*
X0186006Y0150398D02*
X0192640Y0150398D01*
X0193898Y0151996D02*
X0187384Y0151996D01*
X0188762Y0153595D02*
X0195155Y0153595D01*
X0196412Y0155193D02*
X0190140Y0155193D01*
X0191518Y0156792D02*
X0197669Y0156792D01*
X0198927Y0158390D02*
X0192896Y0158390D01*
X0194274Y0159989D02*
X0200184Y0159989D01*
X0201441Y0161587D02*
X0195652Y0161587D01*
X0197030Y0163186D02*
X0202698Y0163186D01*
X0203956Y0164784D02*
X0198408Y0164784D01*
X0199786Y0166383D02*
X0204880Y0166383D01*
X0205068Y0167981D02*
X0201164Y0167981D01*
X0202542Y0169580D02*
X0205256Y0169580D01*
X0205444Y0171178D02*
X0203920Y0171178D01*
X0205272Y0172777D02*
X0205632Y0172777D01*
X0205500Y0174375D02*
X0205820Y0174375D01*
X0205733Y0175974D02*
X0206009Y0175974D01*
X0206024Y0177572D02*
X0206197Y0177572D01*
X0206314Y0179171D02*
X0206385Y0179171D01*
X0209126Y0181933D02*
X0213236Y0189043D01*
X0209126Y0181933D02*
X0207126Y0164933D01*
X0137126Y0075933D01*
X0137126Y0061933D01*
X0135126Y0059933D01*
X0139526Y0067275D02*
X0157726Y0067275D01*
X0157726Y0068874D02*
X0139526Y0068874D01*
X0139526Y0070472D02*
X0157726Y0070472D01*
X0157726Y0072071D02*
X0139526Y0072071D01*
X0139526Y0073669D02*
X0157726Y0073669D01*
X0157726Y0075268D02*
X0139656Y0075268D01*
X0140913Y0076866D02*
X0158498Y0076866D01*
X0159481Y0078465D02*
X0142171Y0078465D01*
X0143428Y0080063D02*
X0160465Y0080063D01*
X0161449Y0081662D02*
X0144685Y0081662D01*
X0145942Y0083260D02*
X0162432Y0083260D01*
X0163416Y0084859D02*
X0147200Y0084859D01*
X0148457Y0086457D02*
X0164400Y0086457D01*
X0165384Y0088056D02*
X0149714Y0088056D01*
X0150971Y0089654D02*
X0166367Y0089654D01*
X0167351Y0091253D02*
X0152229Y0091253D01*
X0153486Y0092851D02*
X0168335Y0092851D01*
X0169318Y0094450D02*
X0154743Y0094450D01*
X0156000Y0096048D02*
X0170302Y0096048D01*
X0171286Y0097647D02*
X0157258Y0097647D01*
X0158515Y0099245D02*
X0172269Y0099245D01*
X0173253Y0100844D02*
X0159772Y0100844D01*
X0161029Y0102442D02*
X0174237Y0102442D01*
X0175221Y0104041D02*
X0162287Y0104041D01*
X0163544Y0105639D02*
X0176204Y0105639D01*
X0177188Y0107238D02*
X0164801Y0107238D01*
X0166058Y0108836D02*
X0178172Y0108836D01*
X0179155Y0110435D02*
X0167316Y0110435D01*
X0168573Y0112033D02*
X0180139Y0112033D01*
X0181123Y0113632D02*
X0169830Y0113632D01*
X0171087Y0115230D02*
X0182106Y0115230D01*
X0183090Y0116829D02*
X0172345Y0116829D01*
X0173602Y0118427D02*
X0184074Y0118427D01*
X0185058Y0120026D02*
X0174859Y0120026D01*
X0176116Y0121624D02*
X0186041Y0121624D01*
X0187025Y0123223D02*
X0177374Y0123223D01*
X0178631Y0124821D02*
X0188009Y0124821D01*
X0188992Y0126420D02*
X0179888Y0126420D01*
X0181146Y0128018D02*
X0189976Y0128018D01*
X0190960Y0129617D02*
X0182403Y0129617D01*
X0183660Y0131215D02*
X0191943Y0131215D01*
X0192927Y0132814D02*
X0184917Y0132814D01*
X0186175Y0134412D02*
X0193911Y0134412D01*
X0194895Y0136011D02*
X0187432Y0136011D01*
X0188689Y0137610D02*
X0195878Y0137610D01*
X0196862Y0139208D02*
X0189946Y0139208D01*
X0191204Y0140807D02*
X0197846Y0140807D01*
X0198829Y0142405D02*
X0192461Y0142405D01*
X0193718Y0144004D02*
X0199813Y0144004D01*
X0200797Y0145602D02*
X0194975Y0145602D01*
X0196233Y0147201D02*
X0201780Y0147201D01*
X0202764Y0148799D02*
X0197490Y0148799D01*
X0198747Y0150398D02*
X0203748Y0150398D01*
X0204732Y0151996D02*
X0200004Y0151996D01*
X0201262Y0153595D02*
X0205715Y0153595D01*
X0206573Y0155193D02*
X0202519Y0155193D01*
X0203776Y0156792D02*
X0207372Y0156792D01*
X0208171Y0158390D02*
X0205033Y0158390D01*
X0206291Y0159989D02*
X0208820Y0159989D01*
X0208980Y0161587D02*
X0207548Y0161587D01*
X0208805Y0163186D02*
X0209139Y0163186D01*
X0211126Y0158933D02*
X0213126Y0178933D01*
X0215205Y0180012D01*
X0217173Y0172980D02*
X0215126Y0155933D01*
X0186126Y0075933D01*
X0186126Y0060933D01*
X0185126Y0059933D01*
X0183726Y0067275D02*
X0162526Y0067275D01*
X0162526Y0068874D02*
X0183726Y0068874D01*
X0183726Y0070472D02*
X0162526Y0070472D01*
X0162526Y0072071D02*
X0183726Y0072071D01*
X0183726Y0073669D02*
X0162526Y0073669D01*
X0163150Y0075268D02*
X0183726Y0075268D01*
X0183912Y0076866D02*
X0164134Y0076866D01*
X0165117Y0078465D02*
X0184491Y0078465D01*
X0185070Y0080063D02*
X0166101Y0080063D01*
X0167085Y0081662D02*
X0185650Y0081662D01*
X0186229Y0083260D02*
X0168068Y0083260D01*
X0169052Y0084859D02*
X0186809Y0084859D01*
X0187388Y0086457D02*
X0170036Y0086457D01*
X0171020Y0088056D02*
X0187968Y0088056D01*
X0188547Y0089654D02*
X0172003Y0089654D01*
X0172987Y0091253D02*
X0189127Y0091253D01*
X0189706Y0092851D02*
X0173971Y0092851D01*
X0174954Y0094450D02*
X0190286Y0094450D01*
X0190865Y0096048D02*
X0175938Y0096048D01*
X0176922Y0097647D02*
X0191445Y0097647D01*
X0192024Y0099245D02*
X0177905Y0099245D01*
X0178889Y0100844D02*
X0192603Y0100844D01*
X0193183Y0102442D02*
X0179873Y0102442D01*
X0180857Y0104041D02*
X0193762Y0104041D01*
X0194342Y0105639D02*
X0181840Y0105639D01*
X0182824Y0107238D02*
X0194921Y0107238D01*
X0195501Y0108836D02*
X0183808Y0108836D01*
X0184791Y0110435D02*
X0196080Y0110435D01*
X0196660Y0112033D02*
X0185775Y0112033D01*
X0186759Y0113632D02*
X0197239Y0113632D01*
X0197819Y0115230D02*
X0187742Y0115230D01*
X0188726Y0116829D02*
X0198398Y0116829D01*
X0198978Y0118427D02*
X0189710Y0118427D01*
X0190694Y0120026D02*
X0199557Y0120026D01*
X0200136Y0121624D02*
X0191677Y0121624D01*
X0192661Y0123223D02*
X0200716Y0123223D01*
X0201295Y0124821D02*
X0193645Y0124821D01*
X0194628Y0126420D02*
X0201875Y0126420D01*
X0202454Y0128018D02*
X0195612Y0128018D01*
X0196596Y0129617D02*
X0203034Y0129617D01*
X0203613Y0131215D02*
X0197579Y0131215D01*
X0198563Y0132814D02*
X0204193Y0132814D01*
X0204772Y0134412D02*
X0199547Y0134412D01*
X0200531Y0136011D02*
X0205352Y0136011D01*
X0205931Y0137610D02*
X0201514Y0137610D01*
X0202498Y0139208D02*
X0206510Y0139208D01*
X0207090Y0140807D02*
X0203482Y0140807D01*
X0204465Y0142405D02*
X0207669Y0142405D01*
X0208249Y0144004D02*
X0205449Y0144004D01*
X0206433Y0145602D02*
X0208828Y0145602D01*
X0209408Y0147201D02*
X0207416Y0147201D01*
X0208400Y0148799D02*
X0209987Y0148799D01*
X0210567Y0150398D02*
X0209384Y0150398D01*
X0210368Y0151996D02*
X0211146Y0151996D01*
X0211140Y0153595D02*
X0211726Y0153595D01*
X0211939Y0155193D02*
X0212305Y0155193D01*
X0212739Y0156792D02*
X0212812Y0156792D01*
X0211126Y0158933D02*
X0208126Y0152933D01*
X0160126Y0074933D01*
X0160126Y0059933D01*
X0148526Y0059282D02*
X0146726Y0059282D01*
X0146726Y0057684D02*
X0148526Y0057684D01*
X0148526Y0056085D02*
X0146726Y0056085D01*
X0146726Y0054487D02*
X0148526Y0054487D01*
X0148526Y0060881D02*
X0146726Y0060881D01*
X0146726Y0062479D02*
X0148526Y0062479D01*
X0148526Y0064078D02*
X0146726Y0064078D01*
X0146645Y0065677D02*
X0148607Y0065677D01*
X0128126Y0086933D02*
X0203126Y0173933D01*
X0198126Y0180933D02*
X0085126Y0059933D01*
X0096726Y0059282D02*
X0098526Y0059282D01*
X0098526Y0057684D02*
X0096726Y0057684D01*
X0096726Y0056085D02*
X0098526Y0056085D01*
X0098526Y0054487D02*
X0096726Y0054487D01*
X0096726Y0060881D02*
X0098526Y0060881D01*
X0098526Y0062479D02*
X0096726Y0062479D01*
X0096726Y0064078D02*
X0098526Y0064078D01*
X0098607Y0065677D02*
X0096645Y0065677D01*
X0094670Y0073669D02*
X0076125Y0073669D01*
X0076726Y0075268D02*
X0096163Y0075268D01*
X0097656Y0076866D02*
X0076726Y0076866D01*
X0076726Y0078465D02*
X0099149Y0078465D01*
X0100641Y0080063D02*
X0076726Y0080063D01*
X0076726Y0081662D02*
X0102134Y0081662D01*
X0122126Y0079933D02*
X0128126Y0086933D01*
X0122126Y0079933D02*
X0110126Y0059933D01*
X0121726Y0059282D02*
X0123526Y0059282D01*
X0123526Y0057684D02*
X0121726Y0057684D01*
X0121726Y0056085D02*
X0123526Y0056085D01*
X0123526Y0054487D02*
X0121726Y0054487D01*
X0121726Y0060881D02*
X0123526Y0060881D01*
X0123526Y0062479D02*
X0121726Y0062479D01*
X0121726Y0064078D02*
X0123526Y0064078D01*
X0123607Y0065677D02*
X0121645Y0065677D01*
X0171645Y0065677D02*
X0173607Y0065677D01*
X0173526Y0064078D02*
X0171726Y0064078D01*
X0171726Y0062479D02*
X0173526Y0062479D01*
X0173526Y0060881D02*
X0171726Y0060881D01*
X0171726Y0059282D02*
X0173526Y0059282D01*
X0173526Y0057684D02*
X0171726Y0057684D01*
X0171726Y0056085D02*
X0173526Y0056085D01*
X0173526Y0054487D02*
X0171726Y0054487D01*
X0188526Y0067275D02*
X0207733Y0067275D01*
X0207735Y0068874D02*
X0188526Y0068874D01*
X0188526Y0070472D02*
X0207737Y0070472D01*
X0207738Y0072071D02*
X0188526Y0072071D01*
X0188526Y0073669D02*
X0207740Y0073669D01*
X0207741Y0075268D02*
X0188526Y0075268D01*
X0189017Y0076866D02*
X0207827Y0076866D01*
X0208000Y0078465D02*
X0189597Y0078465D01*
X0190176Y0080063D02*
X0208173Y0080063D01*
X0208346Y0081662D02*
X0190756Y0081662D01*
X0191335Y0083260D02*
X0208519Y0083260D01*
X0208692Y0084859D02*
X0191914Y0084859D01*
X0192494Y0086457D02*
X0208866Y0086457D01*
X0209039Y0088056D02*
X0193073Y0088056D01*
X0193653Y0089654D02*
X0209212Y0089654D01*
X0209385Y0091253D02*
X0194232Y0091253D01*
X0194812Y0092851D02*
X0209558Y0092851D01*
X0209731Y0094450D02*
X0195391Y0094450D01*
X0195971Y0096048D02*
X0209904Y0096048D01*
X0210077Y0097647D02*
X0196550Y0097647D01*
X0197130Y0099245D02*
X0210250Y0099245D01*
X0210423Y0100844D02*
X0197709Y0100844D01*
X0198289Y0102442D02*
X0210596Y0102442D01*
X0210769Y0104041D02*
X0198868Y0104041D01*
X0199447Y0105639D02*
X0210942Y0105639D01*
X0211115Y0107238D02*
X0200027Y0107238D01*
X0200606Y0108836D02*
X0211288Y0108836D01*
X0211461Y0110435D02*
X0201186Y0110435D01*
X0201765Y0112033D02*
X0211635Y0112033D01*
X0211808Y0113632D02*
X0202345Y0113632D01*
X0202924Y0115230D02*
X0211981Y0115230D01*
X0212154Y0116829D02*
X0203504Y0116829D01*
X0204083Y0118427D02*
X0212327Y0118427D01*
X0212500Y0120026D02*
X0204663Y0120026D01*
X0205242Y0121624D02*
X0212673Y0121624D01*
X0212846Y0123223D02*
X0205822Y0123223D01*
X0206401Y0124821D02*
X0213019Y0124821D01*
X0213192Y0126420D02*
X0206980Y0126420D01*
X0207560Y0128018D02*
X0213365Y0128018D01*
X0213538Y0129617D02*
X0208139Y0129617D01*
X0208719Y0131215D02*
X0213711Y0131215D01*
X0213884Y0132814D02*
X0209298Y0132814D01*
X0209878Y0134412D02*
X0214057Y0134412D01*
X0214230Y0136011D02*
X0210457Y0136011D01*
X0211037Y0137610D02*
X0214404Y0137610D01*
X0214577Y0139208D02*
X0211616Y0139208D01*
X0212196Y0140807D02*
X0214750Y0140807D01*
X0214923Y0142405D02*
X0212775Y0142405D01*
X0213354Y0144004D02*
X0215096Y0144004D01*
X0215269Y0145602D02*
X0213934Y0145602D01*
X0214513Y0147201D02*
X0215442Y0147201D01*
X0215615Y0148799D02*
X0215093Y0148799D01*
X0215672Y0150398D02*
X0215788Y0150398D01*
X0220270Y0147201D02*
X0220683Y0147201D01*
X0220956Y0145602D02*
X0220097Y0145602D01*
X0219924Y0144004D02*
X0221230Y0144004D01*
X0221503Y0142405D02*
X0219751Y0142405D01*
X0219578Y0140807D02*
X0221776Y0140807D01*
X0222049Y0139208D02*
X0219405Y0139208D01*
X0219232Y0137610D02*
X0222322Y0137610D01*
X0222595Y0136011D02*
X0219058Y0136011D01*
X0218885Y0134412D02*
X0222869Y0134412D01*
X0223142Y0132814D02*
X0218712Y0132814D01*
X0218539Y0131215D02*
X0223415Y0131215D01*
X0223688Y0129617D02*
X0218366Y0129617D01*
X0218193Y0128018D02*
X0223961Y0128018D01*
X0224234Y0126420D02*
X0218020Y0126420D01*
X0217847Y0124821D02*
X0224508Y0124821D01*
X0224781Y0123223D02*
X0217674Y0123223D01*
X0217501Y0121624D02*
X0225054Y0121624D01*
X0225327Y0120026D02*
X0217328Y0120026D01*
X0217155Y0118427D02*
X0225600Y0118427D01*
X0225873Y0116829D02*
X0216982Y0116829D01*
X0216809Y0115230D02*
X0226147Y0115230D01*
X0226420Y0113632D02*
X0216636Y0113632D01*
X0216463Y0112033D02*
X0226693Y0112033D01*
X0226966Y0110435D02*
X0216289Y0110435D01*
X0216116Y0108836D02*
X0227239Y0108836D01*
X0227513Y0107238D02*
X0215943Y0107238D01*
X0215770Y0105639D02*
X0227786Y0105639D01*
X0228059Y0104041D02*
X0215597Y0104041D01*
X0215424Y0102442D02*
X0228332Y0102442D01*
X0228605Y0100844D02*
X0215251Y0100844D01*
X0215078Y0099245D02*
X0228878Y0099245D01*
X0229152Y0097647D02*
X0214905Y0097647D01*
X0214732Y0096048D02*
X0229425Y0096048D01*
X0229698Y0094450D02*
X0214559Y0094450D01*
X0214386Y0092851D02*
X0229971Y0092851D01*
X0230244Y0091253D02*
X0214213Y0091253D01*
X0214040Y0089654D02*
X0230517Y0089654D01*
X0230791Y0088056D02*
X0213867Y0088056D01*
X0213694Y0086457D02*
X0231064Y0086457D01*
X0231337Y0084859D02*
X0213520Y0084859D01*
X0213347Y0083260D02*
X0231610Y0083260D01*
X0231883Y0081662D02*
X0213174Y0081662D01*
X0213001Y0080063D02*
X0232156Y0080063D01*
X0232430Y0078465D02*
X0212828Y0078465D01*
X0212655Y0076866D02*
X0232703Y0076866D01*
X0232726Y0075268D02*
X0212541Y0075268D01*
X0212540Y0073669D02*
X0232726Y0073669D01*
X0232726Y0072071D02*
X0212538Y0072071D01*
X0212536Y0070472D02*
X0232726Y0070472D01*
X0232726Y0068874D02*
X0212535Y0068874D01*
X0212533Y0067275D02*
X0232726Y0067275D01*
X0237526Y0067275D02*
X0255726Y0067275D01*
X0255726Y0068874D02*
X0237526Y0068874D01*
X0237526Y0070472D02*
X0255726Y0070472D01*
X0255726Y0072071D02*
X0237526Y0072071D01*
X0237526Y0073669D02*
X0255726Y0073669D01*
X0255476Y0075268D02*
X0237526Y0075268D01*
X0237572Y0076866D02*
X0254932Y0076866D01*
X0254387Y0078465D02*
X0237299Y0078465D01*
X0237026Y0080063D02*
X0253842Y0080063D01*
X0253297Y0081662D02*
X0236753Y0081662D01*
X0236480Y0083260D02*
X0252752Y0083260D01*
X0252207Y0084859D02*
X0236207Y0084859D01*
X0235933Y0086457D02*
X0251662Y0086457D01*
X0251117Y0088056D02*
X0235660Y0088056D01*
X0235387Y0089654D02*
X0250572Y0089654D01*
X0250027Y0091253D02*
X0235114Y0091253D01*
X0234841Y0092851D02*
X0249482Y0092851D01*
X0248937Y0094450D02*
X0234567Y0094450D01*
X0234294Y0096048D02*
X0248392Y0096048D01*
X0247847Y0097647D02*
X0234021Y0097647D01*
X0233748Y0099245D02*
X0247302Y0099245D01*
X0246757Y0100844D02*
X0233475Y0100844D01*
X0233202Y0102442D02*
X0246212Y0102442D01*
X0245667Y0104041D02*
X0232928Y0104041D01*
X0232655Y0105639D02*
X0245122Y0105639D01*
X0244578Y0107238D02*
X0232382Y0107238D01*
X0232109Y0108836D02*
X0244033Y0108836D01*
X0243488Y0110435D02*
X0231836Y0110435D01*
X0231563Y0112033D02*
X0242943Y0112033D01*
X0242398Y0113632D02*
X0231289Y0113632D01*
X0231016Y0115230D02*
X0241853Y0115230D01*
X0241308Y0116829D02*
X0230743Y0116829D01*
X0230470Y0118427D02*
X0240722Y0118427D01*
X0240003Y0120026D02*
X0230197Y0120026D01*
X0229924Y0121624D02*
X0239283Y0121624D01*
X0238564Y0123223D02*
X0229650Y0123223D01*
X0229377Y0124821D02*
X0237845Y0124821D01*
X0237125Y0126420D02*
X0229104Y0126420D01*
X0228831Y0128018D02*
X0236406Y0128018D01*
X0235687Y0129617D02*
X0228558Y0129617D01*
X0228285Y0131215D02*
X0234967Y0131215D01*
X0234248Y0132814D02*
X0228011Y0132814D01*
X0227738Y0134412D02*
X0233529Y0134412D01*
X0232809Y0136011D02*
X0227465Y0136011D01*
X0227192Y0137610D02*
X0232090Y0137610D01*
X0231371Y0139208D02*
X0226919Y0139208D01*
X0226646Y0140807D02*
X0230651Y0140807D01*
X0229932Y0142405D02*
X0226372Y0142405D01*
X0226099Y0144004D02*
X0229213Y0144004D01*
X0228493Y0145602D02*
X0225826Y0145602D01*
X0225553Y0147201D02*
X0227774Y0147201D01*
X0227055Y0148799D02*
X0225280Y0148799D01*
X0225006Y0150398D02*
X0226335Y0150398D01*
X0225616Y0151996D02*
X0224733Y0151996D01*
X0224897Y0153595D02*
X0224460Y0153595D01*
X0228722Y0156792D02*
X0233259Y0156792D01*
X0232289Y0158390D02*
X0228002Y0158390D01*
X0227390Y0159989D02*
X0231319Y0159989D01*
X0230349Y0161587D02*
X0227139Y0161587D01*
X0226888Y0163186D02*
X0229379Y0163186D01*
X0228646Y0164784D02*
X0226637Y0164784D01*
X0226387Y0166383D02*
X0228113Y0166383D01*
X0227580Y0167981D02*
X0226136Y0167981D01*
X0225885Y0169580D02*
X0227047Y0169580D01*
X0226515Y0171178D02*
X0225634Y0171178D01*
X0225383Y0172777D02*
X0225982Y0172777D01*
X0225449Y0174375D02*
X0225279Y0174375D01*
X0227126Y0176933D02*
X0225047Y0179012D01*
X0227247Y0180769D02*
X0229016Y0180769D01*
X0229727Y0179171D02*
X0228282Y0179171D01*
X0229459Y0177572D02*
X0230438Y0177572D01*
X0229976Y0175974D02*
X0231148Y0175974D01*
X0230509Y0174375D02*
X0231859Y0174375D01*
X0232569Y0172777D02*
X0231041Y0172777D01*
X0231574Y0171178D02*
X0233267Y0171178D01*
X0233952Y0169580D02*
X0232107Y0169580D01*
X0232640Y0167981D02*
X0234637Y0167981D01*
X0235322Y0166383D02*
X0233173Y0166383D01*
X0234024Y0164784D02*
X0235977Y0164784D01*
X0234994Y0163186D02*
X0237231Y0163186D01*
X0238484Y0161587D02*
X0235963Y0161587D01*
X0236933Y0159989D02*
X0239737Y0159989D01*
X0240991Y0158390D02*
X0237903Y0158390D01*
X0238873Y0156792D02*
X0242244Y0156792D01*
X0243497Y0155193D02*
X0239843Y0155193D01*
X0240813Y0153595D02*
X0244751Y0153595D01*
X0246004Y0151996D02*
X0241783Y0151996D01*
X0242753Y0150398D02*
X0247258Y0150398D01*
X0248511Y0148799D02*
X0243722Y0148799D01*
X0244692Y0147201D02*
X0249764Y0147201D01*
X0251018Y0145602D02*
X0245662Y0145602D01*
X0246632Y0144004D02*
X0252271Y0144004D01*
X0253524Y0142405D02*
X0247602Y0142405D01*
X0248572Y0140807D02*
X0254778Y0140807D01*
X0256031Y0139208D02*
X0249542Y0139208D01*
X0250512Y0137610D02*
X0257285Y0137610D01*
X0258538Y0136011D02*
X0251482Y0136011D01*
X0252451Y0134412D02*
X0259791Y0134412D01*
X0261045Y0132814D02*
X0253421Y0132814D01*
X0254391Y0131215D02*
X0262298Y0131215D01*
X0263551Y0129617D02*
X0255361Y0129617D01*
X0256331Y0128018D02*
X0264805Y0128018D01*
X0266058Y0126420D02*
X0257301Y0126420D01*
X0258271Y0124821D02*
X0267312Y0124821D01*
X0268565Y0123223D02*
X0259241Y0123223D01*
X0260211Y0121624D02*
X0269818Y0121624D01*
X0271072Y0120026D02*
X0261180Y0120026D01*
X0262150Y0118427D02*
X0272325Y0118427D01*
X0273578Y0116829D02*
X0263120Y0116829D01*
X0264090Y0115230D02*
X0274832Y0115230D01*
X0276085Y0113632D02*
X0265060Y0113632D01*
X0266030Y0112033D02*
X0277339Y0112033D01*
X0278592Y0110435D02*
X0267000Y0110435D01*
X0267970Y0108836D02*
X0279845Y0108836D01*
X0281099Y0107238D02*
X0268939Y0107238D01*
X0269909Y0105639D02*
X0282352Y0105639D01*
X0283606Y0104041D02*
X0270879Y0104041D01*
X0271849Y0102442D02*
X0284859Y0102442D01*
X0286112Y0100844D02*
X0272819Y0100844D01*
X0273789Y0099245D02*
X0287366Y0099245D01*
X0288619Y0097647D02*
X0274759Y0097647D01*
X0275729Y0096048D02*
X0289872Y0096048D01*
X0291126Y0094450D02*
X0276699Y0094450D01*
X0277668Y0092851D02*
X0292379Y0092851D01*
X0293633Y0091253D02*
X0278638Y0091253D01*
X0279608Y0089654D02*
X0294886Y0089654D01*
X0296139Y0088056D02*
X0280578Y0088056D01*
X0281548Y0086457D02*
X0297393Y0086457D01*
X0298646Y0084859D02*
X0282518Y0084859D01*
X0283488Y0083260D02*
X0299899Y0083260D01*
X0301153Y0081662D02*
X0284458Y0081662D01*
X0285427Y0080063D02*
X0302406Y0080063D01*
X0303660Y0078465D02*
X0286397Y0078465D01*
X0287367Y0076866D02*
X0304726Y0076866D01*
X0304726Y0075268D02*
X0287526Y0075268D01*
X0287526Y0073669D02*
X0304726Y0073669D01*
X0304726Y0072071D02*
X0287526Y0072071D01*
X0287526Y0070472D02*
X0304726Y0070472D01*
X0304726Y0068874D02*
X0287526Y0068874D01*
X0287526Y0067275D02*
X0304726Y0067275D01*
X0309526Y0067275D02*
X0350039Y0067275D01*
X0348607Y0065677D02*
X0346775Y0065677D01*
X0346803Y0065628D02*
X0346566Y0066038D01*
X0346231Y0066373D01*
X0345821Y0066610D01*
X0345363Y0066733D01*
X0335926Y0066733D01*
X0335926Y0060733D01*
X0334326Y0060733D01*
X0334326Y0059133D01*
X0323326Y0059133D01*
X0323326Y0054696D01*
X0323449Y0054238D01*
X0323686Y0053828D01*
X0324021Y0053493D01*
X0324431Y0053256D01*
X0324889Y0053133D01*
X0334326Y0053133D01*
X0334326Y0059133D01*
X0335926Y0059133D01*
X0335926Y0053133D01*
X0345363Y0053133D01*
X0345821Y0053256D01*
X0346231Y0053493D01*
X0346566Y0053828D01*
X0346803Y0054238D01*
X0346926Y0054696D01*
X0346926Y0059133D01*
X0335926Y0059133D01*
X0335926Y0060733D01*
X0346926Y0060733D01*
X0346926Y0065170D01*
X0346803Y0065628D01*
X0346926Y0064078D02*
X0348526Y0064078D01*
X0348526Y0062479D02*
X0346926Y0062479D01*
X0346926Y0060881D02*
X0348526Y0060881D01*
X0348526Y0059282D02*
X0335926Y0059282D01*
X0335126Y0059933D02*
X0327126Y0073933D01*
X0320126Y0082933D01*
X0238984Y0179075D01*
X0235126Y0184933D01*
X0228984Y0193075D01*
X0229216Y0193557D02*
X0232108Y0193557D01*
X0233706Y0191959D02*
X0229216Y0191959D01*
X0229216Y0190360D02*
X0235305Y0190360D01*
X0236903Y0188762D02*
X0229425Y0188762D01*
X0230500Y0187163D02*
X0238502Y0187163D01*
X0240100Y0185565D02*
X0231576Y0185565D01*
X0232651Y0183966D02*
X0241699Y0183966D01*
X0243232Y0182368D02*
X0233559Y0182368D01*
X0234270Y0180769D02*
X0244716Y0180769D01*
X0246199Y0179171D02*
X0234980Y0179171D01*
X0235691Y0177572D02*
X0247683Y0177572D01*
X0249166Y0175974D02*
X0236401Y0175974D01*
X0237112Y0174375D02*
X0250650Y0174375D01*
X0252133Y0172777D02*
X0237804Y0172777D01*
X0238489Y0171178D02*
X0253616Y0171178D01*
X0255100Y0169580D02*
X0239174Y0169580D01*
X0239859Y0167981D02*
X0256583Y0167981D01*
X0258067Y0166383D02*
X0240823Y0166383D01*
X0242077Y0164784D02*
X0259550Y0164784D01*
X0261034Y0163186D02*
X0243330Y0163186D01*
X0244583Y0161587D02*
X0262517Y0161587D01*
X0264000Y0159989D02*
X0245837Y0159989D01*
X0247090Y0158390D02*
X0265484Y0158390D01*
X0266967Y0156792D02*
X0248344Y0156792D01*
X0249597Y0155193D02*
X0268451Y0155193D01*
X0269934Y0153595D02*
X0250850Y0153595D01*
X0252104Y0151996D02*
X0271417Y0151996D01*
X0272901Y0150398D02*
X0253357Y0150398D01*
X0254611Y0148799D02*
X0274384Y0148799D01*
X0275868Y0147201D02*
X0255864Y0147201D01*
X0257117Y0145602D02*
X0277351Y0145602D01*
X0278835Y0144004D02*
X0258371Y0144004D01*
X0259624Y0142405D02*
X0280318Y0142405D01*
X0281801Y0140807D02*
X0260877Y0140807D01*
X0262131Y0139208D02*
X0283285Y0139208D01*
X0284768Y0137610D02*
X0263384Y0137610D01*
X0264638Y0136011D02*
X0286252Y0136011D01*
X0287735Y0134412D02*
X0265891Y0134412D01*
X0267144Y0132814D02*
X0289218Y0132814D01*
X0290702Y0131215D02*
X0268398Y0131215D01*
X0269651Y0129617D02*
X0292185Y0129617D01*
X0293669Y0128018D02*
X0270904Y0128018D01*
X0272158Y0126420D02*
X0295152Y0126420D01*
X0296636Y0124821D02*
X0273411Y0124821D01*
X0274665Y0123223D02*
X0298119Y0123223D01*
X0299602Y0121624D02*
X0275918Y0121624D01*
X0277171Y0120026D02*
X0301086Y0120026D01*
X0302569Y0118427D02*
X0278425Y0118427D01*
X0279678Y0116829D02*
X0304053Y0116829D01*
X0305536Y0115230D02*
X0280931Y0115230D01*
X0282185Y0113632D02*
X0307019Y0113632D01*
X0308503Y0112033D02*
X0283438Y0112033D01*
X0284692Y0110435D02*
X0309986Y0110435D01*
X0311470Y0108836D02*
X0285945Y0108836D01*
X0287198Y0107238D02*
X0312953Y0107238D01*
X0314437Y0105639D02*
X0288452Y0105639D01*
X0289705Y0104041D02*
X0315920Y0104041D01*
X0317403Y0102442D02*
X0290958Y0102442D01*
X0292212Y0100844D02*
X0318887Y0100844D01*
X0320370Y0099245D02*
X0293465Y0099245D01*
X0294719Y0097647D02*
X0321854Y0097647D01*
X0323337Y0096048D02*
X0295972Y0096048D01*
X0297225Y0094450D02*
X0324820Y0094450D01*
X0326304Y0092851D02*
X0298479Y0092851D01*
X0299732Y0091253D02*
X0327787Y0091253D01*
X0329271Y0089654D02*
X0300986Y0089654D01*
X0302239Y0088056D02*
X0330754Y0088056D01*
X0332238Y0086457D02*
X0303492Y0086457D01*
X0304746Y0084859D02*
X0333721Y0084859D01*
X0335204Y0083260D02*
X0305999Y0083260D01*
X0307252Y0081662D02*
X0336688Y0081662D01*
X0338171Y0080063D02*
X0308506Y0080063D01*
X0309504Y0078465D02*
X0339655Y0078465D01*
X0341138Y0076866D02*
X0309526Y0076866D01*
X0309526Y0075268D02*
X0342622Y0075268D01*
X0344105Y0073669D02*
X0309526Y0073669D01*
X0309526Y0072071D02*
X0345588Y0072071D01*
X0347072Y0070472D02*
X0309526Y0070472D01*
X0309526Y0068874D02*
X0348555Y0068874D01*
X0353620Y0070472D02*
X0386126Y0070472D01*
X0386126Y0068874D02*
X0355104Y0068874D01*
X0356587Y0067275D02*
X0386126Y0067275D01*
X0386126Y0065677D02*
X0371645Y0065677D01*
X0371726Y0064078D02*
X0386126Y0064078D01*
X0386126Y0062479D02*
X0371726Y0062479D01*
X0371726Y0060881D02*
X0386126Y0060881D01*
X0386126Y0059282D02*
X0371726Y0059282D01*
X0371726Y0057684D02*
X0386126Y0057684D01*
X0386126Y0056085D02*
X0371726Y0056085D01*
X0371726Y0054487D02*
X0386126Y0054487D01*
X0360126Y0059933D02*
X0244126Y0184933D01*
X0230953Y0198106D01*
X0230509Y0195156D02*
X0229216Y0195156D01*
X0227016Y0188043D02*
X0231126Y0181933D01*
X0235126Y0172933D01*
X0238126Y0165933D01*
X0307126Y0077933D01*
X0307126Y0062933D01*
X0310126Y0059933D01*
X0298526Y0059282D02*
X0296726Y0059282D01*
X0296726Y0057684D02*
X0298526Y0057684D01*
X0298526Y0056085D02*
X0296726Y0056085D01*
X0296726Y0054487D02*
X0298526Y0054487D01*
X0298526Y0060881D02*
X0296726Y0060881D01*
X0296726Y0062479D02*
X0298526Y0062479D01*
X0298526Y0064078D02*
X0296726Y0064078D01*
X0296645Y0065677D02*
X0298607Y0065677D01*
X0285126Y0059933D02*
X0285126Y0075933D01*
X0231126Y0164933D01*
X0227126Y0176933D01*
X0223079Y0171980D02*
X0225126Y0158933D01*
X0243126Y0118933D01*
X0258126Y0074933D01*
X0258126Y0061933D01*
X0260126Y0059933D01*
X0260526Y0067275D02*
X0282726Y0067275D01*
X0282726Y0068874D02*
X0260526Y0068874D01*
X0260526Y0070472D02*
X0282726Y0070472D01*
X0282726Y0072071D02*
X0260526Y0072071D01*
X0260526Y0073669D02*
X0282726Y0073669D01*
X0282723Y0075268D02*
X0260548Y0075268D01*
X0260003Y0076866D02*
X0281753Y0076866D01*
X0280783Y0078465D02*
X0259458Y0078465D01*
X0258913Y0080063D02*
X0279813Y0080063D01*
X0278843Y0081662D02*
X0258368Y0081662D01*
X0257823Y0083260D02*
X0277873Y0083260D01*
X0276903Y0084859D02*
X0257278Y0084859D01*
X0256733Y0086457D02*
X0275934Y0086457D01*
X0274964Y0088056D02*
X0256188Y0088056D01*
X0255643Y0089654D02*
X0273994Y0089654D01*
X0273024Y0091253D02*
X0255098Y0091253D01*
X0254553Y0092851D02*
X0272054Y0092851D01*
X0271084Y0094450D02*
X0254008Y0094450D01*
X0253463Y0096048D02*
X0270114Y0096048D01*
X0269144Y0097647D02*
X0252918Y0097647D01*
X0252374Y0099245D02*
X0268174Y0099245D01*
X0267205Y0100844D02*
X0251829Y0100844D01*
X0251284Y0102442D02*
X0266235Y0102442D01*
X0265265Y0104041D02*
X0250739Y0104041D01*
X0250194Y0105639D02*
X0264295Y0105639D01*
X0263325Y0107238D02*
X0249649Y0107238D01*
X0249104Y0108836D02*
X0262355Y0108836D01*
X0261385Y0110435D02*
X0248559Y0110435D01*
X0248014Y0112033D02*
X0260415Y0112033D01*
X0259445Y0113632D02*
X0247469Y0113632D01*
X0246924Y0115230D02*
X0258476Y0115230D01*
X0257506Y0116829D02*
X0246379Y0116829D01*
X0245834Y0118427D02*
X0256536Y0118427D01*
X0255566Y0120026D02*
X0245289Y0120026D01*
X0244547Y0121624D02*
X0254596Y0121624D01*
X0253626Y0123223D02*
X0243827Y0123223D01*
X0243108Y0124821D02*
X0252656Y0124821D01*
X0251686Y0126420D02*
X0242389Y0126420D01*
X0241670Y0128018D02*
X0250717Y0128018D01*
X0249747Y0129617D02*
X0240950Y0129617D01*
X0240231Y0131215D02*
X0248777Y0131215D01*
X0247807Y0132814D02*
X0239512Y0132814D01*
X0238792Y0134412D02*
X0246837Y0134412D01*
X0245867Y0136011D02*
X0238073Y0136011D01*
X0237354Y0137610D02*
X0244897Y0137610D01*
X0243927Y0139208D02*
X0236634Y0139208D01*
X0235915Y0140807D02*
X0242957Y0140807D01*
X0241988Y0142405D02*
X0235196Y0142405D01*
X0234476Y0144004D02*
X0241018Y0144004D01*
X0240048Y0145602D02*
X0233757Y0145602D01*
X0233038Y0147201D02*
X0239078Y0147201D01*
X0238108Y0148799D02*
X0232318Y0148799D01*
X0231599Y0150398D02*
X0237138Y0150398D01*
X0236168Y0151996D02*
X0230880Y0151996D01*
X0230160Y0153595D02*
X0235198Y0153595D01*
X0234229Y0155193D02*
X0229441Y0155193D01*
X0221110Y0158949D02*
X0235126Y0076933D01*
X0235126Y0059933D01*
X0223526Y0059282D02*
X0221726Y0059282D01*
X0221726Y0057684D02*
X0223526Y0057684D01*
X0223526Y0056085D02*
X0221726Y0056085D01*
X0221726Y0054487D02*
X0223526Y0054487D01*
X0223526Y0060881D02*
X0221726Y0060881D01*
X0221726Y0062479D02*
X0223526Y0062479D01*
X0223526Y0064078D02*
X0221726Y0064078D01*
X0221645Y0065677D02*
X0223607Y0065677D01*
X0210126Y0059933D02*
X0210142Y0075949D01*
X0219126Y0158933D01*
X0219142Y0156949D01*
X0227247Y0182368D02*
X0227941Y0182368D01*
X0247620Y0201550D02*
X0250960Y0201550D01*
X0249045Y0203148D02*
X0246022Y0203148D01*
X0245326Y0204747D02*
X0247131Y0204747D01*
X0271776Y0198353D02*
X0278804Y0198353D01*
X0280795Y0235119D02*
X0271853Y0235119D01*
X0246158Y0259096D02*
X0242864Y0259096D01*
X0241624Y0257498D02*
X0244651Y0257498D01*
X0243144Y0255899D02*
X0240384Y0255899D01*
X0239145Y0254301D02*
X0241637Y0254301D01*
X0240130Y0252702D02*
X0237905Y0252702D01*
X0238623Y0251104D02*
X0236665Y0251104D01*
X0237117Y0249505D02*
X0235425Y0249505D01*
X0235610Y0247907D02*
X0234185Y0247907D01*
X0234103Y0246308D02*
X0232945Y0246308D01*
X0232596Y0244710D02*
X0231705Y0244710D01*
X0232638Y0230933D02*
X0224126Y0230933D01*
X0220726Y0224133D01*
X0198099Y0231922D02*
X0197117Y0231922D01*
X0189568Y0215937D02*
X0179883Y0215937D01*
X0182074Y0211141D02*
X0142109Y0211141D01*
X0144947Y0215937D02*
X0076726Y0215937D01*
X0076726Y0214338D02*
X0132356Y0214338D01*
X0129518Y0209543D02*
X0179575Y0209543D01*
X0177077Y0207944D02*
X0116927Y0207944D01*
X0114126Y0233933D02*
X0071126Y0233933D01*
X0070126Y0234933D01*
X0063526Y0235119D02*
X0057126Y0235119D01*
X0057126Y0236717D02*
X0063526Y0236717D01*
X0063526Y0238316D02*
X0057126Y0238316D01*
X0057126Y0239914D02*
X0063526Y0239914D01*
X0063526Y0241513D02*
X0057126Y0241513D01*
X0057126Y0243111D02*
X0063526Y0243111D01*
X0063526Y0244710D02*
X0057126Y0244710D01*
X0057126Y0246308D02*
X0064239Y0246308D01*
X0063526Y0233520D02*
X0057126Y0233520D01*
X0057126Y0231922D02*
X0063526Y0231922D01*
X0063526Y0230323D02*
X0057126Y0230323D01*
X0057126Y0228725D02*
X0063526Y0228725D01*
X0063526Y0227126D02*
X0057126Y0227126D01*
X0057126Y0225528D02*
X0063526Y0225528D01*
X0063526Y0207944D02*
X0057126Y0207944D01*
X0057126Y0206345D02*
X0063526Y0206345D01*
X0063526Y0204747D02*
X0057126Y0204747D01*
X0057126Y0203148D02*
X0063526Y0203148D01*
X0063526Y0201550D02*
X0057126Y0201550D01*
X0057126Y0199951D02*
X0063526Y0199951D01*
X0064444Y0198353D02*
X0057126Y0198353D01*
X0069326Y0195156D02*
X0070926Y0195156D01*
X0070926Y0193557D02*
X0069326Y0193557D01*
X0069326Y0191959D02*
X0070926Y0191959D01*
X0070926Y0190360D02*
X0069326Y0190360D01*
X0069326Y0188762D02*
X0070926Y0188762D01*
X0070926Y0187163D02*
X0069326Y0187163D01*
X0076726Y0131215D02*
X0116297Y0131215D01*
X0114699Y0129617D02*
X0076726Y0129617D01*
X0076726Y0128018D02*
X0113100Y0128018D01*
X0111502Y0126420D02*
X0076726Y0126420D01*
X0076726Y0124821D02*
X0109903Y0124821D01*
X0058126Y0046494D02*
X0057845Y0046494D01*
X0196726Y0054487D02*
X0198526Y0054487D01*
X0198526Y0056085D02*
X0196726Y0056085D01*
X0196726Y0057684D02*
X0198526Y0057684D01*
X0198526Y0059282D02*
X0196726Y0059282D01*
X0196726Y0060881D02*
X0198526Y0060881D01*
X0198526Y0062479D02*
X0196726Y0062479D01*
X0196726Y0064078D02*
X0198526Y0064078D01*
X0198607Y0065677D02*
X0196645Y0065677D01*
X0246645Y0065677D02*
X0248607Y0065677D01*
X0248526Y0064078D02*
X0246726Y0064078D01*
X0246726Y0062479D02*
X0248526Y0062479D01*
X0248526Y0060881D02*
X0246726Y0060881D01*
X0246726Y0059282D02*
X0248526Y0059282D01*
X0248526Y0057684D02*
X0246726Y0057684D01*
X0246726Y0056085D02*
X0248526Y0056085D01*
X0248526Y0054487D02*
X0246726Y0054487D01*
X0271726Y0054487D02*
X0273526Y0054487D01*
X0273526Y0056085D02*
X0271726Y0056085D01*
X0271726Y0057684D02*
X0273526Y0057684D01*
X0273526Y0059282D02*
X0271726Y0059282D01*
X0271726Y0060881D02*
X0273526Y0060881D01*
X0273526Y0062479D02*
X0271726Y0062479D01*
X0271726Y0064078D02*
X0273526Y0064078D01*
X0273607Y0065677D02*
X0271645Y0065677D01*
X0321645Y0065677D02*
X0323477Y0065677D01*
X0323449Y0065628D02*
X0323326Y0065170D01*
X0323326Y0060733D01*
X0334326Y0060733D01*
X0334326Y0066733D01*
X0324889Y0066733D01*
X0324431Y0066610D01*
X0324021Y0066373D01*
X0323686Y0066038D01*
X0323449Y0065628D01*
X0323326Y0064078D02*
X0321726Y0064078D01*
X0321726Y0062479D02*
X0323326Y0062479D01*
X0323326Y0060881D02*
X0321726Y0060881D01*
X0321726Y0059282D02*
X0334326Y0059282D01*
X0334326Y0057684D02*
X0335926Y0057684D01*
X0335926Y0056085D02*
X0334326Y0056085D01*
X0334326Y0054487D02*
X0335926Y0054487D01*
X0335926Y0060881D02*
X0334326Y0060881D01*
X0334326Y0062479D02*
X0335926Y0062479D01*
X0335926Y0064078D02*
X0334326Y0064078D01*
X0334326Y0065677D02*
X0335926Y0065677D01*
X0346926Y0057684D02*
X0348526Y0057684D01*
X0348526Y0056085D02*
X0346926Y0056085D01*
X0346870Y0054487D02*
X0348526Y0054487D01*
X0323382Y0054487D02*
X0321726Y0054487D01*
X0321726Y0056085D02*
X0323326Y0056085D01*
X0323326Y0057684D02*
X0321726Y0057684D01*
X0356319Y0092851D02*
X0368526Y0092851D01*
X0368526Y0091253D02*
X0357918Y0091253D01*
X0359516Y0089654D02*
X0368526Y0089654D01*
X0368526Y0094450D02*
X0354721Y0094450D01*
X0374126Y0085933D02*
X0375126Y0084933D01*
X0375126Y0134933D02*
X0372126Y0137933D01*
X0368526Y0140807D02*
X0360735Y0140807D01*
X0358263Y0142405D02*
X0368526Y0142405D01*
X0368526Y0144004D02*
X0355792Y0144004D01*
X0356160Y0185565D02*
X0318056Y0185565D01*
X0247665Y0260695D02*
X0244104Y0260695D01*
X0245344Y0262293D02*
X0249172Y0262293D01*
X0250679Y0263892D02*
X0246584Y0263892D01*
X0247824Y0265490D02*
X0252186Y0265490D01*
X0253693Y0267089D02*
X0249063Y0267089D01*
X0250303Y0268687D02*
X0255200Y0268687D01*
X0256707Y0270286D02*
X0251543Y0270286D01*
X0252783Y0271884D02*
X0258213Y0271884D01*
X0259720Y0273483D02*
X0254023Y0273483D01*
X0255263Y0275081D02*
X0261227Y0275081D01*
X0262734Y0276680D02*
X0256503Y0276680D01*
X0257743Y0278279D02*
X0264241Y0278279D01*
X0265748Y0279877D02*
X0258982Y0279877D01*
X0260222Y0281476D02*
X0267255Y0281476D01*
X0268762Y0283074D02*
X0261462Y0283074D01*
X0262702Y0284673D02*
X0270269Y0284673D01*
X0271776Y0286271D02*
X0263942Y0286271D01*
X0265182Y0287870D02*
X0273283Y0287870D01*
X0274790Y0289468D02*
X0266422Y0289468D01*
X0267661Y0291067D02*
X0276297Y0291067D01*
X0277803Y0292665D02*
X0268901Y0292665D01*
X0270141Y0294264D02*
X0279310Y0294264D01*
X0280817Y0295862D02*
X0271381Y0295862D01*
X0272621Y0297461D02*
X0282324Y0297461D01*
X0283831Y0299059D02*
X0273861Y0299059D01*
X0275101Y0300658D02*
X0285338Y0300658D01*
X0286845Y0302256D02*
X0276341Y0302256D01*
X0277580Y0303855D02*
X0288352Y0303855D01*
X0289859Y0305453D02*
X0278820Y0305453D01*
X0280060Y0307052D02*
X0291366Y0307052D01*
X0292873Y0308650D02*
X0281300Y0308650D01*
X0282540Y0310249D02*
X0294380Y0310249D01*
X0295887Y0311847D02*
X0283780Y0311847D01*
X0285020Y0313446D02*
X0297393Y0313446D01*
X0298900Y0315044D02*
X0286259Y0315044D01*
X0287499Y0316643D02*
X0300407Y0316643D01*
X0301914Y0318241D02*
X0288739Y0318241D01*
X0289979Y0319840D02*
X0303421Y0319840D01*
X0304928Y0321438D02*
X0291219Y0321438D01*
X0292459Y0323037D02*
X0306435Y0323037D01*
X0307942Y0324635D02*
X0293699Y0324635D01*
X0294938Y0326234D02*
X0309449Y0326234D01*
X0310956Y0327832D02*
X0296178Y0327832D01*
X0297418Y0329431D02*
X0312463Y0329431D01*
X0313970Y0331029D02*
X0298658Y0331029D01*
X0248812Y0378985D02*
X0246441Y0378985D01*
X0246726Y0380583D02*
X0248526Y0380583D01*
X0248526Y0382182D02*
X0246726Y0382182D01*
X0246726Y0383780D02*
X0248526Y0383780D01*
X0248526Y0385379D02*
X0246726Y0385379D01*
X0246726Y0386977D02*
X0248526Y0386977D01*
X0248526Y0388576D02*
X0246726Y0388576D01*
X0246726Y0390174D02*
X0248526Y0390174D01*
X0235126Y0384933D02*
X0234126Y0383933D01*
X0142126Y0310933D02*
X0086126Y0370933D01*
X0085126Y0384933D01*
X0073526Y0385379D02*
X0057126Y0385379D01*
X0057126Y0386977D02*
X0073526Y0386977D01*
X0073526Y0388576D02*
X0057126Y0388576D01*
X0057126Y0390174D02*
X0073526Y0390174D01*
X0073526Y0383780D02*
X0057126Y0383780D01*
X0057126Y0382182D02*
X0073526Y0382182D01*
X0073526Y0380583D02*
X0057126Y0380583D01*
X0057126Y0378985D02*
X0073812Y0378985D01*
X0063922Y0370992D02*
X0057126Y0370992D01*
X0057126Y0369394D02*
X0063526Y0369394D01*
X0063526Y0367795D02*
X0057126Y0367795D01*
X0057126Y0366197D02*
X0063526Y0366197D01*
X0063526Y0364598D02*
X0057126Y0364598D01*
X0057126Y0363000D02*
X0063526Y0363000D01*
X0063526Y0361401D02*
X0057126Y0361401D01*
X0057126Y0359803D02*
X0063526Y0359803D01*
X0063526Y0358204D02*
X0057126Y0358204D01*
X0057126Y0356606D02*
X0063526Y0356606D01*
X0063526Y0355007D02*
X0057126Y0355007D01*
X0057126Y0353409D02*
X0063526Y0353409D01*
X0063526Y0351810D02*
X0057126Y0351810D01*
X0057126Y0350212D02*
X0063526Y0350212D01*
X0064183Y0348613D02*
X0057126Y0348613D01*
X0057126Y0347014D02*
X0080777Y0347014D01*
X0063526Y0345416D02*
X0057126Y0345416D01*
X0057126Y0343817D02*
X0063526Y0343817D01*
X0063526Y0342219D02*
X0057126Y0342219D01*
X0057126Y0340620D02*
X0063526Y0340620D01*
X0063526Y0339022D02*
X0057126Y0339022D01*
X0057126Y0337423D02*
X0063526Y0337423D01*
X0063526Y0335825D02*
X0057126Y0335825D01*
X0057126Y0321438D02*
X0064369Y0321438D01*
X0063526Y0319840D02*
X0057126Y0319840D01*
X0057126Y0318241D02*
X0063526Y0318241D01*
X0063526Y0316643D02*
X0057126Y0316643D01*
X0057126Y0315044D02*
X0063526Y0315044D01*
X0063526Y0313446D02*
X0057126Y0313446D01*
X0057126Y0311847D02*
X0063526Y0311847D01*
X0063526Y0310249D02*
X0057126Y0310249D01*
X0057126Y0308650D02*
X0063526Y0308650D01*
X0063526Y0307052D02*
X0057126Y0307052D01*
X0057126Y0305453D02*
X0063526Y0305453D01*
X0063526Y0303855D02*
X0057126Y0303855D01*
X0057126Y0302256D02*
X0063526Y0302256D01*
X0063526Y0300658D02*
X0057126Y0300658D01*
X0070126Y0309933D02*
X0072126Y0307933D01*
X0076726Y0311847D02*
X0103855Y0311847D01*
X0102120Y0313446D02*
X0076726Y0313446D01*
X0076726Y0315044D02*
X0100385Y0315044D01*
X0098649Y0316643D02*
X0076726Y0316643D01*
X0076726Y0318241D02*
X0096914Y0318241D01*
X0095179Y0319840D02*
X0076726Y0319840D01*
X0075884Y0321438D02*
X0093443Y0321438D01*
X0106530Y0295862D02*
X0076460Y0295862D01*
X0076726Y0294264D02*
X0108503Y0294264D01*
X0110476Y0292665D02*
X0076726Y0292665D01*
X0076726Y0291067D02*
X0112449Y0291067D01*
X0114422Y0289468D02*
X0076726Y0289468D01*
X0076726Y0287870D02*
X0116395Y0287870D01*
X0108749Y0276680D02*
X0076726Y0276680D01*
X0076726Y0278279D02*
X0106299Y0278279D01*
X0103849Y0279877D02*
X0076726Y0279877D01*
X0076726Y0281476D02*
X0101399Y0281476D01*
X0111199Y0275081D02*
X0076726Y0275081D01*
X0075939Y0273483D02*
X0113649Y0273483D01*
X0107699Y0262293D02*
X0130798Y0262293D01*
X0133248Y0260695D02*
X0110785Y0260695D01*
X0107126Y0259933D02*
X0070126Y0259933D01*
X0064313Y0273483D02*
X0057126Y0273483D01*
X0057126Y0275081D02*
X0063526Y0275081D01*
X0063526Y0276680D02*
X0057126Y0276680D01*
X0057126Y0278279D02*
X0063526Y0278279D01*
X0063526Y0279877D02*
X0057126Y0279877D01*
X0057126Y0281476D02*
X0063526Y0281476D01*
X0063526Y0283074D02*
X0057126Y0283074D01*
X0114325Y0259096D02*
X0135698Y0259096D01*
X0138148Y0257498D02*
X0117865Y0257498D01*
X0121405Y0255899D02*
X0140598Y0255899D01*
X0143048Y0254301D02*
X0124946Y0254301D01*
X0110126Y0369933D02*
X0110126Y0384933D01*
X0109326Y0385379D02*
X0096726Y0385379D01*
X0096726Y0386977D02*
X0098326Y0386977D01*
X0098326Y0385733D02*
X0098326Y0390170D01*
X0098449Y0390628D01*
X0098686Y0391038D01*
X0099021Y0391373D01*
X0099431Y0391610D01*
X0099889Y0391733D01*
X0109326Y0391733D01*
X0109326Y0385733D01*
X0109326Y0384133D01*
X0098326Y0384133D01*
X0098326Y0379696D01*
X0098449Y0379238D01*
X0098686Y0378828D01*
X0099021Y0378493D01*
X0099431Y0378256D01*
X0099889Y0378133D01*
X0109326Y0378133D01*
X0109326Y0384133D01*
X0110926Y0384133D01*
X0110926Y0378133D01*
X0120363Y0378133D01*
X0120821Y0378256D01*
X0121231Y0378493D01*
X0121566Y0378828D01*
X0121803Y0379238D01*
X0121926Y0379696D01*
X0121926Y0384133D01*
X0110926Y0384133D01*
X0110926Y0385733D01*
X0109326Y0385733D01*
X0098326Y0385733D01*
X0098326Y0383780D02*
X0096726Y0383780D01*
X0096726Y0382182D02*
X0098326Y0382182D01*
X0098326Y0380583D02*
X0096726Y0380583D01*
X0096441Y0378985D02*
X0098595Y0378985D01*
X0098326Y0388576D02*
X0096726Y0388576D01*
X0096726Y0390174D02*
X0098327Y0390174D01*
X0109326Y0390174D02*
X0110926Y0390174D01*
X0110926Y0391733D02*
X0110926Y0385733D01*
X0121926Y0385733D01*
X0121926Y0390170D01*
X0121803Y0390628D01*
X0121566Y0391038D01*
X0121231Y0391373D01*
X0120821Y0391610D01*
X0120363Y0391733D01*
X0110926Y0391733D01*
X0110926Y0388576D02*
X0109326Y0388576D01*
X0109326Y0386977D02*
X0110926Y0386977D01*
X0110926Y0385379D02*
X0123526Y0385379D01*
X0123526Y0386977D02*
X0121926Y0386977D01*
X0121926Y0388576D02*
X0123526Y0388576D01*
X0123526Y0390174D02*
X0121925Y0390174D01*
X0121926Y0383780D02*
X0123526Y0383780D01*
X0123526Y0382182D02*
X0121926Y0382182D01*
X0121926Y0380583D02*
X0123526Y0380583D01*
X0123812Y0378985D02*
X0121657Y0378985D01*
X0110926Y0378985D02*
X0109326Y0378985D01*
X0109326Y0380583D02*
X0110926Y0380583D01*
X0110926Y0382182D02*
X0109326Y0382182D01*
X0109326Y0383780D02*
X0110926Y0383780D01*
X0057126Y0391773D02*
X0386126Y0391773D01*
X0386126Y0393371D02*
X0057126Y0393371D01*
X0057126Y0394970D02*
X0386126Y0394970D01*
X0386126Y0396568D02*
X0057126Y0396568D01*
X0057126Y0398167D02*
X0386126Y0398167D01*
X0386126Y0390174D02*
X0371726Y0390174D01*
X0371726Y0388576D02*
X0386126Y0388576D01*
X0386126Y0386977D02*
X0371726Y0386977D01*
X0371726Y0385379D02*
X0386126Y0385379D01*
X0386126Y0383780D02*
X0371726Y0383780D01*
X0371726Y0382182D02*
X0386126Y0382182D01*
X0386126Y0380583D02*
X0371726Y0380583D01*
X0371441Y0378985D02*
X0386126Y0378985D01*
X0386126Y0370992D02*
X0381330Y0370992D01*
X0381726Y0369394D02*
X0386126Y0369394D01*
X0386126Y0367795D02*
X0381726Y0367795D01*
X0381726Y0366197D02*
X0386126Y0366197D01*
X0386126Y0364598D02*
X0381726Y0364598D01*
X0381726Y0363000D02*
X0386126Y0363000D01*
X0386126Y0361401D02*
X0381726Y0361401D01*
X0381726Y0359803D02*
X0386126Y0359803D01*
X0386126Y0358204D02*
X0381726Y0358204D01*
X0381726Y0356606D02*
X0386126Y0356606D01*
X0386126Y0355007D02*
X0381726Y0355007D01*
X0381726Y0353409D02*
X0386126Y0353409D01*
X0386126Y0351810D02*
X0381726Y0351810D01*
X0381726Y0350212D02*
X0386126Y0350212D01*
X0386126Y0348613D02*
X0381069Y0348613D01*
D15*
X0359126Y0359933D02*
X0243126Y0235933D01*
X0243126Y0232933D01*
X0239953Y0230760D01*
X0236465Y0230760D01*
X0232638Y0230933D01*
X0236465Y0228791D02*
X0243984Y0228791D01*
X0354126Y0333933D01*
X0357126Y0308933D02*
X0246016Y0226823D01*
X0236465Y0226823D01*
X0236465Y0224854D02*
X0248047Y0224854D01*
X0360126Y0284933D01*
X0362126Y0259933D02*
X0251079Y0222886D01*
X0236465Y0222886D01*
X0236465Y0220917D02*
X0255110Y0220917D01*
X0355126Y0233933D01*
X0346126Y0210933D02*
X0251142Y0218949D01*
X0236465Y0218949D01*
X0236465Y0216980D02*
X0250079Y0216980D01*
X0363126Y0185933D01*
X0363126Y0162933D02*
X0247047Y0215012D01*
X0236465Y0215012D01*
X0236465Y0213043D02*
X0245016Y0213043D01*
X0361126Y0137933D01*
X0364126Y0109933D02*
X0242984Y0211075D01*
X0236465Y0211075D01*
X0236465Y0209106D02*
X0239953Y0209106D01*
X0243126Y0205933D01*
X0243126Y0202933D01*
X0360126Y0085933D01*
X0228984Y0193075D02*
X0228984Y0203594D01*
X0227016Y0203594D02*
X0227016Y0188043D01*
X0225047Y0179012D02*
X0225047Y0203594D01*
X0223079Y0203594D02*
X0223079Y0171980D01*
X0217173Y0172980D02*
X0217173Y0203594D01*
X0215205Y0203594D02*
X0215205Y0180012D01*
X0213236Y0189043D02*
X0213236Y0203594D01*
X0211268Y0203594D02*
X0211268Y0194075D01*
X0205126Y0184933D01*
X0203126Y0173933D01*
X0198126Y0180933D02*
X0201126Y0188933D01*
X0209299Y0197106D01*
X0209299Y0203594D01*
X0203788Y0209106D02*
X0201299Y0209106D01*
X0198126Y0205933D01*
X0198126Y0195933D01*
X0087126Y0084933D01*
X0098126Y0109933D02*
X0199268Y0211075D01*
X0203788Y0211075D01*
X0203788Y0213043D02*
X0195236Y0213043D01*
X0105126Y0134933D01*
X0106126Y0159933D02*
X0192205Y0215012D01*
X0203788Y0215012D01*
X0220126Y0215012D01*
X0219142Y0203594D02*
X0219142Y0156949D01*
X0221110Y0158949D02*
X0221110Y0203594D01*
X0230953Y0203594D02*
X0230953Y0198106D01*
X0230953Y0203594D02*
X0231026Y0210968D01*
X0231126Y0209933D01*
X0214099Y0230760D02*
X0203788Y0230760D01*
X0200299Y0230760D01*
X0200299Y0238760D01*
X0200126Y0238933D01*
X0070126Y0359933D01*
X0083126Y0333933D02*
X0197268Y0228791D01*
X0203788Y0228791D01*
X0203788Y0226823D02*
X0195236Y0226823D01*
X0095126Y0307933D01*
X0100126Y0284933D02*
X0192205Y0224854D01*
X0203788Y0224854D01*
X0203788Y0222886D02*
X0189173Y0222886D01*
X0107126Y0259933D01*
X0114126Y0233933D02*
X0186142Y0220917D01*
X0203788Y0220917D01*
X0203788Y0218949D02*
X0186142Y0218949D01*
X0115126Y0209933D01*
X0109126Y0185933D02*
X0189173Y0216980D01*
X0203788Y0216980D01*
X0209299Y0236272D02*
X0209299Y0243760D01*
X0142126Y0310933D01*
X0153126Y0313933D02*
X0211268Y0248791D01*
X0211268Y0236272D01*
X0213236Y0236272D02*
X0213236Y0252823D01*
X0161126Y0320933D01*
X0185126Y0361933D02*
X0217173Y0261886D01*
X0217173Y0236272D01*
X0215205Y0236272D02*
X0215205Y0256854D01*
X0159126Y0368933D01*
X0209126Y0361933D02*
X0219142Y0265917D01*
X0219142Y0236272D01*
X0221110Y0236272D02*
X0221110Y0265917D01*
X0234126Y0358933D01*
X0260126Y0363933D02*
X0223079Y0261886D01*
X0223079Y0236272D01*
X0225047Y0236272D02*
X0225047Y0255854D01*
X0285126Y0368933D01*
X0307126Y0368933D02*
X0227016Y0248823D01*
X0227016Y0236272D01*
X0228984Y0236272D02*
X0228984Y0244791D01*
X0298126Y0333933D01*
X0346126Y0361933D02*
X0230953Y0239760D01*
X0230953Y0236272D01*
M02*
